<svg version="1.1" id="Layer_1" xmlns="http://www.w3.org/2000/svg" x="0" y="0" viewBox="0 0 350.5 36.6" xml:space="preserve"><style>.st0{fill:#fda085}</style><path class="st0" d="M15.5 36.2H0V.8h13.8c2.4 0 4.5.3 6.2.8S23.1 3 23.9 4c1.5 1.8 2.4 3.9 2.4 6.2 0 2.8-.8 4.8-2.7 6.2-.6.4-1 .7-1.3.8s-.7.3-1.3.6c2.3.4 3.9 1.4 5.2 3 1.3 1.5 2 3.4 2 5.6 0 2.5-.8 4.6-2.5 6.5-1.9 2.2-5.3 3.3-10.2 3.3zM7.9 15.1h3.8c2.3 0 3.8-.3 4.9-.7s1.5-1.5 1.5-3.1-.4-2.7-1.4-3.1c-1-.6-2.7-.7-4.9-.7H8l-.1 7.6zm0 14.3h5.5c2.3 0 3.9-.3 5.1-.8 1.1-.6 1.7-1.7 1.7-3.2 0-1.7-.6-2.7-1.8-3.2-1.3-.6-3.1-.8-5.8-.8H8l-.1 8zM34.9.8h7.9v35.4h-7.9V.8zM59.8 7.9c-.7.6-1.1 1.4-1.1 2.5s.4 1.8 1.4 2.4 3.1 1.3 6.5 2.1 5.9 2.1 7.9 3.7c1.8 1.7 2.8 4.1 2.8 7.2 0 3.2-1.1 5.8-3.5 7.7-2.4 2-5.5 3-9.4 3-5.6 0-10.7-2.1-15.2-6.2l4.6-5.8c3.8 3.4 7.3 5.1 10.5 5.1 1.4 0 2.5-.3 3.4-1 .8-.6 1.3-1.4 1.3-2.5s-.4-2-1.3-2.5c-.8-.6-2.7-1.3-5.2-1.8-4.1-1-7.2-2.3-9-3.8-2-1.5-2.8-4.1-2.8-7.5s1.3-5.9 3.7-7.7 5.5-2.7 9-2.7c2.4 0 4.8.4 7 1.3 2.4.8 4.4 2 6.2 3.4l-3.9 5.8c-3.1-2.4-6.2-3.5-9.6-3.5-1.5-.2-2.5.1-3.3.8zM100.1 29.2c3.9 0 7-1.5 9.6-4.6l5.1 5.2c-4.1 4.5-8.7 6.8-14.2 6.8s-10-1.7-13.5-5.2c-3.5-3.4-5.3-7.7-5.3-13.1 0-5.2 1.8-9.6 5.3-13.1s8-5.2 13.2-5.2c5.8 0 10.7 2.3 14.6 6.6l-4.9 5.6c-2.5-3.1-5.6-4.6-9.3-4.6-3 0-5.5 1-7.6 3S90 15.1 90 18.5s1 5.9 3 7.9c1.9 1.8 4.3 2.8 7.1 2.8zM145.8 36.2l-3.2-7.6h-14.8l-3.2 7.6h-8.4L131.5.8h7.6l15.2 35.4h-8.5zm-10.7-24.9l-4.5 10.3h8.9l-4.4-10.3zM171.1 36.2h-7.9V22.3L150.8.8h8.6L167 14 174.6.8h8.6L171 22.2l.1 14zM224.9 4c2.5 2.1 3.7 5.3 3.7 9.7s-1.3 7.6-3.8 9.6-6.5 3.1-11.7 3.1h-4.6v9.8h-7.9V.8h12.5c5.3 0 9.4 1.1 11.8 3.2zm-5.8 13.9c1-1.1 1.4-2.7 1.4-4.6 0-2-.6-3.5-1.8-4.4s-3.1-1.3-5.8-1.3h-4.5v12h5.3c2.7-.1 4.4-.7 5.4-1.7zM234.8 36.2V.8h7.9v28.4h15v7h-22.9zM288.7 36.2l-3.2-7.6h-14.8l-3.2 7.6h-8.4L274.4.8h7.6l15.2 35.4h-8.5zM278 11.3l-4.5 10.3h8.9L278 11.3zM301.2.8h7.9v35.4h-7.9V.8zM342.6.8h7.9v35.4h-7.9L325.7 14v22.2h-7.9V.8h7.5l17.3 22.8V.8z"/></svg>