<?xml version="1.0" standalone="no"?>
<!DOCTYPE svg PUBLIC "-//W3C//DTD SVG 20010904//EN"
 "http://www.w3.org/TR/2001/REC-SVG-20010904/DTD/svg10.dtd">
<svg version="1.0" xmlns="http://www.w3.org/2000/svg"
 width="260.000000pt" height="260.000000pt" viewBox="0 0 260.000000 260.000000"
 preserveAspectRatio="xMidYMid meet">
<metadata>
Created by potrace 1.11, written by Peter Selinger 2001-2013
</metadata>
<g transform="translate(0.000000,260.000000) scale(0.100000,-0.100000)"
fill="#000000" stroke="none">
<path d="M0 1261 c0 -539 3 -986 6 -995 3 -9 10 -13 15 -10 5 3 21 7 35 10 18
3 23 1 18 -7 -5 -9 -2 -10 10 -6 10 4 20 7 22 7 3 0 2 4 -1 10 -3 6 1 7 9 4 9
-3 16 -10 16 -15 0 -6 8 -5 19 1 13 6 22 7 26 0 4 -6 14 -5 27 3 16 9 22 9 25
0 3 -7 9 -13 14 -13 6 0 8 4 5 8 -2 4 7 7 22 6 15 -1 27 -2 27 -4 0 -1 10 -3
22 -4 12 -1 20 1 17 6 -3 4 -1 8 5 8 5 0 13 -5 16 -10 4 -7 13 -7 24 0 12 6
22 5 31 -3 10 -9 11 -9 6 1 -8 14 10 17 19 2 3 -5 12 -7 20 -4 8 4 12 11 9 16
-4 6 1 6 13 -1 11 -6 23 -7 27 -4 3 3 6 1 6 -7 0 -9 3 -10 13 -1 10 8 17 7 27
-2 10 -9 11 -9 6 1 -8 14 10 17 19 2 4 -6 14 -5 27 3 16 9 22 9 25 0 3 -7 9
-13 14 -13 6 0 8 4 5 8 -6 10 35 10 49 0 6 -4 17 -3 25 2 9 5 19 5 26 -1 8 -7
14 -7 18 0 5 7 15 7 32 1 17 -7 23 -7 19 0 -3 6 -2 10 4 10 5 0 13 -5 16 -10
4 -7 13 -7 24 0 12 6 22 5 31 -3 10 -9 11 -9 6 0 -8 15 10 18 19 3 3 -5 12 -7
20 -4 8 4 12 11 8 18 -4 6 4 4 17 -5 19 -12 29 -14 43 -5 13 8 20 8 26 -2 4
-7 15 -10 24 -6 9 3 14 10 11 15 -3 5 2 6 10 3 9 -3 16 -10 16 -15 0 -6 8 -5
19 1 13 6 22 7 26 0 4 -6 14 -5 27 3 16 9 22 9 25 0 3 -7 9 -13 14 -13 6 0 8
4 5 8 -2 4 7 7 22 6 15 -1 27 -2 27 -4 0 -1 10 -3 22 -4 12 -1 20 1 17 6 -3 4
-1 8 5 8 5 0 13 -5 16 -10 4 -7 13 -7 24 0 12 6 22 5 31 -3 10 -9 11 -9 6 1
-8 14 10 17 19 2 3 -5 12 -7 20 -4 8 4 12 11 9 16 -4 6 1 6 13 -1 11 -6 23 -7
27 -4 3 3 6 1 6 -7 0 -9 3 -10 13 -1 10 8 17 7 27 -2 10 -9 11 -9 6 1 -8 14
10 17 19 2 4 -6 14 -5 27 3 16 9 22 9 25 0 3 -7 9 -13 14 -13 6 0 8 4 5 8 -6
10 35 10 49 0 6 -4 17 -3 25 2 9 5 19 5 26 -1 8 -7 14 -7 18 0 5 7 15 7 32 1
17 -7 23 -7 19 0 -3 6 -2 10 4 10 5 0 13 -5 16 -10 4 -7 13 -7 26 0 14 8 19 7
19 -2 0 -8 3 -9 8 -3 8 13 22 13 41 1 10 -7 12 -6 6 4 -6 10 -3 12 13 8 16 -5
22 -2 22 10 0 13 3 12 15 -4 9 -11 14 -13 13 -5 -2 9 9 15 32 17 19 1 36 8 38
13 2 6 7 9 12 6 12 -8 101 42 118 66 8 11 19 18 26 16 13 -5 38 18 29 27 -3 3
6 10 20 17 17 8 23 17 20 27 -4 9 -2 13 4 9 10 -7 28 19 25 36 -1 4 1 6 5 5 5
-2 10 2 12 7 2 6 11 16 20 23 12 10 13 12 1 6 -8 -4 -4 5 10 21 14 16 19 25
13 21 -9 -5 -11 -2 -7 8 3 8 11 17 18 19 7 3 12 19 11 36 -1 16 4 32 10 35 18
6 20 183 3 204 -10 12 -10 14 0 8 6 -4 12 -2 12 3 0 6 -4 11 -10 11 -5 0 -10
7 -10 16 0 9 5 13 13 9 6 -4 4 0 -7 9 -10 8 -15 20 -10 27 5 8 3 10 -6 4 -9
-5 -10 -2 -5 14 4 14 1 23 -9 27 -9 3 -13 10 -10 15 3 5 -2 16 -10 25 -9 9
-14 20 -11 25 4 5 1 9 -5 9 -6 0 -8 5 -5 10 3 6 -1 10 -9 10 -10 0 -13 6 -9
17 5 13 2 15 -11 10 -12 -5 -17 -3 -14 5 5 14 -37 59 -46 50 -3 -3 -6 4 -6 16
0 16 -4 20 -17 15 -10 -4 -14 -2 -9 5 3 6 -1 15 -10 20 -15 8 -15 10 0 15 12
5 15 3 10 -6 -10 -18 37 32 64 67 12 16 22 26 22 22 0 -5 7 -3 15 4 12 10 13
16 3 29 -7 9 -9 13 -4 9 11 -9 35 14 29 28 -2 7 1 15 6 19 6 3 8 11 5 17 -4 6
-2 8 3 5 13 -8 26 20 16 36 -4 7 0 8 12 3 15 -6 16 -4 5 10 -11 12 -11 17 -2
23 7 4 10 15 6 25 -4 11 -1 21 7 27 17 10 21 49 5 49 -6 0 -4 5 4 10 10 6 11
10 3 10 -7 0 -13 5 -13 11 0 5 5 7 10 4 14 -9 12 2 -6 33 -15 25 -15 25 0 8
16 -19 16 -19 14 7 -2 17 -7 26 -15 23 -7 -3 -10 1 -6 9 3 8 9 12 14 9 5 -3 9
0 9 5 0 10 -14 15 -33 12 -5 -1 -6 3 -2 9 3 6 11 8 16 5 14 -9 11 2 -7 19 -12
12 -12 16 -2 16 10 0 9 3 -2 10 -11 7 -12 10 -2 10 10 0 9 4 -2 16 -9 8 -14
20 -11 25 4 5 1 9 -4 9 -6 0 -11 9 -11 20 0 11 -6 20 -12 20 -9 0 -8 4 2 10
13 8 12 10 -3 10 -10 0 -16 4 -13 9 3 5 -1 11 -9 14 -8 4 -12 15 -10 27 2 11
0 18 -5 15 -5 -3 -18 3 -29 14 -13 13 -16 21 -8 25 7 2 4 5 -6 5 -9 1 -23 12
-29 26 -9 19 -14 22 -25 14 -10 -9 -13 -7 -13 10 0 12 -4 19 -10 16 -5 -3 -10
1 -10 10 0 9 -4 14 -9 10 -5 -3 -16 2 -24 10 -12 11 -17 12 -20 2 -3 -7 -6 -4
-6 6 -1 10 -6 15 -11 12 -6 -3 -10 -1 -10 4 0 6 -9 11 -20 11 -11 0 -20 6 -20
13 0 8 -4 7 -10 -3 -8 -12 -10 -12 -10 5 0 17 -2 17 -10 5 -8 -13 -10 -12 -10
4 0 19 0 19 -14 1 -13 -18 -14 -18 -24 1 -12 22 -52 29 -64 11 -6 -9 -8 -9 -8
0 0 9 -220 12 -940 12 l-940 1 0 -979z m1930 955 c-7 -7 -13 -7 -20 0 -6 6 -3
10 10 10 13 0 16 -4 10 -10z m448 -621 c-3 -3 -9 2 -12 12 -6 14 -5 15 5 6 7
-7 10 -15 7 -18z"/>
</g>
</svg>
