<?xml version="1.0" encoding="utf-8"?>
<!-- Generator: Adobe Illustrator 16.0.0, SVG Export Plug-In . SVG Version: 6.00 Build 0)  -->
<!DOCTYPE svg PUBLIC "-//W3C//DTD SVG 1.1//EN" "http://www.w3.org/Graphics/SVG/1.1/DTD/svg11.dtd">
<svg version="1.1" id="Layer_1" xmlns="http://www.w3.org/2000/svg" xmlns:xlink="http://www.w3.org/1999/xlink" x="0px" y="0px"
	 width="311.379px" height="399.648px" viewBox="0 0 311.379 399.648" enable-background="new 0 0 311.379 399.648"
	 xml:space="preserve">
<g>
	<polygon fill-rule="evenodd" clip-rule="evenodd" fill="#ED314D" points="227.785,62.262 227.785,14.704 194.371,4.366 
		194.371,51.925 	"/>
	<polygon fill-rule="evenodd" clip-rule="evenodd" fill="#FBD33C" points="227.785,24.351 227.785,14.704 194.371,4.366 
		194.371,14.014 	"/>
</g>
<g>
	<polygon fill-rule="evenodd" clip-rule="evenodd" fill="#FBD33C" points="187.407,67.049 187.407,28.463 153.993,18.123 
		153.993,56.71 	"/>
	<polygon fill-rule="evenodd" clip-rule="evenodd" fill="#E76C84" points="153.993,37.416 187.407,47.754 153.993,56.71 
		120.575,46.386 	"/>
	<polygon fill-rule="evenodd" clip-rule="evenodd" fill="#ED334E" points="120.575,65.681 153.993,56.71 187.407,67.049 
		153.993,76.02 	"/>
	<polygon fill-rule="evenodd" clip-rule="evenodd" fill="#ED334E" points="153.993,76.02 153.993,56.71 120.575,46.371 
		120.575,65.681 	"/>
	<polygon fill-rule="evenodd" clip-rule="evenodd" fill="#E76C84" points="120.575,27.096 153.993,18.123 187.407,28.463 
		153.993,37.437 	"/>
</g>
<g>
	<polygon fill-rule="evenodd" clip-rule="evenodd" fill="#ED334E" points="49.726,101.255 49.726,62.67 16.309,52.332 
		16.309,90.915 	"/>
	<polygon fill-rule="evenodd" clip-rule="evenodd" fill="#ED334E" points="83.143,92.283 83.143,53.7 49.726,43.359 49.726,81.944 	
		"/>
	<polygon fill-rule="evenodd" clip-rule="evenodd" fill="#FBD33C" points="116.558,83.312 116.558,44.724 83.143,34.386 
		83.143,72.974 	"/>
	<polygon fill-rule="evenodd" clip-rule="evenodd" fill="#E76C84" points="16.309,52.332 83.143,34.386 116.558,44.724 
		49.726,62.67 	"/>
</g>
<path fill="#FFFFFF" d="M40.098,120.165l0.448-0.111c0.449-0.111,0.747,0.133,0.896,0.73c-0.083,0.306-0.106,0.534-0.069,0.683
	c0.329-0.082,0.645,0.237,0.949,0.954l0.322,1.3c0.418-0.104,0.665-0.005,0.738,0.292c-0.637,11.259-2.087,21.732-4.349,31.427
	c-3.558,11.25-7.25,21.82-11.081,31.712l0.167,0.672l0.225-0.055c6.552-2.353,11.249-4.451,14.091-6.296
	c3.012-1.538,8.204-4.457,15.575-8.756l0.448-0.111c2.426,0.066,3.714,0.207,3.863,0.424l0.224-0.055l2.713-1.147l0.335,0.392
	c-0.688,0.17-1.351,1.27-1.99,3.299c0.209-0.052,0.489,0.117,0.838,0.506l0.111,0.448c-4.541,4.074-8.67,7.507-12.387,10.298
	c-0.15,0.037-0.531,0.671-1.147,1.901c-2.04,1.236-3.021,2.016-2.939,2.345c-2.671,2.533-5.812,4.96-9.423,7.28
	c0.236,0.958-3.943,3.228-12.537,6.816c-1.249,0.466-2.335,0.815-3.262,1.044l-1.3,0.321c-4.841,1.198-9.212-0.127-13.116-3.983
	c-0.486-0.037-0.82-0.43-1.005-1.177l0.504,0.113l-0.155-0.628c-0.186-0.747-0.501-1.065-0.951-0.954
	c-0.984-3.973,3.599-20.362,13.752-49.166c1.768-6.051,4.446-13.167,8.032-21.349c1.655-2.281,2.901-3.526,3.738-3.732
	c-0.081-0.328,1.459-1.027,4.62-2.094l0.055,0.223C38.514,122.667,39.535,121.478,40.098,120.165z"/>
<path fill="#FFFFFF" d="M83.432,130.609c3.148-0.78,6.364-0.579,9.648,0.603c1.371,0.01,2.103,0.2,2.195,0.571l-0.181,0.531
	l0.105,0.426c0.403,0.689,0.994,1.39,1.773,2.103c0.076,0.306-0.083,0.507-0.478,0.605l-1.048,0.259
	c0.021,0.552,0.04,0.861,0.056,0.926c0.108-0.026,0.177,0.014,0.204,0.123l-0.385,0.409l-0.927,0.056
	c0.093,0.372-0.381,0.802-1.419,1.291c-0.09,0.766-0.2,1.163-0.331,1.196l-1.082,0.129c0.033,0.131-0.583,0.644-1.847,1.536
	c-0.108-0.437-1.576-0.654-4.406-0.649c-3.519,0.871-7.482,2.757-11.892,5.658l-1.437,1.922c-0.227,1.054-1.079,3.375-2.555,6.965
	l0.04,0.164l0.164-0.041l3.494-1.212c2.36-0.584,5.119-0.733,8.275-0.449c0.803-0.129,1.234-0.073,1.293,0.167l0.178,0.721
	c0.809-0.2,1.251-0.147,1.327,0.159l0.146,0.59c0.027,0.11-0.175,0.369-0.608,0.776l0.424,1.009
	c-0.792,0.358-1.663,1.108-2.611,2.247c-0.842,0.44-1.271,0.86-1.288,1.259l-0.795,0.022l-0.426,0.105
	c0.205,0.831-1.101,1.734-3.922,2.71c0.027,0.11-0.057,0.189-0.254,0.237c-0.109,0.027-0.276,0.011-0.5-0.05
	c-1.902,0.471-4.896,2.012-8.98,4.624c-2.115,0.826-2.976,2.037-2.581,3.632c-0.109,0.027-0.117,0.608-0.021,1.744
	c0.403,0.783,2.111,1.312,5.125,1.585c6.123-3.094,10.06-4.857,11.808-5.29c1.082,0.244,2.135,0.237,3.163-0.017l0.459-0.114
	c0.087-0.021,0.424,0.266,1.013,0.863c-0.432,0.13-1.03,0.708-1.797,1.732c-0.874,0.217-1.594,0.917-2.159,2.102
	c-1.838,1.104-2.736,1.744-2.691,1.918l0.113,0.459c-2.466,1.563-3.603,2.736-3.409,3.522c-1.471,1.456-3.072,2.861-4.801,4.216
	c-1.08,1.729-2.746,2.873-4.997,3.43c-0.295,0.398-0.76,0.675-1.395,0.832l-0.459,0.114c-1.313,0.325-3.032,0.171-5.16-0.462
	c-2.081,0.029-3.609-0.382-4.584-1.231c-2.558-1.616-4.114-3.029-4.668-4.237l-1.084-2.411c-1.039-4.197-0.121-9.018,2.752-14.461
	c1.756-3.589,3.64-7.269,5.654-11.039c4.661-8.252,7.503-12.749,8.526-13.489l0.13-0.033l0.787-0.055l0.187,0.754l-0.182,0.533
	l0.032,0.13l0.165-0.041c1.428-1.444,2.086-2.395,1.973-2.854l0.131-0.032c0.109-0.027,0.175,0.004,0.196,0.091
	c0.482-0.398,1.164-1.25,2.046-2.56c4.692-3.157,7.388-4.823,8.088-4.995C78.376,132.301,80.274,131.623,83.432,130.609z"/>
<path fill="#FFFFFF" d="M134.317,121.825l0.67-0.166c1.239-0.307,2.825,0.919,4.756,3.674l0.259,1.045
	c0.175,2.013-0.39,3.908-1.696,5.684c-2.402,1.444-5.412,5.479-9.029,12.103c0.044,0.182-0.463,1.307-1.524,3.379
	c-2,6.197-2.895,9.721-2.684,10.574c-0.216,0.081-0.462,3.008-0.737,8.776c-0.075,1.087-0.011,2.566,0.193,4.434
	c0.102-0.025,0.166,0.015,0.191,0.117c0.954-0.236,4.457-3.282,10.507-9.139c1.797-1.185,2.868-1.821,3.213-1.906
	c0.804-0.06,1.419-0.146,1.845-0.251l0.622-0.359l0.959,0.872l0.048,0.194l-0.837,1.317l1.371-0.339
	c0.196,0.007,0.316,0.101,0.36,0.28c-0.364,0.529-0.561,1.085-0.589,1.668c0.132,0.187,0.231,0.409,0.294,0.667
	c-1.045,0.479-1.492,1.027-1.338,1.646c-0.69,0.171-1.431,1.534-2.221,4.085c-0.345,0.085-0.977,1.106-1.893,3.061l0.409,0.474
	l0.134,0.542c-0.771,0.191-2.48,2.603-5.128,7.232c-1.959,3.226-4.077,5.122-6.351,5.685l-0.048-0.194l-0.226,0.261l-0.701,0.173
	c-0.772,0.192-3.24-0.074-7.406-0.797c-2.374-1.057-4.06-2.558-5.059-4.503c-0.648-1.401-1.127-2.723-1.434-3.962
	c-1.503-6.069-1.175-13.621,0.986-22.653c2.535-7.781,5.59-14.459,9.167-20.032c2.015-3.349,3.857-5.792,5.523-7.329
	C128.327,126.31,130.791,124.206,134.317,121.825z"/>
<path fill="#FFFFFF" d="M166.567,113.808l0.151-0.038c0.19-0.02,0.307,0.061,0.351,0.239l0.104,0.42
	c-0.264,0.498-0.352,0.926-0.264,1.283l0.076,0.306c0.038,0.153,0.267,0.299,0.689,0.438l0.274-0.068l0.574-1.075l0.153-0.037
	c0.161-0.041,0.521,0.236,1.077,0.828l0.18,0.727c-0.407,3.403-0.527,5.447-0.356,6.135c-0.25,2.903-0.833,7.161-1.751,12.771
	c-0.572,3.524-0.841,5.349-0.811,5.477c5.887-0.862,9.927-1.254,12.124-1.175l0.274-0.068c2.94-9.358,5.375-16.239,7.303-20.639
	c0.315-0.294,0.46-0.493,0.435-0.595l-0.219-0.229c-0.038-0.153,0.646-1.31,2.05-3.47c0.379-1.691,0.911-2.85,1.596-3.479
	c0.143-0.036,0.348-0.385,0.615-1.046c0.118,0.133,0.206,0.313,0.264,0.543l0.152-0.038l0.61-0.922
	c0.407-0.101,0.944,0.28,1.609,1.143c0.07,0.281,0.073,0.686,0.01,1.216c0.133,0.184,0.211,0.327,0.236,0.428l0.275-0.068
	c-0.077-0.306-0.023-0.481,0.159-0.527c0.03,0.129,0.407,0.86,1.125,2.197l-0.15,0.038l0.229,0.269l0.179,0.727
	c-0.483,3.448-1.535,8.551-3.159,15.312c0.051,0.204-0.462,3.361-1.535,9.47c-0.435,7.901-1.746,13.488-3.932,16.761l-2.012,4.801
	l-0.274,0.067l-0.066-0.267l-0.274,0.067c-0.939,1.694-1.349,3.338-1.236,4.933c0.166,0.664,0.023,1.05-0.423,1.161l0.331,1.338
	c-0.357,0.468-0.508,0.816-0.452,1.045c0.025,0.101,0.01,0.255-0.048,0.458c-0.56,0.003-1-0.037-1.321-0.119
	c0.118,0.485,0.116,1.041-0.01,1.666l-0.303-0.047l-0.153,0.038c-0.178,0.234-0.338,0.368-0.48,0.403l-0.707,0.013
	c0.176,0.714,0.143,1.142-0.104,1.285l-0.152,0.037l-0.661-0.324l-1.775,0.927c-1.155-0.309-1.82-0.821-1.996-1.534
	c-0.152-0.612-0.388-1.217-0.709-1.814l-0.075-0.306c-0.05-0.204-0.057-0.405-0.02-0.604l-0.198-0.275
	c-0.934-3.773-0.408-9.613,1.58-17.519c-0.038-0.152-0.219-0.27-0.541-0.353l-1.066,0.265c-0.284,0.503-0.6,0.797-0.946,0.883
	c-0.144-0.153-0.254-0.382-0.33-0.688c-3.808,0.726-7.035,1.269-9.684,1.625c-0.727,0.641-1.187,1.525-1.38,2.655
	c-0.676,2.495-1.349,4.257-2.021,5.29c-0.132-0.184-0.211-0.328-0.235-0.43c-2.216,4.283-3.188,7.365-2.915,9.246
	c-0.163,0.041-0.305,0.643-0.425,1.81c-0.088,0.428-0.173,0.652-0.254,0.671l-0.274,0.068l-0.502-0.2
	c-0.106,0.27-0.105,0.837,0.001,1.704l-0.275,0.067l-0.586-0.017l-1.114,1.372l-1.219,0.302c-0.723,0.477-1.147,0.893-1.275,1.249
	c-0.057-0.229-0.614-0.349-1.673-0.356c-0.265-0.286-0.416-0.506-0.454-0.659c-0.763-3.084-0.705-6.549,0.175-10.392
	c-0.328-1.325,1.643-9.904,5.913-25.734c1.967-6.331,3.723-11.297,5.265-14.9c0.86-2.62,1.896-4.838,3.105-6.652l0.274-0.068
	l0.227,0.268l-0.132,0.642l0.274-0.068c0.983-1.948,1.619-3.647,1.906-5.098L166.567,113.808z M161.177,123.502
	c0.025,0.102,0.009,0.256-0.048,0.458l0.037,0.153l0.153-0.038c-0.038-0.153,0.007-0.367,0.132-0.641L161.177,123.502z
	 M161.545,122.641l0.122-0.031c0.183-0.045,0.249-0.169,0.198-0.374l-0.037-0.152C161.706,122.114,161.611,122.299,161.545,122.641z
	 M162.472,122.858l0.122-0.03c0.351-0.412,0.596-0.986,0.736-1.725l-0.037-0.153C162.927,121.04,162.653,121.676,162.472,122.858z"
	/>
<path fill="#FFFFFF" d="M214.496,101.876c0.549-0.135,1.482,0.896,2.804,3.094c0.162-0.04,0.394,0.548,0.693,1.763l0.039,0.151
	c0.138,0.557-0.02,3.188-0.472,7.894c-0.253,2.023-0.352,3.149-0.295,3.377c-0.209,1.153-0.361,2.413-0.453,3.779
	c-0.822,6.866-2.077,12.939-3.766,18.219c-0.37,0.333-0.979,2.177-1.831,5.531c-0.203,0.05-0.8,1.73-1.791,5.037l-0.122,0.03
	l-0.076-0.304l0.048-0.334l-0.245,0.061c0.082,0.329-0.222,1.142-0.914,2.442c0.101,0.405-0.127,1.054-0.683,1.942
	c-0.772,2.1-1.226,5.059-1.356,8.879c-0.312,1.098-0.632,2.024-0.963,2.777l-0.188-0.236l-0.066-0.79l-0.281-0.091l-0.364,0.09
	l-0.615,1.563c-0.038-0.152-0.247-0.302-0.629-0.449c-0.093,0.937-0.226,1.44-0.402,1.51l-0.121,0.029
	c-0.346-0.263-1.102-0.397-2.268-0.406l-0.513-0.638l0.047-0.333c-0.677-0.639-1.056-1.123-1.137-1.452l-0.112-0.456
	c0.124-0.192,0.01-2.702-0.344-7.531c0.249-5.783,1.903-14.548,4.966-26.293c0.406-1.229,1.59-5.498,3.553-12.807
	c1.295-4.082,2.22-6.527,2.774-7.336c0.081-0.021,0.134,0.021,0.158,0.122c0.734-0.691,1.463-2.189,2.187-4.49l0.271,0.053
	l0.121-0.03l-0.064-0.266l-0.366,0.091c0.294-0.556,0.481-1.192,0.562-1.912c0.163-0.041,0.405-0.409,0.728-1.107
	c0.17-0.015,0.276,0.066,0.32,0.243l-0.411,1.351l0.075,0.303l0.215-0.053c-0.076-0.303-0.031-0.476,0.13-0.516l0.244-0.061
	c0.082-0.02,0.134,0.021,0.16,0.122c0.223-0.055,0.416-0.841,0.578-2.359L214.496,101.876z"/>
<path fill="#FFFFFF" d="M254.841,91.952c2.924-0.724,5.968-0.315,9.129,1.225c1.293,0.085,1.991,0.344,2.1,0.776l-0.142,0.603
	l0.124,0.497c0.415,0.815,1.012,1.653,1.785,2.515c0.089,0.357-0.05,0.58-0.416,0.67l-0.974,0.242
	c0.049,0.636,0.083,0.991,0.103,1.068c0.101-0.025,0.168,0.025,0.198,0.153l-0.341,0.449l-0.87,0.012
	c0.108,0.434-0.314,0.903-1.268,1.408c-0.041,0.875-0.123,1.328-0.245,1.357l-1.013,0.088c0.037,0.154-0.515,0.709-1.657,1.666
	c-0.125-0.509-1.521-0.838-4.188-0.987c-3.27,0.809-6.902,2.762-10.898,5.858l-1.25,2.133c-0.154,1.199-0.83,3.825-2.025,7.875
	l0.046,0.191l0.151-0.039l3.228-1.203c2.193-0.543,4.784-0.563,7.775-0.062c0.75-0.104,1.16-0.016,1.229,0.264l0.209,0.839
	c0.75-0.186,1.171-0.101,1.258,0.255l0.17,0.688c0.031,0.127-0.145,0.415-0.529,0.86l0.454,1.184
	c-0.728,0.37-1.506,1.184-2.336,2.443c-0.771,0.459-1.152,0.92-1.147,1.377l-0.747-0.017l-0.396,0.098
	c0.24,0.968-0.942,1.936-3.547,2.904c0.031,0.128-0.044,0.214-0.228,0.259c-0.103,0.025-0.26-0.002-0.474-0.085
	c-1.767,0.438-4.504,2.047-8.212,4.828c-1.949,0.834-2.693,2.181-2.232,4.038c-0.103,0.025-0.076,0.694,0.076,2.006
	c0.421,0.922,2.062,1.624,4.917,2.105c5.603-3.223,9.217-5.038,10.841-5.44c1.031,0.34,2.025,0.39,2.98,0.155l0.426-0.106
	c0.081-0.02,0.417,0.33,1.004,1.048c-0.4,0.126-0.933,0.758-1.601,1.895c-0.812,0.202-1.451,0.968-1.921,2.299
	c-1.67,1.17-2.48,1.857-2.431,2.061l0.132,0.535c-2.238,1.663-3.245,2.951-3.019,3.867c-1.308,1.594-2.74,3.123-4.295,4.588
	c-0.922,1.93-2.431,3.154-4.521,3.671c-0.256,0.442-0.681,0.736-1.269,0.882l-0.427,0.105c-1.218,0.301-2.848,0.03-4.889-0.815
	c-1.961-0.082-3.424-0.637-4.39-1.668c-2.5-2-4.044-3.712-4.635-5.132l-1.152-2.834c-1.211-4.886-0.61-10.382,1.8-16.489
	c1.459-4.034,3.033-8.165,4.724-12.392c3.94-9.242,6.372-14.26,7.296-15.056l0.123-0.029l0.738-0.021l0.216,0.878l-0.141,0.603
	l0.037,0.152l0.152-0.038c1.267-1.583,1.835-2.642,1.703-3.176l0.121-0.03c0.103-0.025,0.166,0.014,0.19,0.115
	c0.433-0.431,1.029-1.375,1.787-2.833c4.251-3.375,6.702-5.143,7.352-5.304C250.168,93.622,251.919,92.945,254.841,91.952z"/>
<path fill="#FFFFFF" d="M308.744,84.094l0.206,0.217l-0.188,0.466c0.143-0.035,0.368-0.001,0.674,0.101
	c-0.429,0.845-0.535,1.75-0.32,2.715c0.137,0.144,0.218,0.265,0.241,0.36c-0.313,0.077-0.392,0.837-0.239,2.274
	c-0.191,0.15-0.337,0.236-0.433,0.261l0.305,0.61c-0.24,0.06-0.357,0.458-0.354,1.195c-2.849,3.404-4.204,5.485-4.068,6.24
	c-0.375,0.448-1.534,3.27-3.479,8.46c-2.121,5.008-3.681,8.893-4.676,11.66c-1.292,4.038-2.569,8.186-3.832,12.444
	c-1.103,5.416-2.118,9.486-3.048,12.212c-1.844,3.868-4.023,6.113-6.543,6.737c-0.192,0.149-0.336,0.236-0.433,0.259
	c-2.276,0.158-3.496-0.089-3.656-0.736c-0.641-0.529-1.346-1.424-2.117-2.684l-0.349-0.028l-0.018-0.684
	c-0.041-0.167-0.203-0.407-0.483-0.72c-0.224-1.726-0.494-3.225-0.81-4.497l0.18-0.044c-0.022-0.095-0.095-0.129-0.215-0.099
	l-0.016-0.837c-0.618-2.495-1.063-8.927-1.341-19.297l0.426-4.916c-0.239-0.552-0.427-1.104-0.563-1.657l-0.324,0.08
	c-0.717,1.018-1.674,3.317-2.875,6.9c-2.345,8.218-4.359,14.941-6.043,20.17c-0.867,4.008-1.767,6.127-2.702,6.358
	c-0.15,0.115-0.346,0.2-0.585,0.26c-1.773-0.069-2.73-0.379-2.866-0.932l-0.603-0.424l0.603-3.587
	c-0.137-0.143-0.219-0.264-0.241-0.36c-0.269-1.08,0.462-4.302,2.188-9.669c-0.04-0.167,0.4-1.932,1.326-5.292
	c-0.126-0.504,0.81-4.236,2.803-11.197c-0.168-0.671,0.757-3.167,2.768-7.483c-0.184-0.743,1.429-3.537,4.839-8.376
	c1.021-1.628,2.4-2.899,4.134-3.813c0.434-0.107,1.547-0.701,3.342-1.782l0.467-0.116l0.53,0.138l-0.071,0.322
	c0.033,0.144,0.531,0.149,1.49,0.012l0.217,0.252l0.026,0.108c0.154,0.625,0.165,2.009,0.034,4.154l0.527,1.512
	c0.266,2.507,0.147,5.119-0.352,7.839c-1.112,12.777-1.084,21.527,0.086,26.253l0.196,0.792l-0.082,0.288l0.323,0.072
	c0.839-0.208,1.727-2.643,2.659-7.303c0.284-0.809,0.676-1.644,1.176-2.506c1.931-8.345,4.392-16.554,7.384-24.627
	c-0.078-0.312,0.371-1.582,1.348-3.809c0.842-1.736,1.556-3.071,2.141-4.005c0.618-1.095,1.205-2.068,1.76-2.917l2.161-1.911
	C304.562,86.327,307.017,84.522,308.744,84.094z"/>
<path fill="#FFFFFF" d="M44.305,216.246c0.102-0.025,0.169,0.032,0.204,0.168l1.022-0.307l0.909-0.117
	c0.374-0.056,0.956,0.294,1.746,1.046c1.416,0.234,3.677,1.883,6.785,4.948c1.067,1.96,2.159,4.539,3.272,7.731l0.266-0.229
	l0.153-0.038c0.462,2.04,0.777,3.531,0.946,4.475l0.102,0.411c0.712,7.49,1.133,12.719,1.263,15.679l0.469,0.979
	c-0.061,0.709-0.068,1.202-0.021,1.482l0.601,2.425c-0.323,8.624-0.918,15.707-1.787,21.251c-0.647,5.308-1.801,10.049-3.462,14.219
	l-2.076,4.019l0.021,0.213c0.035,0.139,3.631,3.703,10.793,10.69l2.511,2.827l0.102,0.414c0.048,0.28-0.034,0.428-0.245,0.443
	L67.561,309l-0.715-0.535c-0.195,0.084-0.266,0.23-0.215,0.437l0.706,1.413c-0.11-0.009-0.148,0.056-0.114,0.192l-0.325-0.139
	l-0.469,0.063l0.109,0.576l0.411,0.61l-0.063,0.397l-0.867-0.497c-0.152,0.694-0.298,1.061-0.441,1.095l0.162,0.781l0.583,0.787
	l0.102,0.411l-0.368-0.182c-0.231,0.021-0.616,0.427-1.153,1.217c-1.013,0.177-1.503,0.373-1.472,0.582
	c0.115,0.556-0.134,0.855-0.749,0.898l-0.151,0.037c-1.374,0.194-3.542-0.638-6.502-2.495c-3.898-1.993-8.077-5.029-12.536-9.109
	c-0.101,0.025-1.294-1.138-3.58-3.494c-2.546,0.34-5.615-1.786-9.208-6.371c-2.452-4.942-3.984-9.125-4.595-12.555
	c-1.499-8.315-1.146-18.989,1.059-32.021l2.203-7.555c0.327-0.335,0.984-1.813,1.974-4.432c3.792-6.013,5.936-9.063,6.432-9.148
	c0.711-0.433,1.329-1.333,1.852-2.705l-0.224-0.383c-0.028-0.284,0.054-0.432,0.245-0.443c0.551,0.047,1.018,0.059,1.399,0.036
	l0.152-0.036c-0.171-0.871,0.361-3.028,1.598-6.475C43.486,217.598,43.988,216.36,44.305,216.246z M39.813,276.443
	c0.901,5.034,2.261,7.435,4.079,7.204l0.469-0.063c1.959-0.266,3.777-2.504,5.45-6.714c0.817-3.488,1.426-7.6,1.827-12.336
	c0.626-0.082,0.867-3.592,0.723-10.529c-0.07-4.982-0.363-8.908-0.878-11.773c-1.603-4.387-2.717-6.538-3.344-6.457
	c-0.062-0.422-0.249-0.612-0.562-0.571c-2.995,4.794-4.671,8.421-5.032,10.884c-1.039,2.594-1.944,6.724-2.718,12.391
	c-0.96,6.226-0.913,12.201,0.139,17.927L39.813,276.443z M58.091,228.056l0.318-0.024l0.202,1.21
	c-0.183,0.046-0.308-0.069-0.376-0.346L58.091,228.056z"/>
<path fill="#FFFFFF" d="M86.844,205.913c0.342,0.337,1.086,0.471,2.232,0.398l0.117,0.342l-0.217,0.952l0.08,0.191
	c0.614,0.307,1.04,0.766,1.277,1.376c-0.312,3.004-1.093,6.508-2.342,10.52c-1.865,10.225-3.103,18.234-3.717,24.025
	c-0.789,5.341-0.828,10.797-0.118,16.365c0.125,1.025,0.585,3.274,1.379,6.742c1.344,2.733,2.404,3.882,3.179,3.442
	c3.21-1.746,5.586-8.908,7.127-21.485c0.366-1.218,1.112-6.302,2.237-15.25c0.207-0.122,0.422-1.428,0.646-3.915
	c0.667-1.574,1.034-3.445,1.101-5.612c0.125-0.101,0.338-1.069,0.638-2.907c0.414-3.028,1.047-5.389,1.9-7.078
	c0.714-4.161,1.487-6.483,2.315-6.971c0.268-0.137,0.941-1.556,2.018-4.254c0.722-0.391,1.228-1.22,1.517-2.49
	c1.088-0.481,1.698-0.543,1.829-0.189l0.197,0.533c0.146-0.106,0.372-0.021,0.677,0.257c-0.881,4.447-1.226,6.931-1.033,7.444
	c-1.58,6.419-2.317,10.532-2.215,12.339c-0.954,4.855-1.391,7.395-1.313,7.621l0.17-0.095c0.215-0.087,0.358-0.036,0.427,0.158
	c-0.093,0.059-0.123,0.155-0.09,0.287l-0.36-0.017l-0.31,0.183l-1.087,12.324l0.117,0.342l0.171-0.097
	c-0.193-0.515-0.029-1.242,0.493-2.185l0.17-0.094c0.356,1.003-0.006,4.283-1.087,9.839l-1.531,8.572
	c-0.188,1.071-0.195,2.04-0.022,2.914c-0.228,0.129-0.489,1.461-0.788,4.001c-0.113,0.064-0.368,1.255-0.763,3.572l0.067,0.143
	l0.462-0.22l0.185,0.483c-1.362,4.248-2.773,7.558-4.233,9.93c-1.353,2.978-2.893,4.945-4.617,5.901
	c-1.209,0.511-2.278,1.022-3.208,1.535c-0.507,0.303-1.116,0.717-1.826,1.244c-2.252,1.264-5.17,1.703-8.757,1.322
	c-1.741-0.59-3.43-2.233-5.067-4.931c-0.114,0.064-0.187,0.029-0.22-0.104c0.024-0.251-0.018-0.505-0.124-0.762l-0.049-0.198
	c-0.293-0.141-0.646-0.563-1.059-1.272c-1.42-5.218-1.874-7.96-1.358-8.229c0.24,0.012,0.416-0.017,0.53-0.078l0.023-0.43
	l-0.129-0.392l-0.481,0.278l-0.117-0.341l0.17-0.095l0.36,0.016l-0.294-4.843l0.194-0.524l-0.3-0.296l-0.068-0.143l0.39,0.01
	c-0.054-0.127-0.062-0.336-0.025-0.628c-0.208,0.122-0.36,0.071-0.458-0.151c0.268-0.312,0.378-0.517,0.334-0.611
	c-0.171-0.169-0.284-0.317-0.337-0.445c0.158-0.145,0.156-1.678-0.006-4.598c0.381-4.465,0.688-7.009,0.923-7.63l-0.05-0.2
	l0.322-0.132l0.234,0.682c-0.137,0.317-0.263,1.159-0.377,2.527l0.184,0.48l-0.33,1.67c0.191,0.162,0.313,0.31,0.367,0.437
	c-0.258,0.699-0.376,3.266-0.357,7.701c-0.064,2.873,0.046,5.189,0.332,6.951c0.104-0.625,0.113-4.329,0.03-11.11
	c0.494-6.184,1.039-11.644,1.635-16.373c0.511-4.989,1.598-11.866,3.265-20.634c0.346-1.388,1.28-4.141,2.805-8.255l0.023-0.429
	c-0.207,0.122-0.35,0.069-0.427-0.158c0.681-0.38,1.375-1.892,2.079-4.532c0.963-1.331,1.828-2.233,2.595-2.706
	C85.029,207.684,85.611,207.03,86.844,205.913z"/>
<path fill="#FFFFFF" d="M124.232,196.585c0.548-0.135,1.507,0.995,2.875,3.389c0.163-0.04,0.407,0.597,0.732,1.911l0.04,0.165
	c0.15,0.603,0.043,3.436-0.32,8.498c-0.215,2.178-0.292,3.389-0.231,3.636c-0.189,1.239-0.317,2.594-0.384,4.065
	c-0.693,7.384-1.837,13.905-3.432,19.563c-0.366,0.352-0.943,2.326-1.733,5.926c-0.203,0.05-0.771,1.848-1.703,5.395l-0.122,0.029
	l-0.081-0.329l0.041-0.358l-0.244,0.061c0.088,0.357-0.202,1.229-0.871,2.615c0.108,0.438-0.108,1.133-0.649,2.08
	c-0.737,2.247-1.134,5.428-1.193,9.543c-0.291,1.18-0.595,2.171-0.912,2.976l-0.194-0.259l-0.082-0.852l-0.285-0.104l-0.365,0.091
	l-0.588,1.672c-0.041-0.164-0.254-0.33-0.64-0.495c-0.074,1.007-0.199,1.547-0.375,1.619l-0.122,0.03
	c-0.352-0.289-1.113-0.451-2.285-0.48l-0.528-0.699l0.04-0.358c-0.69-0.701-1.08-1.23-1.168-1.587l-0.122-0.493
	c0.122-0.204-0.043-2.911-0.493-8.123c0.14-6.229,1.634-15.644,4.483-28.244c0.386-1.315,1.494-5.894,3.324-13.735
	c1.224-4.373,2.105-6.991,2.647-7.853c0.081-0.021,0.135,0.025,0.163,0.135c0.724-0.731,1.427-2.33,2.109-4.798l0.275,0.063
	l0.122-0.03l-0.071-0.288l-0.366,0.091c0.284-0.595,0.46-1.276,0.527-2.05c0.163-0.041,0.4-0.433,0.71-1.179
	c0.169-0.013,0.277,0.077,0.325,0.268l-0.386,1.448l0.083,0.329l0.213-0.053c-0.082-0.329-0.041-0.514,0.122-0.554l0.244-0.061
	c0.081-0.02,0.135,0.025,0.163,0.135c0.224-0.056,0.402-0.9,0.536-2.532L124.232,196.585z"/>
<path fill="#FFFFFF" d="M84.957,328.278l0.19-0.046c3.598-0.893,6.318-0.493,8.16,1.191c3.167,0.952,5.007,2.464,5.52,4.532
	c0.784,3.169-1.649,7.784-7.301,13.848c-0.431,0.108-1.727,1.337-3.887,3.689c-0.261,0.903-0.758,1.448-1.494,1.63l-0.037-0.155
	l-2.546,2.097l-0.722,0.178c-0.28,0.069-0.533,0.077-0.761,0.025c-2.996,2.019-4.659,3.284-4.989,3.799l0.114,0.461
	c0.31,1.252,5.325,6.301,15.045,15.147c2.439,2.676,3.838,4.745,4.199,6.2c-0.058,0.206-0.07,0.371-0.039,0.498
	c0.228-0.056,1.245,1.766,3.049,5.472l-0.342,0.083l-0.076-0.308l-0.38,0.095l0.456,1.026l0.077,0.306
	c0.05,0.205-0.039,0.334-0.267,0.392c-0.455-0.104-0.849-0.115-1.178-0.034l-0.189,0.048l0.037,0.153
	c0.025,0.103,0.288,0.619,0.789,1.553c0.051,0.207-0.051,0.338-0.304,0.403c-0.607-0.72-1-1.057-1.178-1.013l-0.57,0.143
	l0.038,0.154c0.304,1.225,0.215,1.898-0.266,2.017c-0.532-0.191-0.925-0.259-1.178-0.196c0.063,0.258-0.459,0.969-1.568,2.138
	c-0.583-0.506-0.963-0.738-1.14-0.693l-0.532,0.131l0.266,1.073c-1.817-1.583-3.157-2.322-4.019-2.217l-1.169-0.974
	c0.229-0.056,0.317-0.186,0.267-0.391c-0.177-0.172-0.279-0.313-0.304-0.413l-0.305,0.239c-0.874-0.381-2.096-1.46-3.667-3.241
	c0.052-0.231,0.063-0.396,0.039-0.499c-0.532,0.132-1.693-0.705-3.486-2.511c-4.471-3.397-8.064-6.832-10.781-10.31
	c-1.432-1.652-2.827-3.704-4.188-6.163c-0.304,0.078-0.545-0.082-0.722-0.471l-0.343,0.084c-0.343,5.348-1.457,11.439-3.34,18.277
	c-0.551,0.384-1.138,1.868-1.76,4.463c0.26,0.506,0.421,0.887,0.485,1.142c-0.349,0.115-0.678,0.575-0.989,1.383l0.228,0.271
	c-0.513,0.75-1.036,1.19-1.568,1.324c-0.031-0.128-0.243-0.227-0.636-0.291l0.038,0.153c0.254,0.48,0.39,0.759,0.409,0.834
	c0.051,0.749-0.051,1.152-0.305,1.214l-0.531,0.134l-0.835-0.282l-0.342,0.085l0.294,1.187c0.051,0.205-0.114,0.355-0.494,0.45
	l-0.532,0.131c0.05,0.531-0.064,0.829-0.343,0.898l-0.379,0.094c-0.279,0.068-0.508-0.092-0.684-0.481l-0.343,0.086
	c-0.152,0.037-0.292,0.507-0.419,1.405l-0.494,0.446c-0.253-0.044-0.443-0.053-0.569-0.02c0.032,0.126-0.111,0.31-0.428,0.551
	c-1.925-0.931-3.236-2.101-3.933-3.5c0.114-0.517,0.105-1.044-0.027-1.579c-0.026-0.103-0.115-0.243-0.267-0.421
	c0.057-0.205,0.057-0.424,0-0.652c-0.025-0.101-0.088-0.141-0.19-0.115c-0.727-2.938-0.149-7.828,1.734-14.667l3.614-10.82
	c0.064-0.61,0.666-2.577,1.808-5.897c1.312-3.931,1.94-6.012,1.883-6.244c-0.514-0.115-1.463-0.097-2.85,0.057l-0.457-0.375
	l-0.038-0.154c0.546-0.515,0.777-1.099,0.695-1.757c0.837-0.208,1.182-1.42,1.037-3.635c0.057-0.745,0.326-1.178,0.808-1.296
	l-0.266-1.074c1.452-2.502,3.08-4.449,4.886-5.847c2.49-1.781,3.709-2.776,3.659-2.981c0.304-0.726,0.533-1.108,0.685-1.145
	l0.646,0.328c7.059-4.84,14.098-8.128,21.116-9.865l0.874-0.218c1.394-0.343,2.962-0.475,4.704-0.391l-0.038-0.153
	c-1.159-0.445-2.689-0.432-4.589,0.037l-0.19,0.049L84.957,328.278z M65.946,355.114c0.861-0.215,1.596-0.885,2.204-2.011
	c0.97-0.974,1.606-1.495,1.911-1.57l0.484,0.49c2.084-0.597,4.899-2.149,8.448-4.656c-0.031-0.127,0.91-0.943,2.823-2.446
	c2.205-2.065,3.729-3.622,4.572-4.67c0.172-0.396,0.225-0.722,0.162-0.978l-0.038-0.154c-1.52,0.052-2.888,0.228-4.104,0.529
	l-0.722,0.18c-4.84,1.85-9.076,4.022-12.706,6.521c-1.26,0.774-2.015,2.126-2.263,4.06L65.946,355.114z M82.345,354.713l0.076,0.308
	l0.342-0.084l3.43-2.437l-0.037-0.152l-0.38,0.093C83.691,353.907,82.548,354.662,82.345,354.713z"/>
<path fill="#FFFFFF" d="M125.043,318.969c2.923-0.724,5.99-0.222,9.199,1.507c1.301,0.119,2.009,0.413,2.125,0.884l-0.131,0.647
	l0.134,0.539c0.437,0.893,1.052,1.81,1.847,2.755c0.096,0.391-0.04,0.628-0.404,0.719l-0.976,0.241
	c0.063,0.688,0.105,1.074,0.125,1.158c0.102-0.025,0.169,0.031,0.204,0.17l-0.334,0.479l-0.874-0.003
	c0.117,0.469-0.298,0.969-1.246,1.496c-0.024,0.945-0.098,1.434-0.219,1.463l-1.017,0.077c0.042,0.165-0.501,0.756-1.63,1.768
	c-0.137-0.554-1.547-0.937-4.229-1.154c-3.27,0.81-6.882,2.85-10.835,6.116l-1.213,2.282c-0.131,1.294-0.757,4.119-1.877,8.478
	l0.051,0.207l0.153-0.037l3.217-1.236c2.193-0.545,4.797-0.514,7.814,0.089c0.75-0.099,1.165,0.006,1.24,0.308l0.226,0.915
	c0.751-0.187,1.175-0.087,1.271,0.301l0.186,0.747c0.035,0.141-0.138,0.445-0.516,0.92l0.481,1.292
	c-0.724,0.384-1.49,1.246-2.3,2.591c-0.764,0.483-1.138,0.974-1.124,1.469l-0.751-0.033l-0.396,0.099
	c0.261,1.05-0.91,2.073-3.507,3.068c0.034,0.139-0.04,0.229-0.223,0.276c-0.102,0.024-0.261-0.011-0.478-0.103
	c-1.767,0.437-4.485,2.121-8.155,5.054c-1.941,0.864-2.663,2.306-2.162,4.324c-0.102,0.025-0.063,0.749,0.117,2.172
	c0.443,1.007,2.104,1.797,4.985,2.374c5.565-3.371,9.16-5.261,10.785-5.662c1.045,0.386,2.043,0.462,2.998,0.226l0.426-0.106
	c0.081-0.02,0.425,0.365,1.029,1.154c-0.399,0.13-0.922,0.801-1.57,2.017c-0.812,0.203-1.44,1.02-1.883,2.45
	c-1.657,1.232-2.457,1.958-2.402,2.177l0.144,0.582c-2.217,1.754-3.203,3.126-2.956,4.124c-1.283,1.696-2.69,3.319-4.224,4.874
	c-0.89,2.068-2.379,3.361-4.471,3.881c-0.249,0.473-0.668,0.782-1.257,0.927l-0.427,0.106c-1.218,0.302-2.861-0.025-4.93-0.981
	c-1.972-0.127-3.452-0.757-4.445-1.894c-2.553-2.212-4.139-4.096-4.761-5.646l-1.217-3.089c-1.314-5.307-0.822-11.239,1.477-17.798
	c1.384-4.332,2.883-8.77,4.496-13.31c3.773-9.914,6.117-15.293,7.029-16.135l0.123-0.029l0.741-0.01l0.236,0.956l-0.131,0.649
	l0.041,0.166l0.153-0.039c1.242-1.686,1.791-2.82,1.647-3.401l0.121-0.029c0.102-0.027,0.167,0.018,0.194,0.128
	c0.425-0.458,1.005-1.467,1.739-3.028c4.204-3.565,6.63-5.428,7.28-5.589C120.38,320.68,122.126,319.983,125.043,318.969z"/>
<path fill="#FFFFFF" d="M188.172,303.273l0.151-0.037c0.21-0.026,0.336,0.051,0.38,0.227l0.027,0.114l-0.361,1.016l0.245,0.985
	l0.701-0.294l0.219,0.227c-0.048,0.763-0.628,1.82-1.738,3.167l0.039,0.151c0.283-0.068,0.451-0.005,0.501,0.198
	c-3.172,4.863-5.342,9.196-6.512,13c0.102-0.024,0.164,0.015,0.188,0.115l-0.62,0.757l0.219,0.229
	c-0.451,0.701-0.719,1.531-0.805,2.492c0.405-0.099,0.632-0.062,0.675,0.114c-0.18,0.151-0.606,1.385-1.284,3.699
	c-1.012,2.263-1.873,4.702-2.583,7.319c-0.862,2.092-1.638,5.531-2.328,10.316c-0.511,1.763-0.795,3.4-0.851,4.917
	c-0.779,4.164-1.675,7.727-2.688,10.687c-0.354,0.304-0.688,1.097-0.994,2.379l-2.83,3.719c-1.8,0.823-2.933,1.56-3.396,2.21
	c0.057,0.228,0.49,0.282,1.301,0.161c0.578-0.36,1.001-0.569,1.266-0.634l0.227,0.264c-0.521,0.424-0.983,0.687-1.389,0.786
	c-0.468,0.117-1.341-0.015-2.62-0.397c0.031,0.128-0.127,0.316-0.477,0.561c-1.075,0.269-2.459,0.207-4.15-0.178
	c-1.522,0.377-3.055-1.376-4.599-5.261c-0.559-1.82-0.903-2.997-1.036-3.526c-0.024-0.1-0.01-0.265,0.041-0.493l-0.294-0.531
	c-0.337-1.363-1.172-7.088-2.504-17.166l-0.179-0.723c0.197-0.425,0.088-2.517-0.326-6.275c0.061-1.063,0.01-3.185-0.153-6.361
	l-0.274,0.068l-0.075-0.303c0.426-0.109,0.593-0.697,0.498-1.775c0.041-3.578,0.316-6.033,0.826-7.367
	c0.598-3.071,1.343-4.72,2.236-4.939c0.084,0.166,0.208,0.229,0.371,0.188l0.152-0.038c0.181-1.357,0.576-2.113,1.185-2.265
	c0.677-0.221,0.976-0.497,0.895-0.825l0.273-0.067l0.343,0.075c0.081,0.329,0.033,0.743-0.145,1.244l0.037,0.152
	c0.071,0.196,0.186,0.274,0.349,0.234c0.105-2.012,0.265-3.07,0.475-3.176l0.152-0.038c0.102-0.024,0.166,0.015,0.19,0.115
	l0.267-0.229l1.188-0.292c0.485,0.389,0.839,0.557,1.062,0.502l0.037,0.149c0.201,1.507,0.198,2.365-0.007,2.578l0.036,0.152
	l0.407,0.34l-0.201,0.494l0.343,0.076l-0.411,1.469l0.459,1.859l-0.076,0.342l0.341,0.075l-0.216-0.873
	c0.184-0.045,0.241-0.205,0.172-0.484l0.304-0.076l0.029,0.116c0.176,0.707,0,1.26-0.526,1.658c0.068,0.278,0.265,0.633,0.585,1.062
	c-0.406,0.102,0.609,5.725,3.046,16.873l-0.047,0.333c0.025,0.103,0.079,0.143,0.159,0.123c0.541,3.487,0.716,5.671,0.523,6.55
	c0.024,0.101,0.089,0.139,0.19,0.113c0.19,2.423,0.232,4.073,0.129,4.958l0.149,0.609l0.152-0.041
	c-0.063-0.251,0.526-2.528,1.767-6.834c-0.075-0.305,0.171-1.223,0.74-2.759c1.215-4.488,2.58-8.729,4.09-12.725
	c0.427-0.803,0.603-1.354,0.527-1.658c1.485-4.099,3.501-8.448,6.048-13.048c2.813-4.132,5.179-6.85,7.097-8.154L188.172,303.273z
	 M149.617,338.053l0.152-0.04c-0.064,0.178-0.056,0.431,0.026,0.759l-0.305,0.075l-0.103-0.416
	C149.378,338.217,149.454,338.092,149.617,338.053z M180.52,326.296l0.075,0.303l0.305-0.076l-0.149-0.606
	C180.56,326.018,180.482,326.143,180.52,326.296z"/>
<path fill="#FFFFFF" d="M219.044,295.693c2.923-0.724,5.979-0.264,9.165,1.379c1.298,0.103,2.003,0.38,2.113,0.834l-0.135,0.626
	l0.128,0.521c0.43,0.854,1.035,1.735,1.819,2.645c0.094,0.374-0.044,0.604-0.408,0.695l-0.976,0.241
	c0.056,0.666,0.095,1.036,0.115,1.116c0.101-0.025,0.168,0.029,0.201,0.162l-0.338,0.466l-0.87,0.002
	c0.111,0.454-0.307,0.941-1.257,1.458c-0.032,0.913-0.11,1.385-0.232,1.414l-1.014,0.082c0.04,0.16-0.508,0.734-1.643,1.722
	c-0.132-0.533-1.536-0.893-4.212-1.079c-3.27,0.81-6.892,2.81-10.863,5.999l-1.23,2.213c-0.142,1.25-0.791,3.985-1.945,8.2
	l0.048,0.2l0.153-0.037l3.222-1.223c2.192-0.543,4.793-0.535,7.796,0.021c0.751-0.102,1.162-0.005,1.234,0.287l0.218,0.881
	c0.752-0.186,1.174-0.093,1.266,0.279l0.178,0.721c0.033,0.132-0.14,0.432-0.522,0.892l0.47,1.24
	c-0.726,0.379-1.498,1.221-2.317,2.525c-0.767,0.473-1.145,0.949-1.134,1.427l-0.748-0.026l-0.396,0.098
	c0.249,1.012-0.925,2.011-3.526,2.993c0.033,0.134-0.042,0.223-0.225,0.266c-0.103,0.028-0.262-0.004-0.477-0.092
	c-1.768,0.438-4.494,2.088-8.182,4.952c-1.946,0.849-2.676,2.247-2.195,4.19c-0.103,0.025-0.069,0.724,0.099,2.097
	c0.433,0.968,2.086,1.716,4.954,2.251c5.582-3.306,9.188-5.16,10.812-5.561c1.039,0.365,2.036,0.429,2.989,0.191l0.427-0.104
	c0.08-0.021,0.421,0.348,1.017,1.105c-0.398,0.127-0.927,0.78-1.583,1.961c-0.812,0.201-1.446,0.995-1.901,2.382
	c-1.663,1.2-2.467,1.909-2.415,2.123l0.138,0.559c-2.228,1.711-3.221,3.046-2.984,4.006c-1.293,1.648-2.713,3.23-4.255,4.743
	c-0.905,2.004-2.403,3.267-4.494,3.784c-0.253,0.46-0.675,0.762-1.264,0.908l-0.426,0.104c-1.219,0.301-2.856,0-4.912-0.906
	c-1.966-0.106-3.438-0.703-4.42-1.789c-2.528-2.117-4.095-3.92-4.7-5.409l-1.189-2.974c-1.266-5.112-0.725-10.845,1.627-17.195
	c1.417-4.197,2.951-8.492,4.601-12.887c3.85-9.606,6.233-14.818,7.15-15.641l0.122-0.028l0.739-0.016l0.229,0.921l-0.136,0.627
	l0.039,0.16l0.153-0.038c1.253-1.641,1.811-2.738,1.673-3.297l0.121-0.031c0.102-0.025,0.166,0.015,0.191,0.122
	c0.429-0.445,1.016-1.425,1.763-2.939c4.225-3.478,6.661-5.295,7.312-5.457C214.376,297.387,216.123,296.699,219.044,295.693z"/>
<g>
	<path fill="#FFFFFF" d="M140.07,310.19l-5.843,1.448L122,306.229l-8.359,10.506l-5.571,1.379l-0.134-0.542l9.566-18.736
		l5.299-1.313l17.135,12.128L140.07,310.19z"/>
	<g>
		<path fill="none" d="M140.07,310.19l-5.843,1.448L122,306.229l-8.359,10.506l-5.571,1.379l-0.134-0.542l9.566-18.736l5.299-1.313
			l17.135,12.128L140.07,310.19z"/>
		<g>
			<path fill="#FFFFFF" d="M140.227,306.136c-0.661-0.344-1.301-0.62-1.903-0.79c-2.197-2.379-4.394-2.085-6.879-4.254
				c-1.189-0.847-2.252-1.506-3.278-2.19c-0.513-0.343-1.017-0.691-1.523-1.073c-0.253-0.191-0.506-0.391-0.762-0.602
				c-0.278-0.236-0.564-0.48-0.868-0.738c-0.517,0.078-1.151-0.178-1.891-0.642c-0.546,0.172-1.15,0.314-1.812,0.452
				c-0.38,0.08-0.547,0.104-0.798,0.146c-0.236,0.038-0.478,0.076-0.719,0.115c-0.242,0.041-0.484,0.083-0.723,0.123l-0.356,0.068
				c-0.142,0.031-0.282,0.062-0.42,0.092c-0.707,0.166-1.381,0.353-1.931,0.559c-0.164,0.424-0.288,0.823-0.357,1.184
				c-0.438,1.049-0.452,1.479-0.398,1.794c0.065,0.293,0.278,0.314,0.626-0.105c-0.827,1.744-1.153,1.021-1.665,2.569l-0.186-0.704
				c-0.347,0.418-0.838,0.827-1.077,1.487l0.082,0.924c-1.36,1.459-0.99,2.869-2.241,4.568c0.94-1.043-0.027,0.684,0.396,0.729
				c-0.315,0.195-0.973,1.27-0.909,0.819c-0.935,1.502-0.913,3.335-2.001,3.906l-0.098,0.676c-0.234,1.119-0.968,1.729-1.523,2.585
				l0.108,0.151l0.6,0.836l0.01-0.056l0.023-0.135c0.614-0.311,1.817-0.576,2.444-0.473c1.118-0.179,2.289-0.682,3.554-1.248
				c0.356-0.678,0.716-1.36,1.035-1.967c1.35-1.242,0.247-1.113,1.125-2.508c0.781-0.707,1.6-2.359,2.294-2.615
				c-0.866,1.156-0.409,1.776-1.48,2.871c0.56-0.3-1.387,2.188-0.258,1.352c0.668-1.34,1.678-2.633,2.67-3.9
				c0.496-0.634,0.987-1.262,1.429-1.887c0.422-0.6,0.81-1.215,1.189-1.939c0.03,0.211,0.146,0.24,0.304,0.163
				c0.412,0.339,1.052,0.644,1.736,0.918c0.69,0.277,1.542,0.575,1.968,0.72l-0.012,0.213c0.886,0.507,1.554,0.852,3.128,1.276
				c0.893,0.364,1.787,0.711,2.622,1.097c0.852,0.394,1.546,0.783,2.415,1.398l0.267,0.174c1.471-0.215,2.563-0.633,3.563-1.142
				c0.987-0.505,1.78-1.07,2.186-1.443c-1.103,0.078-2.116,0.375-3.077,0.691c-0.48,0.159-0.951,0.314-1.406,0.466
				c-0.453,0.142-0.814,0.238-1.193,0.298c-0.516-0.31-0.856-0.635-1.295-1.178c0.195,0.106,0.367,0.202,0.523,0.287
				c0.119,0.062,0.225,0.115,0.321,0.165c0.189,0.088,0.347,0.143,0.486,0.172c0.196-0.1,0.358-0.215,0.521-0.35
				c0.111-0.118,0.417-0.313,0.817-0.545c0.023-0.008-0.912,0.017-0.807-0.016c-0.105,0.032,0.57-0.33,0.546-0.323
				c-0.402-0.149,0.383-0.62,0.209-0.846l-1.177,0.353l-0.042-0.018c0.015,0.026,0.029,0.054,0.038,0.078
				c0.156,0.149,0.128,0.389-0.042,0.669l-0.082,0.094c-0.027-0.012-0.401-0.284-0.597-0.37c0.051,0.057,0.144,0.131,0.207,0.192
				c0.027,0.046,0.056,0.092,0.07,0.134c0.006,0.072,0.049,0.165-0.299,0.099c-0.44-0.252-1.117-0.383-1.554-0.778l1.142-0.114
				c-1.583-0.211-2.193-1.691-3.778-1.903l-0.188-0.729l-1.341-0.548l0.233-0.122l-1.555-0.779
				c-0.448-0.146-0.732-0.172-0.933-0.146c-0.206,0.024-0.294,0.116-0.501,0.138c-1.222-0.518-2.356-0.924-2.854-1.282l1.449,0.248
				l-1.385-0.734c0.848,0.49-0.71-0.099-1.238-0.205c-0.046,0.083-0.081,0.15-0.101,0.201c-2.068,2.466-1.415,1.728-2.949,3.169
				c-0.581,1.106-1.734,1.864-1.418,2.226c-1.498,1.439-2.865,3.154-4.091,4.678l-0.307,0.857c-0.244,0.247-0.229,0.186-0.261,0.193
				c-0.027,0.002-0.046,0.006-0.06,0.015c-0.036-0.002-0.056,0.013-0.081,0.04c-0.306,0.105-0.609,0.211-0.927,0.321
				c-0.648,0.233-1.341,0.49-2.249,0.743l0.151-0.181l-1.191,0.679c-0.243,0.021-0.463,0.056-0.666,0.098
				c0.957,1.205,1.913,2.411,2.798,3.526c0.664-1.186,0.596-2.092,1.743-3.56c1.213-1.931,1.234-3.07,1.012-4.012
				c0.233-1.117,1.245-2.155,1.729-3.02l-0.098,0.675l0.592-0.621c0.55-1.316,0.762-1.294,1.378-3.062
				c1.387-2.142,0.326-2.251,0.489-3.379c0,0,0.41-0.472,0.819-0.943c0.205-0.236,0.409-0.472,0.563-0.649
				c0.124-0.118,0.182-0.149,0.185-0.156l-0.126-0.045c-0.08-0.438-0.053-0.729,0.032-0.967c0.397-0.153,0.693-0.07,2.855-0.627
				l-0.247-0.349c1.022,0.1,1.17-0.253,1.969-0.592c0.173,0.079,0.374,0.193,0.595,0.359c0.136,0.092,0.289,0.248,0.514,0.475
				c0.239,0.234,0.521,0.512,0.803,0.789c0.59,0.552,1.271,1.094,1.935,1.26c1.87,1.834,3.575,1.611,5.336,2.966
				c0.908,1.021,2.088,1.01,1.906,1.697l-0.199-0.136l0.019,0.823l0.324-0.348c0.546,0.613,1.58,1.151,1.835,1.973l2.014,0.392
				c-0.418-0.201-0.798-0.54-1.18-0.88l-0.036,0.138c-0.401-0.271-1.416-0.878-1.762-1.354l0.635,0.268
				c-0.562-0.542,0.09-0.344,0.308-0.276c1.127,1.086,1.052,0.469,2.07,1.078c0.182,0.203,0.562,0.543,0.328,0.546
				c0.616,0.336,1.905,1.695,2.23,1.349c0.036,0.054,0.042,0.083,0.074,0.134C140.745,308.492,140.591,307.359,140.227,306.136z"/>
		</g>
	</g>
</g>
<g>
	<g>
		<g>
			<path fill="#FFFFFF" d="M240.484,347.531c-0.135,0.223-0.257,0.532-0.357,0.968c-0.613-1.28-0.822,1.807-1.417,1.214
				c-0.521,0.059-0.841,0.736-1.382,0.114c0.046,2.886-0.965-0.418-1.156,1.493c-0.2,0.373-0.223,1.509-0.008,1.971
				c-0.303,0.145-0.334-1.108-0.553-0.584v-0.984c-0.108-0.23-0.252-0.727-0.351-0.539l-0.037,1.002
				c-0.42-1.07-0.41,0.898-0.817,0.245c0.295,0.707-0.044,0.584,0.062,1.383c-0.09-0.381-0.314-0.558-0.274-0.859
				c-0.319-0.273-0.405,1.465-0.714,0.057l-0.057,0.451c-0.114,0.622-0.333-0.121-0.517-0.316l0.033,0.55
				c-0.077,0.319-0.281,0.276-0.424-0.221c-0.311-0.273-0.549,0.97-0.787,1.645c-0.345-0.539-0.076,1.021-0.312,1.413
				c-0.199-0.328-0.429,0.482-0.597-0.281c0.229-0.107,0.135-1.607,0.407-1.316c-0.137-0.496,0.366-0.596,0.083-1.306
				c-0.362,1.29-1.037,0.236-1.378,1.479c-0.077-1.499-0.593-0.861-0.773-0.648l-0.034-0.401c-0.174-0.204-0.294-0.29-0.528,0.223
				c-0.302,0.127-0.605,0.388-0.883-0.453c-0.395-1.063-0.814,0.617-0.991,1.633c0.497,1.298,0.908-0.916,1.331,1.514
				c-0.355-0.407-0.361,0.144-0.619,0.924l0.151,0.487l-0.112,0.315c0.069,0.52-0.081,0.984-0.057,1.52l0.441-0.025
				c-0.246-0.456-0.102-1.055-0.048-1.621l0.225,0.188c-0.059-0.253-0.197-0.472-0.048-0.803c0.091,0.102,0.197-0.214,0.306,0.155
				l-0.14,1.15c0.239-0.914,0.528,1.31,0.771,0.396l0.139,1.187l0.262-0.097l-0.009,0.416l0.33,0.155
				c0.163-0.199,0.155-0.749,0.159-1.166c0.129-0.049,0.242-0.23,0.313,0.021l-0.104,0.732l0.158,0.218
				c-0.114-0.234,0.089-0.449,0.103-0.731c0.33,0.151,0.229,0.052,0.477,0.653c0.152-0.49,0.456,0.353,0.389-0.598
				c0.393,0.521,0.765,0.491,1.097,0.48l0.091-0.605c0.453,0.637,0.55-0.252,0.939-0.433l-0.004,0.283l0.146-0.771
				c0.361,0.537,0.337-0.863,0.774-0.078c0.412,0.371,0.454-0.646,0.446-1.914c0.112-0.621,0.418,0.22,0.581,0.282l-0.058,0.452
				l0.177,0.479c0.201-0.24,0.251,0.159,0.492-0.382c0.445,0.486,0.202-1.508,0.308-2.264l0.491,1.17l-0.031-0.266
				c0.104-1.456,0.123-0.622,0.657-0.738l-0.09-0.799c0.254,0.859,0.232-0.395,0.471-0.353c0.116-0.048,0.549,1.294,0.685,0.266
				c0.445,0.776,0.528-1.607,0.902-1.483c0.236,0.59,0.349-0.827,0.429,0.511l-0.038,0.016l0.114,1.321l-0.016-0.952
				c0.137,0.354,0.314,0.007,0.439,1.045l0.273-1.748c-0.072,0.165-0.155,0.063-0.239-0.039l0.013,0.268
				c-0.079,0.032-0.263,0.245-0.362-0.124l0.103-0.315c-0.131-0.219-0.035-0.669-0.002-0.817c0.265,0.438,0.178-0.481,0.375-0.695
				c0.046,0.118,0.132,0.221,0.104,0.504c0.115-0.183,0.423,0.509,0.432-0.443c0.009,0.046,0.016,0.086,0.023,0.131
				C240.822,350.767,240.685,349.098,240.484,347.531z"/>
		</g>
	</g>
</g>
</svg>
