<?xml version="1.0" encoding="utf-8"?>
<!-- Generator: Adobe Illustrator 16.0.0, SVG Export Plug-In . SVG Version: 6.00 Build 0)  -->
<!DOCTYPE svg PUBLIC "-//W3C//DTD SVG 1.1//EN" "http://www.w3.org/Graphics/SVG/1.1/DTD/svg11.dtd">
<svg version="1.1" id="Layer_1" xmlns="http://www.w3.org/2000/svg" xmlns:xlink="http://www.w3.org/1999/xlink" x="0px" y="0px"
	 width="960px" height="480px" viewBox="0 0 960 480" enable-background="new 0 0 960 480" xml:space="preserve">
<g opacity="0.59">
	
		<line fill="#FFFFFF" stroke="#FFFFFF" stroke-width="0.4064" stroke-miterlimit="10" x1="781.079" y1="453.594" x2="566.497" y2="50.159"/>
	
		<line fill="#FFFFFF" stroke="#FFFFFF" stroke-width="0.4064" stroke-miterlimit="10" x1="791.488" y1="447.702" x2="556.089" y2="56.05"/>
	
		<line fill="#FFFFFF" stroke="#FFFFFF" stroke-width="0.4064" stroke-miterlimit="10" x1="801.575" y1="441.275" x2="546" y2="62.479"/>
	
		<line fill="#FFFFFF" stroke="#FFFFFF" stroke-width="0.4064" stroke-miterlimit="10" x1="811.313" y1="434.327" x2="536.264" y2="69.427"/>
	
		<line fill="#FFFFFF" stroke="#FFFFFF" stroke-width="0.4064" stroke-miterlimit="10" x1="820.673" y1="426.881" x2="526.904" y2="76.875"/>
	
		<line fill="#FFFFFF" stroke="#FFFFFF" stroke-width="0.4064" stroke-miterlimit="10" x1="829.632" y1="418.954" x2="517.945" y2="84.801"/>
	
		<line fill="#FFFFFF" stroke="#FFFFFF" stroke-width="0.4064" stroke-miterlimit="10" x1="838.163" y1="410.568" x2="509.416" y2="93.187"/>
	
		<line fill="#FFFFFF" stroke="#FFFFFF" stroke-width="0.4064" stroke-miterlimit="10" x1="846.243" y1="401.749" x2="501.335" y2="102.007"/>
	
		<line fill="#FFFFFF" stroke="#FFFFFF" stroke-width="0.4064" stroke-miterlimit="10" x1="853.851" y1="392.518" x2="493.729" y2="111.238"/>
	
		<line fill="#FFFFFF" stroke="#FFFFFF" stroke-width="0.4064" stroke-miterlimit="10" x1="860.965" y1="382.9" x2="486.614" y2="120.854"/>
	
		<line fill="#FFFFFF" stroke="#FFFFFF" stroke-width="0.4064" stroke-miterlimit="10" x1="867.565" y1="372.925" x2="480.013" y2="130.829"/>
	
		<line fill="#FFFFFF" stroke="#FFFFFF" stroke-width="0.4064" stroke-miterlimit="10" x1="873.635" y1="362.617" x2="473.944" y2="141.136"/>
	
		<line fill="#FFFFFF" stroke="#FFFFFF" stroke-width="0.4064" stroke-miterlimit="10" x1="879.156" y1="352.006" x2="468.421" y2="151.747"/>
	
		<line fill="#FFFFFF" stroke="#FFFFFF" stroke-width="0.4064" stroke-miterlimit="10" x1="884.115" y1="341.12" x2="463.463" y2="162.633"/>
	
		<line fill="#FFFFFF" stroke="#FFFFFF" stroke-width="0.4064" stroke-miterlimit="10" x1="888.498" y1="329.99" x2="459.08" y2="173.763"/>
	
		<line fill="#FFFFFF" stroke="#FFFFFF" stroke-width="0.4064" stroke-miterlimit="10" x1="892.292" y1="318.646" x2="455.286" y2="185.107"/>
	
		<line fill="#FFFFFF" stroke="#FFFFFF" stroke-width="0.4064" stroke-miterlimit="10" x1="895.488" y1="307.119" x2="452.09" y2="196.634"/>
	
		<line fill="#FFFFFF" stroke="#FFFFFF" stroke-width="0.4064" stroke-miterlimit="10" x1="898.076" y1="295.439" x2="449.503" y2="208.312"/>
	
		<line fill="#FFFFFF" stroke="#FFFFFF" stroke-width="0.4064" stroke-miterlimit="10" x1="900.049" y1="283.643" x2="447.531" y2="220.11"/>
	
		<line fill="#FFFFFF" stroke="#FFFFFF" stroke-width="0.4064" stroke-miterlimit="10" x1="901.401" y1="271.756" x2="446.179" y2="231.995"/>
	
		<line fill="#FFFFFF" stroke="#FFFFFF" stroke-width="0.4064" stroke-miterlimit="10" x1="902.131" y1="259.814" x2="445.45" y2="243.934"/>
	
		<line fill="#FFFFFF" stroke="#FFFFFF" stroke-width="0.4064" stroke-miterlimit="10" x1="902.233" y1="247.854" x2="445.347" y2="255.896"/>
	
		<line fill="#FFFFFF" stroke="#FFFFFF" stroke-width="0.4064" stroke-miterlimit="10" x1="901.71" y1="235.902" x2="445.871" y2="267.848"/>
	
		<line fill="#FFFFFF" stroke="#FFFFFF" stroke-width="0.4064" stroke-miterlimit="10" x1="900.562" y1="223.997" x2="447.019" y2="279.753"/>
	
		<line fill="#FFFFFF" stroke="#FFFFFF" stroke-width="0.4064" stroke-miterlimit="10" x1="898.791" y1="212.166" x2="448.788" y2="291.583"/>
	
		<line fill="#FFFFFF" stroke="#FFFFFF" stroke-width="0.4064" stroke-miterlimit="10" x1="896.405" y1="200.446" x2="451.176" y2="303.304"/>
	
		<line fill="#FFFFFF" stroke="#FFFFFF" stroke-width="0.4064" stroke-miterlimit="10" x1="893.408" y1="188.865" x2="454.171" y2="314.885"/>
	
		<line fill="#FFFFFF" stroke="#FFFFFF" stroke-width="0.4064" stroke-miterlimit="10" x1="889.809" y1="177.457" x2="457.771" y2="326.293"/>
	
		<line fill="#FFFFFF" stroke="#FFFFFF" stroke-width="0.4064" stroke-miterlimit="10" x1="885.619" y1="166.252" x2="461.962" y2="337.496"/>
	
		<line fill="#FFFFFF" stroke="#FFFFFF" stroke-width="0.4064" stroke-miterlimit="10" x1="880.847" y1="155.284" x2="466.733" y2="348.465"/>
	
		<line fill="#FFFFFF" stroke="#FFFFFF" stroke-width="0.4064" stroke-miterlimit="10" x1="875.508" y1="144.58" x2="472.071" y2="359.169"/>
	
		<line fill="#FFFFFF" stroke="#FFFFFF" stroke-width="0.4064" stroke-miterlimit="10" x1="869.616" y1="134.169" x2="477.964" y2="369.578"/>
	
		<line fill="#FFFFFF" stroke="#FFFFFF" stroke-width="0.4064" stroke-miterlimit="10" x1="863.187" y1="124.081" x2="484.393" y2="379.665"/>
	
		<line fill="#FFFFFF" stroke="#FFFFFF" stroke-width="0.4064" stroke-miterlimit="10" x1="856.238" y1="114.344" x2="491.34" y2="389.403"/>
	
		<line fill="#FFFFFF" stroke="#FFFFFF" stroke-width="0.4064" stroke-miterlimit="10" x1="848.789" y1="104.984" x2="498.789" y2="398.763"/>
	
		<line fill="#FFFFFF" stroke="#FFFFFF" stroke-width="0.4064" stroke-miterlimit="10" x1="840.862" y1="96.027" x2="506.716" y2="407.719"/>
	
		<line fill="#FFFFFF" stroke="#FFFFFF" stroke-width="0.4064" stroke-miterlimit="10" x1="832.477" y1="87.497" x2="515.102" y2="416.249"/>
	
		<line fill="#FFFFFF" stroke="#FFFFFF" stroke-width="0.4064" stroke-miterlimit="10" x1="823.656" y1="79.417" x2="523.92" y2="424.33"/>
	
		<line fill="#FFFFFF" stroke="#FFFFFF" stroke-width="0.4064" stroke-miterlimit="10" x1="814.425" y1="71.809" x2="533.152" y2="431.938"/>
	
		<line fill="#FFFFFF" stroke="#FFFFFF" stroke-width="0.4064" stroke-miterlimit="10" x1="804.808" y1="64.695" x2="542.768" y2="439.051"/>
	
		<line fill="#FFFFFF" stroke="#FFFFFF" stroke-width="0.4064" stroke-miterlimit="10" x1="794.831" y1="58.095" x2="552.742" y2="445.651"/>
	
		<line fill="#FFFFFF" stroke="#FFFFFF" stroke-width="0.4064" stroke-miterlimit="10" x1="784.526" y1="52.026" x2="563.05" y2="451.721"/>
	
		<line fill="#FFFFFF" stroke="#FFFFFF" stroke-width="0.4064" stroke-miterlimit="10" x1="773.915" y1="46.504" x2="573.66" y2="457.242"/>
	
		<line fill="#FFFFFF" stroke="#FFFFFF" stroke-width="0.4064" stroke-miterlimit="10" x1="763.028" y1="41.546" x2="584.546" y2="462.201"/>
	
		<line fill="#FFFFFF" stroke="#FFFFFF" stroke-width="0.4064" stroke-miterlimit="10" x1="751.898" y1="37.163" x2="595.677" y2="466.583"/>
	
		<line fill="#FFFFFF" stroke="#FFFFFF" stroke-width="0.4064" stroke-miterlimit="10" x1="740.555" y1="33.37" x2="607.021" y2="470.377"/>
	
		<line fill="#FFFFFF" stroke="#FFFFFF" stroke-width="0.4064" stroke-miterlimit="10" x1="729.026" y1="30.175" x2="618.548" y2="473.572"/>
	
		<line fill="#FFFFFF" stroke="#FFFFFF" stroke-width="0.4064" stroke-miterlimit="10" x1="717.349" y1="27.588" x2="630.226" y2="476.161"/>
	
		<line fill="#FFFFFF" stroke="#FFFFFF" stroke-width="0.4064" stroke-miterlimit="10" x1="705.55" y1="25.616" x2="642.023" y2="478.134"/>
	
		<line fill="#FFFFFF" stroke="#FFFFFF" stroke-width="0.4064" stroke-miterlimit="10" x1="693.666" y1="24.264" x2="653.908" y2="479.486"/>
	
		<line fill="#FFFFFF" stroke="#FFFFFF" stroke-width="0.4064" stroke-miterlimit="10" x1="681.724" y1="23.535" x2="665.848" y2="480.215"/>
	
		<line fill="#FFFFFF" stroke="#FFFFFF" stroke-width="0.4064" stroke-miterlimit="10" x1="669.765" y1="23.432" x2="677.81" y2="480.318"/>
	
		<line fill="#FFFFFF" stroke="#FFFFFF" stroke-width="0.4064" stroke-miterlimit="10" x1="657.813" y1="23.956" x2="689.759" y2="479.794"/>
	
		<line fill="#FFFFFF" stroke="#FFFFFF" stroke-width="0.4064" stroke-miterlimit="10" x1="645.907" y1="25.105" x2="701.665" y2="478.646"/>
	
		<line fill="#FFFFFF" stroke="#FFFFFF" stroke-width="0.4064" stroke-miterlimit="10" x1="634.076" y1="26.875" x2="713.495" y2="476.876"/>
	
		<line fill="#FFFFFF" stroke="#FFFFFF" stroke-width="0.4064" stroke-miterlimit="10" x1="622.354" y1="29.262" x2="725.217" y2="474.49"/>
	
		<line fill="#FFFFFF" stroke="#FFFFFF" stroke-width="0.4064" stroke-miterlimit="10" x1="610.775" y1="32.258" x2="736.797" y2="471.493"/>
	
		<line fill="#FFFFFF" stroke="#FFFFFF" stroke-width="0.4064" stroke-miterlimit="10" x1="599.367" y1="35.857" x2="748.203" y2="467.894"/>
	
		<line fill="#FFFFFF" stroke="#FFFFFF" stroke-width="0.4064" stroke-miterlimit="10" x1="588.164" y1="40.048" x2="759.408" y2="463.704"/>
	
		<line fill="#FFFFFF" stroke="#FFFFFF" stroke-width="0.4064" stroke-miterlimit="10" x1="577.196" y1="44.819" x2="770.378" y2="458.932"/>
</g>
<polygon opacity="0.59" fill="#FFFFFF" stroke="#FFFFFF" stroke-miterlimit="10" enable-background="new    " points="
	458.328,455.221 425.964,378.45 435.354,369.732 471.402,456.817 "/>
<polygon opacity="0.59" fill="#FFFFFF" stroke="#FFFFFF" stroke-miterlimit="10" enable-background="new    " points="
	382.709,437.696 348.979,358.611 334.639,356.955 372.368,445.47 "/>
<polygon opacity="0.59" fill="#FFFFFF" stroke="#FFFFFF" stroke-miterlimit="10" enable-background="new    " points="
	471.323,456.723 480.925,447.483 456.281,391.923 445.617,396.211 "/>
<polygon opacity="0.59" fill="#FFFFFF" stroke="#FFFFFF" stroke-miterlimit="10" enable-background="new    " points="
	448.37,356.635 497.336,308.48 480.309,306.515 442.975,343.594 "/>
<polygon opacity="0.59" fill="#FFFFFF" stroke="#FFFFFF" stroke-miterlimit="10" enable-background="new    " points="
	453.004,366.826 448.408,356.294 497.345,308.396 501.673,318.897 "/>
<path opacity="0.59" fill="#FFFFFF" stroke="#FFFFFF" stroke-miterlimit="10" enable-background="new    " d="M448.896,386.702
	l113.272,13.077l-47.961-113.15L401.65,273.635L448.896,386.702z M506.339,298.138l37.169,87.071l-85.313-9.851l-37.168-87.069
	L506.339,298.138z"/>
<path opacity="0.59" fill="#FFFFFF" stroke="#FFFFFF" stroke-miterlimit="10" enable-background="new    " d="M348.261,358.528"/>
<polygon opacity="0.59" fill="#FFFFFF" stroke="#FFFFFF" stroke-miterlimit="10" enable-background="new    " points="
	348.979,358.611 335.356,357.039 397.637,295.82 402.113,306.341 "/>
<polygon opacity="0.59" fill="#FFFFFF" stroke="#FFFFFF" stroke-miterlimit="10" enable-background="new    " points="
	391.027,460.042 402.386,448.706 471.317,456.778 476.341,469.891 "/>
<polygon opacity="0.59" fill="#FFFFFF" stroke="#FFFFFF" stroke-miterlimit="10" enable-background="new    " points="
	348.979,358.611 428.556,367.798 423.438,355.48 359.395,348.086 "/>
<polygon opacity="0.59" fill="#FFFFFF" stroke="#FFFFFF" stroke-miterlimit="10" enable-background="new    " points="
	476.341,469.891 471.315,456.778 524.003,406.296 540.97,408.254 "/>
<polygon opacity="0.59" fill="#FFFFFF" stroke="#FFFFFF" stroke-miterlimit="10" enable-background="new    " points="
	425.864,378.525 353.813,370.207 348.979,358.611 428.556,367.798 431.034,373.861 "/>
<polygon opacity="0.59" fill="#FFFFFF" stroke="#FFFFFF" stroke-miterlimit="10" enable-background="new    " points="
	528.542,383.481 497.336,308.48 507.417,298.262 543.594,385.261 "/>
<polygon opacity="0.59" fill="#FFFFFF" stroke="#FFFFFF" stroke-miterlimit="10" enable-background="new    " points="
	507.535,298.276 497.336,308.48 426.276,300.507 421.027,288.289 "/>
<path opacity="0.59" fill="#FFFFFF" stroke="#FFFFFF" stroke-miterlimit="10" enable-background="new    " d="M320.379,354.62
	l48.04,112.468l80.477-80.386L401.65,273.635L320.379,354.62z M371.248,442.582l-35.892-85.543l62.266-61.104l37.169,87.069
	L371.248,442.582z"/>
<path opacity="0.59" fill="#FFFFFF" stroke="#FFFFFF" stroke-miterlimit="10" enable-background="new    " d="M368.419,467.088
	L480.259,480l81.909-80.221l-113.273-13.077L368.419,467.088z M540.836,408.354l-64.495,61.536l-85.314-9.849l62.345-61.786
	L540.836,408.354z"/>
<g opacity="0.59">
	<path fill="#FFFFFF" stroke="#FFFFFF" stroke-miterlimit="10" d="M645.776,1c0.159,0,47.227,13.413,47.52,13.44
		c11.17,19.55,23.089,38.352,34.562,57.6c-0.39,0.091-0.479,0.481-0.96,0.48c-19.682,0-39.36,0-59.04,0
		c0.041-0.681-0.464-0.665-0.48-1.44C667.376,70.92,645.776,1.32,645.776,1z"/>
	<path fill="#FFFFFF" stroke="#FFFFFF" stroke-miterlimit="10" d="M693.296,14.44c0.954,0.006,41.468,33.093,41.76,33.12
		c0.015,0.467,0.588,0.373,0.96,0.48c14.4,1.12,30.881,0.16,46.08,0.48c-17.704,8.216-35.834,16.006-54.238,23.52
		C716.385,52.792,704.466,33.99,693.296,14.44z"/>
	<path fill="#FFFFFF" stroke="#FFFFFF" stroke-miterlimit="10" d="M782.096,48.52c0.16,0,22.562,24.8,22.562,24.96
		c-0.408-0.088-63.682,64.8-63.84,64.8c-4.126-22.114-8.144-44.338-12.961-65.76c0-0.16,0-0.32,0-0.48
		C746.262,64.526,764.392,56.736,782.096,48.52z"/>
	<path fill="#FFFFFF" stroke="#FFFFFF" stroke-miterlimit="10" d="M667.376,71.08c0.56,0.081,0.521,0.759,0.48,1.44
		c19.68,0,39.358,0,59.039,0c-19.49,13.149-39.609,25.67-59.039,38.88C666.736,98.919,667.696,84.36,667.376,71.08z"/>
	<path fill="#FFFFFF" stroke="#FFFFFF" stroke-miterlimit="10" d="M727.856,72.04c0,0.16,0,0.32,0,0.48c0,37.44,0,74.88,0,112.32
		c-0.033,2.242-59.707-72.453-60-72.48c0-0.319,0-0.64,0-0.96c19.43-13.21,39.549-25.73,59.039-38.88
		C727.378,72.521,727.468,72.131,727.856,72.04z"/>
	<path fill="#FFFFFF" stroke="#FFFFFF" stroke-miterlimit="10" d="M727.856,72.52c4.816,21.422,8.834,43.646,12.96,65.76
		c0,0.16-12.802,46.561-12.96,46.561C727.856,147.4,727.856,109.96,727.856,72.52z"/>
</g>
<g opacity="0.59">
	<path fill="#FFFFFF" stroke="#FFFFFF" stroke-miterlimit="10" d="M935.761,411.085c-0.146-0.063-38.109-30.945-38.37-31.088
		c-2.556-22.368-6.097-44.348-9.049-66.56c0.394,0.068,0.629-0.254,1.07-0.063c18.086,7.76,36.172,15.519,54.257,23.278
		C943.364,337.265,935.888,410.791,935.761,411.085z"/>
	<path fill="#FFFFFF" stroke="#FFFFFF" stroke-miterlimit="10" d="M871.38,332.277c-12.793-6.706-28.314-12.323-42.158-18.609
		c19.511-0.57,39.242-0.582,59.12-0.229c2.952,22.211,6.493,44.189,9.049,66.559"/>
	<path fill="#FFFFFF" stroke="#FFFFFF" stroke-miterlimit="10" d="M829.222,313.668c-0.147-0.063-1.027-0.442-1.322-0.567
		c0.24-0.341-9.383-26.833-9.317-26.979c0.242-0.339,83.821-38.729,83.967-38.665c-4.929,21.948-9.999,43.956-14.018,65.541
		c-0.063,0.147-0.126,0.295-0.188,0.442C868.464,313.086,848.731,313.098,829.222,313.668z"/>
	<path fill="#FFFFFF" stroke="#FFFFFF" stroke-miterlimit="10" d="M943.543,338.165c-0.481-0.293-0.179-0.9,0.126-1.511
		c-18.085-7.761-36.171-15.52-54.257-23.278c23.097-4.399,46.522-7.974,69.588-12.453
		C955.106,312.834,948.485,325.835,943.543,338.165z"/>
	<path fill="#FFFFFF" stroke="#FFFFFF" stroke-miterlimit="10" d="M696.236,468.69c0.063-0.146,0.126-0.292,0.188-0.44
		c14.76-34.407,29.523-68.814,44.285-103.221c0.914-2.049,26.312,90.852,26.186,91.146c-23.064,4.481-46.491,8.053-69.588,12.452
		C696.865,468.438,696.631,468.759,696.236,468.69z"/>
	<path fill="#FFFFFF" stroke="#FFFFFF" stroke-miterlimit="10" d="M888.53,312.996c4.019-21.585,9.089-43.592,14.018-65.541
		c0.063-0.148,30.121-37.742,30.269-37.68C918.053,244.184,903.291,278.59,888.53,312.996z"/>
</g>
</svg>
