<?xml version="1.0" encoding="utf-8"?>
<!-- Generator: Adobe Illustrator 18.0.0, SVG Export Plug-In . SVG Version: 6.00 Build 0)  -->
<!DOCTYPE svg PUBLIC "-//W3C//DTD SVG 1.1//EN" "http://www.w3.org/Graphics/SVG/1.1/DTD/svg11.dtd">
<svg version="1.1" id="Calque_1" xmlns="http://www.w3.org/2000/svg" xmlns:xlink="http://www.w3.org/1999/xlink" x="0px" y="0px"
	 viewBox="0 0 193.5 63.8" enable-background="new 0 0 193.5 63.8" xml:space="preserve">
<g>
	<path fill="#5B4E60" d="M14.9,42.3v-36h-3.4V5.6h9.8v20.2h0.1c0.1-0.3,0.4-0.8,0.7-1.4c0.3-0.6,0.8-1.2,1.5-1.8
		c0.7-0.6,1.5-1.1,2.5-1.6c1-0.5,2.3-0.7,3.9-0.7c2.3,0,4.1,0.7,5.3,2c1.3,1.3,1.9,3.1,1.9,5.4v14.7h3.5v0.7H27.6v-0.7h3.2V25.9
		c0-1.5-0.3-2.5-0.9-3.2c-0.6-0.7-1.4-1-2.4-1c-0.8,0-1.6,0.2-2.4,0.6c-0.8,0.4-1.4,1-2,1.8c-0.6,0.8-1,1.8-1.4,3
		c-0.3,1.2-0.5,2.6-0.5,4.2v11.1h3.3v0.7H11.5v-0.7H14.9z"/>
	<path fill="#5B4E60" d="M62.2,43.5c-0.9,0.1-1.8,0.2-2.6,0.2c-1.8,0-3.1-0.3-3.9-0.9c-0.8-0.6-1.4-1.5-1.6-2.6H54
		c-0.6,1.4-1.3,2.3-2.3,2.8c-1,0.5-2.4,0.7-4.2,0.7c-0.8,0-1.7-0.1-2.5-0.3c-0.9-0.2-1.7-0.5-2.4-0.8c-0.7-0.4-1.3-0.9-1.8-1.6
		c-0.5-0.7-0.7-1.5-0.7-2.5c0-1,0.2-1.8,0.6-2.5c0.4-0.7,0.9-1.2,1.6-1.7c0.6-0.5,1.4-0.8,2.2-1.1c0.8-0.3,1.7-0.6,2.5-0.9
		c1.4-0.4,2.6-0.8,3.5-1.1c0.9-0.3,1.6-0.6,2.1-0.9c0.5-0.3,0.8-0.7,1-1.1c0.2-0.4,0.3-1,0.3-1.6v-3.2c0-0.9-0.2-1.8-0.7-2.5
		c-0.5-0.8-1.3-1.1-2.5-1.1c-0.8,0-1.5,0.2-2.1,0.5c-0.6,0.4-0.9,1-0.9,2c0,0.1,0,0.3,0.1,0.5c0,0.3,0.1,0.5,0.1,0.9
		c0,0.3,0.1,0.6,0.1,0.9c0,0.3,0.1,0.5,0.1,0.6c0,0.5-0.1,0.9-0.4,1.2c-0.2,0.3-0.5,0.5-0.9,0.7c-0.3,0.1-0.7,0.2-1,0.2
		c-0.4,0-0.7,0-0.9,0c-0.3,0-0.7,0-1.1-0.1c-0.4-0.1-0.7-0.2-1-0.4c-0.3-0.2-0.5-0.5-0.7-0.8c-0.2-0.3-0.3-0.8-0.3-1.4
		c0-0.9,0.3-1.7,0.8-2.4c0.5-0.7,1.2-1.3,2-1.8c0.8-0.5,1.8-0.8,2.8-1.1c1.1-0.2,2.2-0.4,3.3-0.4c1.3,0,2.6,0.1,3.7,0.3
		c1.2,0.2,2.2,0.6,3,1.1c0.8,0.6,1.5,1.3,2,2.3c0.5,1,0.8,2.2,0.8,3.6v12.9c0,0.7,0.1,1.2,0.3,1.7c0.2,0.5,0.7,0.8,1.4,0.8
		c0.5,0,0.8-0.1,1.1-0.3c0.3-0.2,0.6-0.4,0.9-0.7l0.5,0.5C63.9,43,63.2,43.4,62.2,43.5z M53.7,30.2c-0.1,0.2-0.2,0.4-0.4,0.6
		c-0.2,0.2-0.5,0.4-1,0.6c-0.7,0.3-1.3,0.6-2,0.9c-0.7,0.3-1.2,0.7-1.8,1.1c-0.5,0.5-0.9,1-1.3,1.7c-0.3,0.7-0.5,1.5-0.5,2.5
		c0,0.4,0,0.9,0.1,1.5c0.1,0.6,0.2,1.1,0.4,1.6c0.2,0.5,0.6,1,1,1.3c0.5,0.4,1.1,0.5,1.9,0.5c0.4,0,0.9-0.1,1.3-0.3
		c0.4-0.2,0.8-0.5,1.2-1c0.3-0.4,0.6-1,0.8-1.7c0.2-0.7,0.3-1.6,0.3-2.6v-6.9H53.7z"/>
	<path fill="#5B4E60" d="M63.3,27.9c0.6-1.4,1.4-2.7,2.5-3.8c1.1-1.2,2.4-2.1,4-2.9c1.6-0.8,3.4-1.1,5.5-1.1c1.3,0,2.5,0.1,3.6,0.4
		c1.1,0.3,2,0.7,2.8,1.2c0.8,0.5,1.4,1.1,1.8,1.8c0.4,0.7,0.7,1.5,0.7,2.4c0,1.1-0.3,2-0.9,2.4c-0.6,0.5-1.4,0.7-2.5,0.7
		c-0.8,0-1.5-0.1-2.2-0.4c-0.7-0.3-1-0.9-1-1.8c0-0.1,0-0.4,0.1-0.7c0.1-0.3,0.2-0.7,0.3-1.1c0.1-0.4,0.2-0.7,0.3-1.1
		c0.1-0.3,0.1-0.6,0.1-0.7c0-0.7-0.3-1.2-0.9-1.6c-0.6-0.4-1.4-0.6-2.3-0.6c-1.2,0-2.2,0.3-3,0.9c-0.7,0.6-1.3,1.4-1.7,2.4
		c-0.4,1-0.7,2.1-0.8,3.4c-0.1,1.3-0.2,2.7-0.2,4.1c0,1.4,0.1,2.7,0.2,4.1c0.1,1.4,0.4,2.6,0.8,3.7c0.5,1.1,1.1,2,2,2.7
		c0.9,0.7,2,1,3.5,1c1.4,0,2.6-0.3,3.6-0.8c1-0.5,1.8-1.1,2.3-1.8c0.6-0.7,1-1.4,1.3-2c0.3-0.7,0.5-1.2,0.5-1.5l0.7,0.3
		c-0.2,0.6-0.4,1.3-0.8,2.1c-0.4,0.7-0.9,1.4-1.6,2.1c-0.7,0.6-1.6,1.2-2.7,1.6c-1.1,0.5-2.5,0.7-4.1,0.7c-0.5,0-1.1,0-1.9-0.1
		c-0.8-0.1-1.7-0.3-2.7-0.6c-1-0.3-1.9-0.7-2.9-1.2c-1-0.5-1.9-1.2-2.7-2.1c-0.8-0.9-1.5-2-2-3.2c-0.5-1.3-0.8-2.8-0.8-4.6
		C62.4,30.6,62.7,29.3,63.3,27.9z"/>
	<path fill="#5B4E60" d="M90.1,32.4c0,1.2,0.1,2.5,0.2,3.8c0.1,1.3,0.4,2.4,0.8,3.4c0.5,1,1.1,1.9,2,2.5c0.9,0.7,2.1,1,3.6,1
		c1.4,0,2.6-0.3,3.5-0.8c1-0.5,1.7-1.1,2.3-1.8s1.1-1.3,1.4-2c0.3-0.7,0.5-1.1,0.5-1.5l0.7,0.3c-0.2,0.7-0.5,1.4-0.9,2.1
		c-0.4,0.7-1,1.4-1.7,2.1c-0.7,0.6-1.6,1.2-2.7,1.6c-1.1,0.4-2.4,0.6-3.9,0.6c-1.8,0-3.5-0.3-5-0.8s-2.9-1.3-4.1-2.3
		c-1.2-1-2.1-2.3-2.7-3.7c-0.7-1.5-1-3.1-1-5c0-1.5,0.3-2.9,0.9-4.4c0.6-1.4,1.5-2.7,2.6-3.8c1.1-1.1,2.4-2,3.8-2.7
		c1.5-0.7,3.1-1,4.8-1c1.2,0,2.4,0.2,3.6,0.6c1.2,0.4,2.3,1,3.3,1.8c1,0.8,1.8,1.8,2.4,3.1c0.6,1.3,0.9,2.8,0.9,4.6H90.1V32.4z
		 M98.4,25.8c0-0.4,0-0.8-0.1-1.4c0-0.6-0.2-1.1-0.4-1.7c-0.2-0.6-0.5-1-1-1.4c-0.5-0.4-1.1-0.6-2-0.6c-1.2,0-2.1,0.3-2.7,0.8
		c-0.6,0.6-1.1,1.3-1.4,2.1c-0.3,0.9-0.5,1.8-0.6,2.8c-0.1,1-0.1,1.9-0.2,2.8h8.3V25.8z"/>
	<path fill="#5B4E60" d="M132.1,42.3v0.7h-9.7v-3.8h-0.1c-0.6,1.5-1.3,2.6-2.3,3.4c-1,0.8-2.3,1.2-3.8,1.2c-1.7,0-3.2-0.3-4.6-1
		c-1.4-0.7-2.6-1.5-3.6-2.6c-1-1.1-1.8-2.3-2.3-3.8c-0.6-1.4-0.8-2.9-0.8-4.5c0-1.2,0.2-2.5,0.6-3.9c0.4-1.4,1.1-2.7,2-3.8
		c0.9-1.2,2.1-2.2,3.5-2.9c1.4-0.8,3.1-1.2,5.1-1.2c1.6,0,2.8,0.4,3.8,1.1c1,0.7,1.7,1.8,2.2,3.3h0.1V6.3h-3.5V5.6h9.9v36.8H132.1z
		 M122.1,28.2c-0.1-1.3-0.4-2.5-0.8-3.6c-0.4-1.1-1-2-1.7-2.8s-1.8-1.1-3.1-1.1c-0.9,0-1.6,0.2-2.2,0.6c-0.6,0.4-1.1,1-1.5,1.9
		c-0.4,0.9-0.7,2-0.8,3.5c-0.2,1.4-0.2,3.2-0.2,5.3c0,1.7,0,3.2,0.1,4.6c0.1,1.4,0.3,2.5,0.6,3.5c0.3,1,0.7,1.7,1.3,2.2
		c0.6,0.5,1.3,0.8,2.3,0.8c1.5,0,2.6-0.4,3.4-1.1c0.8-0.7,1.4-1.7,1.8-2.8c0.4-1.1,0.7-2.3,0.8-3.6c0.1-1.3,0.1-2.5,0.1-3.6
		C122.3,30.8,122.3,29.6,122.1,28.2z"/>
	<path fill="#5B4E60" d="M148.8,21c1.5,0.6,2.9,1.5,4,2.6c1.1,1.1,2,2.3,2.7,3.8c0.6,1.4,1,3,1,4.5c0,1.6-0.3,3.2-1,4.6
		c-0.6,1.4-1.5,2.7-2.7,3.8c-1.1,1.1-2.5,1.9-4,2.5s-3.2,0.9-5,0.9c-1.8,0-3.5-0.3-5-0.9c-1.5-0.6-2.9-1.5-4-2.5
		c-1.1-1.1-2-2.3-2.7-3.8c-0.6-1.4-1-3-1-4.6c0-1.6,0.3-3.1,1-4.5c0.6-1.4,1.5-2.7,2.7-3.8c1.1-1.1,2.5-1.9,4-2.6c1.5-0.6,3.2-1,5-1
		C145.6,20,147.3,20.4,148.8,21z M147,42.1c0.8-0.6,1.3-1.5,1.7-2.5c0.4-1,0.6-2.2,0.7-3.6c0.1-1.4,0.1-2.7,0.1-4.1
		c0-1.4,0-2.7-0.1-4.1c-0.1-1.3-0.3-2.5-0.7-3.6c-0.4-1-0.9-1.9-1.7-2.5c-0.8-0.6-1.8-1-3.2-1c-1.4,0-2.4,0.3-3.2,1
		c-0.8,0.6-1.3,1.5-1.7,2.5c-0.4,1-0.6,2.2-0.7,3.6c-0.1,1.3-0.1,2.7-0.1,4.1c0,1.4,0,2.8,0.1,4.1c0.1,1.4,0.3,2.5,0.7,3.6
		c0.4,1,0.9,1.9,1.7,2.5c0.8,0.6,1.8,1,3.2,1C145.1,43.1,146.2,42.7,147,42.1z"/>
	<path fill="#5B4E60" d="M165.6,20.8v4.4h0.1c0.6-1.3,1.5-2.5,2.5-3.4c1.1-1,2.5-1.4,4.2-1.4c1.5,0,2.6,0.4,3.5,1.2
		c0.9,0.8,1.4,1.9,1.4,3.2c0,1-0.3,1.9-0.8,2.4c-0.5,0.6-1.3,0.9-2.4,0.9c-0.8,0-1.5-0.2-2.2-0.5c-0.7-0.3-1-0.9-1-1.8
		c0-0.1,0-0.3,0.1-0.5c0-0.3,0.1-0.5,0.1-0.8c0.1-0.3,0.1-0.6,0.1-0.8c0-0.2,0.1-0.4,0.1-0.4c0-0.3-0.1-0.5-0.2-0.7
		c-0.1-0.2-0.2-0.3-0.3-0.4c-0.2-0.1-0.4-0.2-0.7-0.2c-0.3,0-0.8,0.2-1.3,0.5c-0.5,0.3-1,0.8-1.5,1.4s-0.8,1.4-1.2,2.3
		c-0.3,0.9-0.5,1.9-0.5,3v13.3h4.1v0.7H156v-0.7h3.4V21.5H156v-0.7H165.6z"/>
</g>
</svg>
