<?xml version="1.0" encoding="utf-8"?>
<!-- Generator: Adobe Illustrator 18.0.0, SVG Export Plug-In . SVG Version: 6.00 Build 0)  -->
<!DOCTYPE svg PUBLIC "-//W3C//DTD SVG 1.1//EN" "http://www.w3.org/Graphics/SVG/1.1/DTD/svg11.dtd">
<svg version="1.1" id="Calque_1" xmlns="http://www.w3.org/2000/svg" xmlns:xlink="http://www.w3.org/1999/xlink" x="0px" y="0px"
	 viewBox="194.6 344.9 3673.5 1776.7" enable-background="new 194.6 344.9 3673.5 1776.7" xml:space="preserve">
<text transform="matrix(1 0 0 1 266.1914 1480.8181)" fill="#FFFFFF" font-family="'Didot-Bold'" font-size="1074.9354" letter-spacing="-81">hacedor</text>
<g>
	<path fill="#FFFFFF" d="M402,1797.5v-139.8h23.6v117.4h63.8v22.4H402z"/>
	<path fill="#FFFFFF" d="M613.4,1657.7v22.2h-74.6v37h67v21h-67v37.4h77v22.2H515.2v-139.8H613.4z"/>
	<path fill="#FFFFFF" d="M705.4,1678.9v-21.2h68v92.2c0,16.3-4.1,28.5-12.4,36.6c-8.3,8.1-18.9,12.2-31.8,12.2
		c-16.3,0-30.1-5.7-41.6-17.2l13.4-18.6c9.1,8.7,17.9,13,26.6,13c6.1,0,11.4-2.1,15.7-6.2c4.3-4.1,6.5-10.3,6.5-18.6v-72.2H705.4z"
		/>
	<path fill="#FFFFFF" d="M909.2,1657.7v22.2h-74.6v37h67v21h-67v37.4h77v22.2H811v-139.8H909.2z"/>
	<path fill="#FFFFFF" d="M973.2,1765.5c6.4,7.5,15.1,11.2,26,11.2c10.9,0,19.6-3.7,26-11.2c6.4-7.5,9.6-17.6,9.6-30.4v-77.4h23.6
		v78.4c0,20.1-5.5,35.6-16.6,46.5c-11.1,10.9-25.3,16.3-42.6,16.3c-17.3,0-31.5-5.4-42.6-16.3c-11.1-10.9-16.6-26.4-16.6-46.5v-78.4
		h23.6v77.4C963.6,1747.9,966.8,1758,973.2,1765.5z"/>
	<path fill="#FFFFFF" d="M1256,1676c13.5,12.2,20.2,29.2,20.2,50.9c0,21.7-6.5,38.9-19.6,51.6c-13.1,12.7-33.1,19-60,19h-46.4
		v-139.8h48C1223.3,1657.7,1242.5,1663.8,1256,1676z M1252.4,1727.5c0-32-18.3-48-55-48h-23.6v95.8h26.2c16.9,0,29.9-4,38.9-12.1
		C1247.9,1755.1,1252.4,1743.2,1252.4,1727.5z"/>
	<path fill="#FFFFFF" d="M1404.8,1657.7v22.2h-74.6v37h67v21h-67v37.4h77v22.2h-100.6v-139.8H1404.8z"/>
	<path fill="#FFFFFF" d="M1492.2,1797.5v-139.8h23.6v117.4h63.8v22.4H1492.2z"/>
	<path fill="#FFFFFF" d="M1625.2,1765.7l-14,31.8H1586l61.6-139.8h25.2l61.6,139.8h-25.2l-14-31.8H1625.2z M1685.6,1743.9
		l-25.4-57.6l-25.4,57.6H1685.6z"/>
	<path fill="#FFFFFF" d="M1872.4,1776.1c8.1,0,15.1-1.4,21-4.1c5.9-2.7,12-7.1,18.4-13.1l15.2,15.6c-14.8,16.4-32.8,24.6-53.9,24.6
		c-21.1,0-38.7-6.8-52.6-20.4c-13.9-13.6-20.9-30.8-20.9-51.6c0-20.8,7.1-38.1,21.3-52c14.2-13.9,32.1-20.8,53.8-20.8
		c21.7,0,39.8,8,54.3,24l-15,16.4c-6.7-6.4-13-10.9-18.9-13.4c-5.9-2.5-12.9-3.8-20.9-3.8c-14.1,0-26,4.6-35.6,13.7
		c-9.6,9.1-14.4,20.8-14.4,35s4.8,26.1,14.3,35.6C1848,1771.3,1859.3,1776.1,1872.4,1776.1z"/>
	<path fill="#FFFFFF" d="M2067.4,1703.1c0,23.1-10.1,37.6-30.2,43.6l36.6,50.8h-30l-33.4-47h-31v47h-23.6v-139.8h52
		c21.3,0,36.6,3.6,45.8,10.8C2062.8,1675.7,2067.4,1687.2,2067.4,1703.1z M2036,1722.9c4.8-4.1,7.2-10.8,7.2-19.9
		c0-9.1-2.5-15.4-7.4-18.8c-4.9-3.4-13.7-5.1-26.4-5.1h-30v50h29.4C2022.1,1729.1,2031.2,1727,2036,1722.9z"/>
	<path fill="#FFFFFF" d="M2199.6,1657.7v22.2H2125v37h67v21h-67v37.4h77v22.2h-100.6v-139.8H2199.6z M2161.2,1646.1h-20.4l21.2-29
		l23.6,9.8L2161.2,1646.1z"/>
	<path fill="#FFFFFF" d="M2252,1765.7l-14,31.8h-25.2l61.6-139.8h25.2l61.6,139.8H2336l-14-31.8H2252z M2312.4,1743.9l-25.4-57.6
		l-25.4,57.6H2312.4z"/>
	<path fill="#FFFFFF" d="M2422.4,1679.3v118.2h-23.6v-118.2h-42.4v-21.6h108.4v21.6H2422.4z"/>
	<path fill="#FFFFFF" d="M2490.4,1657.7h23.6v139.8h-23.6V1657.7z"/>
	<path fill="#FFFFFF" d="M2616.6,1797.5h-26.4l-56.2-139.8h26.4l43,104.4l43-104.4h26.4L2616.6,1797.5z"/>
	<path fill="#FFFFFF" d="M2692.8,1657.7h23.6v139.8h-23.6V1657.7z"/>
	<path fill="#FFFFFF" d="M2808,1679.3v118.2h-23.6v-118.2H2742v-21.6h108.4v21.6H2808z"/>
	<path fill="#FFFFFF" d="M2974.2,1657.7v22.2h-74.6v37h67v21h-67v37.4h77v22.2H2876v-139.8H2974.2z M2935.8,1646.1h-20.4l21.2-29
		l23.6,9.8L2935.8,1646.1z"/>
</g>
</svg>
