<svg xmlns="http://www.w3.org/2000/svg" width="193.5" height="63.834" viewBox="0 -19.167 193.5 63.834" enable-background="new 0 -19.167 193.5 63.834"><g fill="#fff"><path d="M1.272 37.774l.186-.009.006.186-.277.011.098.183h-.093c-.123.006-.188-.056-.192-.179l.272-.192zm.285.177l.009.275-.186.006-.003-.093c.012-.123.072-.188.18-.188zm44.405-44.786l.834-.026c1.712-.058 2.872.429 3.479 1.459.13.197.198.379.204.55l.003.093c.049 1.467-2.919 4.223-8.904 8.271-.124.004-.759.427-1.905 1.269-.123.003-1.488.791-4.094 2.361-.896.479-1.38.804-1.451.976l.092-.003c3.575-.8 5.509-1.203 5.802-1.213l.003.092c-.006-.155 1.625-.363 4.893-.627l.183-.099c.125.058.218.085.28.084l.367-.106c.126.057.22.085.281.083s.092-.033.09-.096l.466.078 1.205-.04c.06-.003.093.027.095.09l.183-.099c2.191-.074 3.786.461 4.781 1.602.257.27.387.481.393.637.053 1.573-2.861 4.113-8.74 7.616-6.217 3.576-14.418 7.896-24.604 12.966-.12.112-.939.572-2.458 1.381l-.187-.086c-.616.515-1.769 1.172-3.457 1.971l-.278.009c.006.217-.326.441-.998.681-.121.111-1.761.972-4.921 2.576-1.619.997-2.896 1.657-3.828 1.983l-.006-.187c-.185.007-.274.101-.269.286l-.093.003c-.062.004-.093-.026-.096-.089l-1.457.792-.187.006-.001-.093c.726-.441 1.088-.7 1.085-.777l-.003-.093-.093.003c-.313.319-.585.482-.817.49l-.187.008-.006-.186c.063-.005.155-.036.276-.104.002.062.034.092.096.089.005-.307.093-.466.262-.474l.189.09c-.006-.172.205-.331.633-.488 1.571-1.038 3.818-2.29 6.736-3.744-.004-.109.36-.307 1.092-.595 1.453-.916 2.366-1.376 2.736-1.39-.004-.09.086-.189.268-.287l.188.086c-.008-.229.66-.623 2.001-1.178.001.062.033.092.096.089-.008-.247.991-.837 3.001-1.77.407-.292 1.198-.689 2.37-1.191 1.212-.782 2.213-1.309 3.007-1.582.241-.196 2.61-1.447 7.107-3.762 2.9-1.581 4.449-2.374 4.65-2.381.002.063.035.092.096.089-.009-.279.535-.636 1.633-1.073 5.158-2.922 8.066-4.657 8.728-5.207 1.258-.736 2.463-1.673 3.616-2.809.704-.657 1.148-1.197 1.335-1.62-.013-.401-1.352-.698-4.016-.886l-.182.099c-.111-.059-.235-.086-.375-.081l-.366.104c-.11-.057-.235-.084-.374-.079l-.182.098c-.111-.058-.235-.085-.374-.08-.139.005-.262.04-.368.105-.125-.058-.219-.085-.28-.084l-.368.104-.188-.086c-.122.065-.214.101-.274.103l-.004-.093-.642.208-.188-.087-.456.108-.003-.091c-.275.132-.582.203-.921.216l-.188-.086c-.196.129-.349.197-.457.2l-.004-.091c-2.658.46-5.051.942-7.184 1.445-.002-.063-.035-.091-.096-.091.004.125-1.681.582-5.054 1.374-1.04.36-1.738.722-2.096 1.091.123.01.187.069.191.178l-.078.466-.092.004-.006-.187-.271.195c-.127-.058-.22-.086-.282-.083l.007.184c.185-.005.285.208.3.641l-.182.099c-.003-.062-.035-.094-.096-.091.002.062-.028.095-.089.095-.002-.059-.034-.089-.096-.088l.002.092.195.272c-.077.001-.196.161-.355.475-.045.001-.131.222-.256.659-.125-.058-.22-.086-.281-.083l.086-.188-.009-.277.186-.007-.1-.183.087-.188-.004-.091-.093.003c.006.137-.08.327-.258.564l.002.092.099.183c-.247.008-.369.073-.365.197l.003.092.183-.098.093-.003c.001.062-.029.093-.09.096l.198.364c-.186.005-.276.072-.272.194l-.377-.171.004.089c.019.125.083.184.191.18-.001-.061.029-.092.091-.095.001.062.033.091.095.091-.002-.063.027-.095.089-.097l.006.186c-.062.001-.24.225-.534.667l-.003-.093.086-.19c-.184.038-.362.262-.533.669l.001.092.093-.004c.024-.248.112-.374.266-.378l.093-.004c-.313.814-.929 1.826-1.846 3.03l-.007-.186-.185.006c.002.063-.026.157-.083.282l.186-.006.006.187c-.307.55-.513.834-.62.853l-.093.003c.234-.378.35-.631.345-.755-.228.132-.462.512-.704 1.138.125-.003.188.024.188.086-.57.945-.896 1.421-.972 1.425l-.186.005.176-.285-.186.007c.009.248-.526.884-1.606 1.906l-.091.005-.009-.279-.093.004-.362.286c-.092.006-.188-.083-.286-.268l2.836-3.896c2.107-3.577 3.158-5.437 3.153-5.575.648-.934.969-1.532.959-1.794l-.092.004-.27.194-.188-.086c.002.062-.36.321-1.088.778l-.093.002-.005-.186-.092.004c-.175.315-.324.475-.447.478l-.467-.078-1.637.981c-.125-.056-.219-.085-.28-.082-.302.242-.45.401-.448.479l-.093.001c-.062.003-.094-.027-.096-.089-1.852.99-2.949 1.49-3.287 1.502-.003-.063-.035-.092-.096-.089.002.091-.087.188-.269.287-.002-.061-.034-.091-.096-.091.009.295-1.361.866-4.115 1.713-.356.014-.57.052-.646.115-.414-.387-.703-.688-.864-.898l-.003-.093c.075-.974 2.804-2.581 8.185-4.817 2.702-1.017 5.33-1.908 7.886-2.673 1.911-3.834 3.27-6.662 4.075-8.48l.186-.007c.185-.006.281.115.29.361-.059.126-.086.219-.083.281l.093-.003.182-.1.1.183.014.463-.092.003c-.126-.058-.219-.085-.281-.083.003.061-.027.093-.089.096-.001-.062-.035-.093-.096-.089-.307.968-.852 2.254-1.633 3.855.066.122.1.214.102.275l-.188-.088-.086.189.1.181c-.187.007-.364.229-.536.667.004.093.131.212.384.359-.003-.063.027-.095.088-.096l.006.186c-.232.425-.348.676-.346.753l-.278.01c.059-.126.085-.221.084-.281l-.01-.278c.091-.003.182-.1.269-.287l-.093.002c.003.125-.056.187-.179.191l-.003-.092c.058-.126.085-.219.083-.281-.062.001-.238.255-.532.76l.1.182.006.184-.188-.086-.349.661.186-.005c.338-.011 2.102-.905 5.288-2.681.001.062.033.092.096.089-.007-.2 1.142-.949 3.448-2.247 2.137-1.261 4.708-2.955 7.712-5.079 2.887-2.429 4.317-4.023 4.292-4.78-.01-.292-.759-.484-2.246-.574l-.368.106-.189-.084-1.29.228-.004-.093c-1.127.037-3.947.75-8.459 2.138-2.592 1.075-3.965 1.615-4.119 1.62l-.543.389c-.002-.061-.034-.09-.096-.09l.006.186-.093.003c-.062.002-.093-.028-.096-.089-.792.351-1.186.58-1.182.688l-.188-.085-.093.002c-2.311 1.19-3.737 1.979-4.279 2.369-3.629 1.959-7.315 4.464-11.062 7.509-.193.253-.465.449-.815.583.003.093-.985 1.084-2.962 2.974-1.082 1.349-1.666 2.39-1.75 3.118.062-.002.094.028.096.089-.185.007-.272.166-.263.474l-.091.004c-.51.016-.798-.283-.864-.9-.07-2.067 2.942-5.351 9.037-9.852l2.811-1.855c.887-.771 1.946-1.456 3.177-2.054 1.736-1.248 4.897-2.867 9.481-4.859 5.779-2.358 10.22-3.589 13.323-3.692zm-22.34 25.225l-.26.565c.123-.038.24-.194.355-.476l-.002-.094-.093.005zm.349-.661c.004.139-.022.265-.081.374l.092-.003.176-.285-.003-.094-.184.008zm.268-.287l.185-.005.077-.468c-.108.004-.195.162-.262.473zm1.49-2.553l.187-.006.009.276-.185.007-.011-.277zm.416-1.498c.001.061-.026.155-.083.28l.093-.004c.122-.002.183-.066.178-.19l-.003-.092-.185.006zm.351-.568c.003.062-.026.155-.083.282.123-.005.188.053.191.179l.092-.004-.003-.092c-.064-.106-.101-.227-.104-.365h-.093zm.259-.566l.004.094c.122-.004.183-.068.178-.193l-.003-.091c-.122.019-.182.082-.179.19zm3.307-6.507l.093-.004c.125.058.22.085.281.083l.006.185c.003.093-.086.189-.268.288l-.093.003-.003-.093c-.002-.061.027-.094.089-.097l-.099-.181-.006-.184zm.396-2.053c.001.062-.025.155-.083.281l.093-.003c.123-.005.183-.068.178-.192l-.188-.086zm.172-.377c.002.062-.025.155-.083.281l.187-.006-.01-.278-.094.003zM45.286 18.085c.17-.005.488.262.955.801.021.635-.996 2.584-3.05 5.852-.248.008-.579.268-.994.775-.435-.048-.655-.133-.659-.258l-.007-.186 2.455-4.253c.574-1.302.861-2.024.855-2.162-.011-.369.136-.559.445-.569zm2.402-9.307l.532-.017c.521.291.781.46.783.506.017.525-.417 1.173-1.303 1.945l-.368.081c-.201.007-.486-.208-.857-.643l-.005-.163c.293-.968.655-1.458 1.088-1.473-.007-.154.038-.233.13-.236zM52.314 18.199l.003.091.182-.098c.061-.003.093.027.095.089.063-.001.093-.035.091-.095 1.244.221 1.876.663 1.898 1.328l.004.092c.029.896-.625 1.659-1.964 2.289-.062.005-.154.035-.275.105-.809-.175-1.219-.408-1.228-.702l-.009-.279c-.003-.091.394-.23 1.191-.409.537-.575.799-1.046.788-1.417l-.371.012c-.803.027-1.988.621-3.556 1.788l.011.37c.273.299 1.158.887 2.655 1.765.582.755.877 1.238.882 1.454l.022.649c.025.742-.844 1.542-2.609 2.405-1.293.597-4.022 1.277-8.185 2.032.003.096-.271.196-.824.31l-.002-.097-2.939.844-.46.107-.099-.183c-.021-.635.706-1.089 2.18-1.372.288-.21 1.116-.422 2.483-.641.001.064.034.095.094.092-.003-.108.887-.323 2.668-.646 4.17-1.003 6.233-2.155 6.19-3.453l-.006-.184c-.171-.49-.807-1.024-1.908-1.605-.917-.617-1.493-1.186-1.726-1.705-.022-.665 1.274-1.603 3.894-2.816.216-.008.492-.048.83-.12zM61.812 17.998c.499.154.816.358.949.617l.017.555-.175.283-.652-.069c-1.342.044-2.736.895-4.179 2.548-.16.332-.271.675-.337 1.033.061-.002.254.207.578.628l.181-.099c.108-.002.358.052.748.161l.182-.098c.062-.002.094.028.095.089l4.604-.988c.002.063.033.094.095.089.033.99-1.209 1.709-3.729 2.165l-.003-.092-.182.098-.647.023c-.063.003-.093-.029-.096-.091l-.182.101c-1.543.052-2.59-.72-3.137-2.308l-.032-.928c.241-.656.867-1.387 1.876-2.194 1.092-.962 2.436-1.472 4.026-1.523zM71.333 17.773c.061-.003.154.026.279.082l.368-.105c.601-.019 1.042.183 1.316.605l.008.186c.007.232-.666.439-2.02.623-1.735.786-3.004 1.63-3.81 2.539-.472.68-.705 1.151-.695 1.415l.092-.003c.758-.024 2.275-.849 4.555-2.472.965-.695 1.754-1.155 2.365-1.377.81.205 1.224.593 1.243 1.166l.007.184c-1.071 1.719-1.648 2.943-1.732 3.673l-.092.006c-.387.013-.768-.315-1.146-.982-.001-.063-.036-.156-.101-.273.018-.391.129-.701.338-.939l-.09-.001c-2.416 1.688-4.027 2.544-4.83 2.572-.727.023-1.323-.326-1.795-1.052-.197-.303-.302-.703-.318-1.196-.029-.833.924-1.945 2.856-3.341.512-.386 1.579-.824 3.202-1.31zM80.291 15.365c.559.012.846.28.862.806-1.368 1.605-2.355 3.493-2.963 5.662.003.061.035.091.095.09l-.076.467.013.367.108.462c1.276-.629 2.574-1.63 3.886-3.004.526-.403 1.63-1.678 3.306-3.818.817-.028 1.289.205 1.413.694l.003.093c.004.154-.516 1.191-1.566 3.109-1.506 3.946-3.694 7.823-6.564 11.626-2.872 3.389-5.142 5.752-6.812 7.089-3.382 2.862-6.448 4.541-9.198 5.036l-.003-.092-.182.096-.648.023c-1.98-.059-2.98-.396-3-1.013-.131-.195-.199-.349-.201-.455-.063-1.87 1.397-4.421 4.38-7.657l2.168-1.742 1.639-.89c.004.123.129.181.377.173.006.185-.083.281-.269.288l.099.18c.003.079-.207.271-.63.578.01.246-.679.92-2.064 2.018-2.135 2.281-3.288 3.834-3.462 4.658-.385.016-.664.919-.837 2.717.364.236.584.352.662.35.121-.065.212-.101.274-.102.309-.011.465.046.469.17 2.292-.324 4.758-1.488 7.394-3.493 1.762-1.433 3.173-2.654 4.238-3.666 3.73-3.924 6.395-7.475 7.99-10.649.676-1.027 1.341-2.41 1.993-4.148-1.853 1.917-3.365 2.894-4.538 2.933l-.186.008c-1.119-.24-1.696-.777-1.724-1.614l-.008-.276c-.062-1.852.883-4.079 2.837-6.68.272-.101.517-.233.725-.394zM129.653-17.09c.929 0 1.394.047 1.396.139l.181-.099.094-.002c1.56.442 2.342.756 2.349.941.823.543 1.25 1.334 1.285 2.367-.23 1.894-1.186 3.841-2.864 5.846-.253.734-2.522 3.222-6.799 7.459-.919.68-1.883 1.485-2.889 2.415l-5.048 4.248-9.136 6.887c-2.61 4.261-5.168 8.18-7.677 11.756-.253.255-.558.389-.912.4-.201-.443-.305-.717-.306-.823 1.103-1.661 1.784-2.549 2.044-2.666-.011-.308 1.044-2.044 3.165-5.206.409-.708.613-1.118.607-1.226-1.66 1.168-2.506 1.755-2.538 1.756l-.278.007.086-.188-.092.003-.273.195-.091.001-.004-.09c.085-.25.236-.378.451-.389l-.098-.18c.108-.006.346-.292.714-.86 2.129-1.522 3.544-2.651 4.245-3.386.494-.958 1.166-2.124 2.017-3.498 1.861-3.462 2.883-5.257 3.064-5.388l.094-.003-.099-.182c1.098-1.875 2.172-3.889 3.229-6.043.889-1.589 1.698-3.286 2.427-5.087.965-2.566 1.725-3.859 2.28-3.878l.273-.193c.126.15.194.271.196.363l.462-.106.001.092c-.682 1.321-1.486 3.141-2.414 5.459-1.812 3.615-2.974 5.849-3.486 6.699l-.092.003.099.183-5.426 9.732.094-.003c.313-.351.826-.738 1.538-1.165.207-.253.66-.579 1.358-.973-.003-.094.598-.606 1.804-1.543l.188.086c-.006-.17.685-.78 2.072-1.831 1.2-1.09 1.954-1.641 2.263-1.653l-.099-.181c1.394-1.298 2.326-2.071 2.798-2.319 5.717-5.105 9.147-8.866 10.286-11.286.999-1.531 1.483-2.784 1.452-3.757-.144-1.045-.686-1.553-1.627-1.521-.001-.107-.686-.177-2.047-.21-.121.065-.213.1-.273.103l-.004-.093-.183.098-.278.01c-.063.001-.094-.028-.096-.089l-.182.098c-.061.001-.095-.027-.096-.089-4.073.676-7.435 1.808-10.084 3.396-.996.311-2.959 1.645-5.896 3.998-2.027 1.783-3.516 3.472-4.467 5.064-2.021 2.911-3.681 6.861-4.983 11.849.008.232-.24 1.137-.744 2.714l-.186.007-.024-.74c-.216.005-.378-.235-.486-.727l-.093.003-.003-.093c.01-.123.07-.188.177-.19.001.061.036.09.097.088-.074-.337-.112-.583-.117-.739.271-1.121.469-1.685.593-1.688.001.062.035.091.095.089l-.106-.459c1.019-3.729 2.213-6.858 3.581-9.392 2.184-3.55 4.961-6.456 8.333-8.717 1.64-1.275 4.1-2.593 7.377-3.955l2.387-.728.555-.019c.968-.526 2.566-.827 4.789-.901zM123.193-7.832l-.042.186-.109.189.076.183c-.126.359-.396.886-.804 1.581l.075.183-.021.093c-.313.274-.5.497-.557.667.05.138.072.238.056.3-.138.021-.951 1.585-2.44 4.695-1.665 2.898-3.677 7.168-6.041 12.812-.123-.011-.568.954-1.34 2.897-.109-.013-.408.508-.897 1.558-1.67 3.271-2.85 5.225-3.536 5.866-.026.188-.373.229-1.042.128-.401-.049-.656-.241-.76-.578l-.004-.092c1.042-.793 2.104-2.326 3.187-4.604.236-.334 1.081-1.891 2.534-4.674-.062-.013-.088-.051-.073-.114.137-.052 1.204-2.303 3.205-6.76 2.062-4.412 4.306-8.52 6.729-12.325-.062-.013-.094-.05-.095-.112.622-.731 1.063-1.419 1.321-2.061l.187.04-.038.256.094.021c.068-.234.18-.347.335-.335zM118.152 16.212c.062-.002.157.025.281.082l.368-.105c.602-.019 1.041.183 1.318.606l.007.186c.007.231-.666.438-2.02.623-1.736.786-3.005 1.632-3.81 2.537-.472.683-.703 1.154-.694 1.416l.093-.001c.755-.027 2.273-.849 4.555-2.47.964-.698 1.752-1.157 2.362-1.378.811.204 1.227.594 1.244 1.164l.007.186c-1.07 1.719-1.648 2.947-1.733 3.673l-.091.005c-.387.012-.768-.316-1.146-.983-.001-.061-.036-.151-.102-.275.017-.386.131-.699.341-.937l-.093.001c-2.416 1.688-4.025 2.545-4.828 2.57-.727.026-1.325-.325-1.798-1.052-.196-.302-.302-.7-.318-1.195-.027-.833.925-1.947 2.855-3.339.514-.39 1.581-.826 3.202-1.314zM127.188 15.353c.17-.004.488.262.952.803.023.633-.995 2.584-3.048 5.852-.249.007-.578.268-.994.775-.436-.047-.655-.135-.658-.257l-.007-.187 2.455-4.253c.574-1.303.862-2.022.856-2.162-.013-.369.135-.559.444-.571zm2.402-9.306l.533-.017c.52.292.78.46.781.506.018.525-.416 1.173-1.303 1.945l-.367.083c-.202.006-.488-.209-.857-.646l-.004-.162c.292-.968.655-1.459 1.087-1.473-.007-.153.038-.233.13-.236zM132.68 14.614c.684.072 1.029.211 1.036.429-.157.902-.607 2.217-1.352 3.94l.092-.003c1.187-1.03 2.313-1.563 3.378-1.595-.003-.065.029-.095.089-.097l.188.086.368-.105c1.049-.036 1.685.531 1.909 1.698l.004.093c-.313 2.174-.741 3.27-1.282 3.289l-.092.002c-.383-.342-.575-.553-.578-.63l-.015-.463c.269-1.183.397-2.022.38-2.516l-.003-.092c-.004-.124-.067-.183-.193-.18-1.356.046-3.11 1.249-5.256 3.608-.154.003-.43.074-.827.214-.616-.354-.933-.588-.951-.712l-.006-.187c-.009-.151.574-1.316 1.738-3.487.608-2.155 1.066-3.25 1.373-3.292z"/></g></svg>