<svg xmlns="http://www.w3.org/2000/svg" width="334.908" height="75.079" viewBox="0 0 334.908 75.079"><g fill="#fff"><path d="M184.984 35.179c.468 0 .871-.077 1.209-.233.338-.158.69-.409 1.059-.754l.875.896c-.852.944-1.887 1.416-3.102 1.416-1.218 0-2.225-.392-3.026-1.173-.802-.784-1.203-1.773-1.203-2.97 0-1.194.409-2.193 1.226-2.991.816-.8 1.849-1.198 3.096-1.198 1.246 0 2.287.463 3.123 1.382l-.862.945c-.384-.367-.746-.628-1.087-.771-.342-.146-.742-.219-1.203-.219-.813 0-1.496.267-2.047.791-.553.525-.828 1.195-.828 2.013 0 .818.273 1.5.822 2.05.548.542 1.197.816 1.948.816zM196.572 35.303c-.814.793-1.819 1.188-3.016 1.188-1.195 0-2.201-.395-3.016-1.188-.813-.797-1.219-1.786-1.219-2.972 0-1.185.406-2.175 1.219-2.969.814-.793 1.819-1.192 3.016-1.192s2.201.4 3.016 1.192c.812.794 1.219 1.784 1.219 2.969 0 1.186-.407 2.177-1.219 2.972zm-.996-5.034c-.548-.569-1.221-.851-2.02-.851-.797 0-1.471.28-2.019.851-.55.565-.822 1.254-.822 2.064s.272 1.498.822 2.066c.548.565 1.222.852 2.019.852.799 0 1.472-.284 2.02-.852.549-.566.823-1.255.823-2.066 0-.81-.274-1.499-.823-2.064zM205.766 28.369h1.356v8.043h-1.472l-4.557-5.867v5.867h-1.357v-8.043h1.357l4.672 6.007v-6.007zM213.256 35.179c.467 0 .87-.077 1.209-.233.338-.158.688-.409 1.055-.754l.877.896c-.852.944-1.885 1.416-3.102 1.416s-2.225-.392-3.026-1.173c-.802-.784-1.203-1.773-1.203-2.97 0-1.194.409-2.193 1.226-2.991.816-.8 1.848-1.198 3.096-1.198 1.245 0 2.287.463 3.123 1.382l-.864.945c-.384-.367-.747-.628-1.087-.771-.342-.146-.744-.219-1.203-.219-.814 0-1.496.267-2.048.791-.551.525-.827 1.195-.827 2.013 0 .818.274 1.5.822 2.05.55.542 1.202.816 1.952.816zM223.934 28.369v1.277h-4.293v2.128h3.854v1.209h-3.854v2.152h4.431v1.276h-5.788v-8.043h5.65zM232.068 28.369h1.357v8.043h-1.472l-4.557-5.867v5.867h-1.358v-8.043h1.358l4.671 6.007v-6.007zM238.926 29.612v6.799h-1.359v-6.799h-2.438v-1.243h6.237v1.243h-2.44zM249.488 30.98c0 1.328-.578 2.166-1.737 2.507l2.104 2.924h-1.726l-1.923-2.704h-1.783v2.704h-1.356v-8.044h2.991c1.229 0 2.105.209 2.635.622.532.414.795 1.079.795 1.991zm-1.806 1.14c.276-.237.414-.619.414-1.144s-.141-.887-.426-1.082c-.283-.196-.791-.294-1.52-.294h-1.727v2.877h1.692c.769-.001 1.291-.119 1.567-.357zM257.324 28.369v1.277h-4.292v2.128h3.854v1.209h-3.854v2.152h4.431v1.276h-5.787v-8.043h5.648zm-2.209-.669h-1.173l1.218-1.669 1.358.565-1.403 1.104zM268.896 29.42c.777.703 1.165 1.68 1.165 2.929 0 1.25-.377 2.24-1.13 2.97-.752.728-1.901 1.094-3.45 1.094h-2.671v-8.044h2.762c1.444 0 2.553.351 3.324 1.051zm-.205 2.963c0-1.839-1.052-2.76-3.163-2.76h-1.357v5.513h1.508c.974 0 1.72-.232 2.237-.7.518-.461.775-1.147.775-2.053zM271.764 29.669c-.206-.121-.312-.307-.312-.548 0-.242.069-.429.208-.563.139-.132.313-.201.516-.201.21 0 .384.066.525.194.14.132.213.304.213.514 0 .209-.07.415-.207.613l-.68.979h-.703l.44-.988zM275.206 34.582l-.805 1.829h-1.448l3.543-8.044h1.449l3.545 8.044h-1.452l-.804-1.829h-4.028zm3.476-1.254l-1.465-3.314-1.46 3.314h2.925zM289.254 30.98c0 1.328-.58 2.166-1.738 2.507l2.105 2.924h-1.726l-1.923-2.704h-1.783v2.704h-1.355v-8.044h2.993c1.226 0 2.104.209 2.634.622.527.414.793 1.079.793 1.991zm-1.806 1.14c.274-.237.413-.619.413-1.144s-.141-.887-.426-1.082c-.283-.196-.792-.294-1.518-.294h-1.727v2.877h1.693c.766-.001 1.288-.119 1.565-.357zM294.361 29.612v6.799h-1.356v-6.799h-2.438v-1.243h6.235v1.243h-2.441zM298.505 28.369h1.356v8.043h-1.356v-8.043zM305.996 35.179c.467 0 .869-.077 1.209-.233.337-.158.689-.409 1.055-.754l.876.896c-.851.944-1.884 1.416-3.099 1.416-1.217 0-2.226-.392-3.027-1.173-.804-.784-1.203-1.773-1.203-2.97 0-1.194.41-2.193 1.227-2.991.814-.8 1.848-1.198 3.095-1.198 1.245 0 2.289.463 3.125 1.382l-.862.945c-.385-.367-.748-.628-1.088-.771-.344-.146-.746-.219-1.205-.219-.811 0-1.492.267-2.047.791-.552.525-.828 1.195-.828 2.013 0 .818.272 1.5.824 2.05.546.542 1.196.816 1.948.816zM311.023 36.411v-8.044h1.359v6.756h3.672v1.288h-5.031zM323.416 28.369v1.277h-4.294v2.128h3.856v1.209h-3.856v2.152h4.433v1.276h-5.787v-8.043h5.648zM327.957 29.427c-.395 0-.721.077-.975.242-.254.159-.381.405-.381.729 0 .325.127.575.381.749.254.172.795.359 1.617.558.826.198 1.447.48 1.865.84.418.362.627.896.627 1.594 0 .705-.264 1.271-.793 1.709-.531.438-1.225.658-2.086.658-1.254 0-2.37-.434-3.344-1.302l.852-1.024c.811.705 1.656 1.059 2.529 1.059.438 0 .785-.092 1.043-.281.256-.187.388-.438.388-.748 0-.312-.122-.554-.363-.725-.241-.173-.659-.331-1.25-.472-.591-.142-1.04-.271-1.347-.392-.306-.12-.579-.272-.816-.467-.473-.36-.709-.908-.709-1.655 0-.744.267-1.318.808-1.722.542-.401 1.21-.605 2.011-.605.512 0 1.024.087 1.529.255.507.17.944.409 1.313.713l-.727 1.026c-.238-.217-.56-.393-.967-.529-.415-.14-.811-.21-1.205-.21zM183.704 43.189c-.395 0-.717.077-.975.242-.25.159-.377.405-.377.729 0 .325.127.575.377.749.258.172.797.359 1.619.558.826.198 1.444.48 1.865.84.419.362.626.896.626 1.594 0 .705-.265 1.271-.794 1.709-.528.438-1.222.658-2.083.658-1.257 0-2.373-.434-3.346-1.302l.852-1.024c.812.705 1.655 1.059 2.529 1.059.438 0 .784-.092 1.042-.281.26-.187.387-.438.387-.748 0-.312-.122-.554-.363-.725-.239-.173-.657-.331-1.247-.472-.592-.142-1.041-.271-1.349-.392-.304-.12-.579-.272-.813-.467-.477-.36-.712-.908-.712-1.655 0-.744.27-1.318.808-1.722.541-.401 1.21-.605 2.01-.605.512 0 1.024.087 1.53.255.508.17.945.409 1.313.713l-.727 1.026c-.235-.217-.56-.393-.963-.529-.414-.141-.812-.21-1.209-.21zM190.56 48.332c.365.431.864.644 1.493.644.63 0 1.127-.213 1.496-.644.366-.428.552-1.012.552-1.749v-4.453h1.358v4.51c0 1.158-.317 2.051-.956 2.676-.634.624-1.453.937-2.45.937s-1.814-.313-2.453-.937c-.636-.625-.952-1.518-.952-2.676v-4.51h1.355v4.452c0 .738.185 1.322.557 1.75zM204.235 44.742c0 1.328-.574 2.166-1.734 2.507l2.107 2.924h-1.728l-1.923-2.704h-1.781v2.704h-1.359v-8.044h2.991c1.23 0 2.108.209 2.638.622.528.414.789 1.079.789 1.991zm-1.803 1.139c.276-.237.413-.619.413-1.144s-.142-.887-.427-1.082c-.281-.196-.788-.294-1.519-.294h-1.727v2.877h1.689c.772 0 1.291-.118 1.571-.357zM209.808 50.172v-8.044h1.354v6.756h3.672v1.288h-5.026zM222.199 42.13v1.277h-4.292v2.128h3.854v1.209h-3.854v2.152h4.429v1.276h-5.786v-8.042h5.649zM227.953 43.351v-1.221h3.911v5.306c0 .936-.237 1.636-.712 2.105-.475.468-1.086.702-1.828.702-.938 0-1.732-.331-2.393-.991l.769-1.068c.521.5 1.032.748 1.531.748.354 0 .654-.121.902-.358.25-.236.375-.593.375-1.069v-4.153h-2.555zM239.906 42.13v1.277h-4.293v2.128h3.855v1.209h-3.855v2.152h4.433v1.276h-5.789v-8.042h5.649zM243.819 48.332c.366.431.865.644 1.495.644.627 0 1.126-.213 1.496-.644.365-.428.552-1.012.552-1.749v-4.453h1.357v4.51c0 1.158-.318 2.051-.956 2.676-.636.624-1.452.937-2.449.937-.998 0-1.815-.313-2.452-.937-.639-.625-.956-1.518-.956-2.676v-4.51h1.357v4.452c.001.738.188 1.322.556 1.75zM258.132 48.941c.469 0 .871-.077 1.209-.233.337-.158.688-.409 1.058-.754l.876.896c-.853.944-1.886 1.416-3.103 1.416s-2.225-.392-3.026-1.173c-.805-.784-1.201-1.773-1.201-2.97 0-1.194.407-2.193 1.226-2.991.818-.8 1.849-1.198 3.095-1.198 1.244 0 2.287.463 3.123 1.382l-.859.945c-.386-.367-.748-.628-1.09-.771-.343-.146-.742-.219-1.2-.219-.814 0-1.496.267-2.051.791-.552.525-.827 1.195-.827 2.013 0 .818.271 1.5.82 2.05.548.542 1.199.816 1.95.816zM269.581 44.742c0 1.328-.579 2.166-1.738 2.507l2.106 2.924h-1.728l-1.92-2.704h-1.784v2.704h-1.357v-8.044h2.994c1.226 0 2.104.209 2.634.622.528.414.793 1.079.793 1.991zm-1.805 1.139c.273-.237.413-.619.413-1.144s-.14-.887-.424-1.082c-.284-.196-.793-.294-1.52-.294h-1.727v2.877h1.692c.766 0 1.286-.118 1.566-.357zM277.418 42.13v1.277h-4.294v2.128h3.856v1.209h-3.856v2.152h4.434v1.276h-5.789v-8.042h5.649zm-2.21-.669h-1.174l1.22-1.669 1.358.565-1.404 1.104zM280.659 48.343l-.803 1.829h-1.45l3.547-8.044h1.448l3.54 8.044h-1.446l-.807-1.829h-4.029zm3.477-1.254l-1.462-3.314-1.46 3.314h2.922zM290.695 43.374v6.799h-1.356v-6.799h-2.441v-1.244h6.238v1.243h-2.441zM294.838 42.13h1.356v8.043h-1.356v-8.043zM300.015 43.398v2.208h3.564v1.254h-3.564v3.313h-1.358v-8.043h5.363l-.012 1.268h-3.993z"/></g><g fill="#fff"><path d="M.326 66.833l.222-.007.008.222-.332.012.118.218-.112.002c-.147.007-.225-.066-.23-.213l.326-.234zm.341.213l.011.331-.222.007-.004-.11c.014-.149.087-.226.215-.228zm53.299-53.753l1.001-.033c2.056-.069 3.448.515 4.176 1.751.156.236.238.456.245.66l.004.112c.058 1.76-3.503 5.068-10.687 9.928-.148.004-.912.513-2.287 1.522-.147.005-1.786.95-4.913 2.835-1.076.575-1.657.964-1.742 1.171l.11-.004c4.291-.959 6.612-1.444 6.963-1.456l.004.111c-.006-.185 1.951-.436 5.873-.752l.219-.119c.151.069.262.102.337.101.037-.001.184-.044.44-.126.151.068.264.102.337.1.074-.003.111-.04.108-.114l.56.092 1.446-.048c.073-.003.112.033.114.108l.22-.119c2.63-.088 4.544.554 5.739 1.923.307.324.465.579.471.765.063 1.889-3.435 4.937-10.491 9.141-7.462 4.294-17.306 9.479-29.531 15.563-.145.134-1.128.688-2.951 1.659l-.225-.104c-.74.617-2.123 1.407-4.15 2.365l-.334.012c.008.259-.391.53-1.198.816-.144.134-2.113 1.167-5.906 3.092-1.944 1.196-3.477 1.988-4.595 2.381l-.007-.226c-.222.009-.329.122-.322.345l-.111.002c-.074.005-.112-.031-.115-.106l-1.748.948-.224.007-.002-.109c.872-.531 1.307-.842 1.303-.936l-.004-.11-.11.004c-.377.384-.704.579-.982.588l-.223.009-.008-.222c.075-.005.186-.043.332-.125.001.075.041.111.114.108.007-.369.112-.561.315-.567l.227.104c-.008-.204.246-.396.759-.583 1.887-1.248 4.583-2.749 8.086-4.496-.005-.132.432-.368 1.31-.713 1.744-1.099 2.839-1.652 3.284-1.668-.004-.109.104-.228.322-.345l.226.104c-.009-.276.791-.749 2.401-1.414.002.073.041.109.115.107-.009-.298 1.19-1.006 3.603-2.125.489-.35 1.438-.826 2.845-1.43 1.453-.939 2.655-1.57 3.609-1.899.29-.234 3.133-1.736 8.531-4.515 3.48-1.897 5.34-2.849 5.581-2.857.002.075.042.108.115.106-.011-.334.643-.762 1.96-1.288 6.19-3.508 9.682-5.591 10.476-6.249 1.51-.885 2.957-2.009 4.34-3.372.845-.789 1.379-1.437 1.604-1.946-.016-.481-1.624-.836-4.82-1.063l-.219.118c-.133-.07-.283-.103-.449-.096l-.44.125c-.132-.069-.282-.102-.449-.095l-.218.117c-.132-.069-.282-.102-.448-.095-.167.005-.315.047-.441.125-.15-.069-.264-.102-.336-.101l-.442.125-.226-.103c-.146.078-.257.12-.33.122l-.004-.112-.771.25-.226-.104-.551.129-.004-.11c-.33.16-.697.245-1.105.26l-.226-.104c-.236.156-.419.236-.549.24l-.004-.11c-3.19.552-6.064 1.13-8.623 1.735-.002-.075-.041-.111-.115-.109.005.149-2.018.699-6.065 1.649-1.249.432-2.086.867-2.517 1.309.148.014.225.085.229.216l-.092.558-.11.004-.008-.223-.326.233c-.152-.068-.264-.103-.337-.099l.007.222c.222-.007.342.248.36.768l-.218.118c-.003-.074-.042-.11-.116-.107.002.074-.033.112-.108.115-.001-.073-.041-.109-.114-.107l.002.111.234.326c-.093.002-.235.193-.426.57-.055.002-.158.266-.308.79-.15-.069-.263-.104-.336-.1l.104-.227-.011-.333.223-.009-.119-.218.104-.228-.004-.109-.112.004c.006.165-.096.393-.31.677l.003.111.118.22c-.296.01-.442.088-.438.236l.004.111.219-.118.112-.004c.002.073-.035.112-.108.115l.237.438c-.222.007-.332.085-.326.232l-.453-.206.005.109c.023.148.099.22.23.215-.003-.072.033-.112.107-.114.002.074.04.109.115.108-.003-.075.033-.113.107-.114l.008.222c-.075.002-.288.269-.642.8l-.004-.111.104-.227c-.221.045-.435.313-.641.802l.002.11.112-.004c.027-.299.133-.449.319-.456l.111-.004c-.376.978-1.114 2.19-2.216 3.636l-.008-.223-.222.007c.002.075-.032.188-.101.339l.223-.007.007.223c-.368.66-.616 1.003-.745 1.025l-.111.005c.281-.456.419-.759.415-.906-.273.157-.554.613-.845 1.364.149-.004.225.029.226.104-.685 1.135-1.075 1.704-1.167 1.709l-.223.007.211-.343-.223.009c.01.298-.632 1.061-1.927 2.288l-.11.005-.011-.334-.112.005-.434.347c-.11.005-.226-.102-.344-.322l3.405-4.675c2.529-4.295 3.79-6.526 3.784-6.693.778-1.12 1.164-1.837 1.152-2.152l-.11.004-.326.232-.226-.104c.002.074-.432.386-1.305.933l-.112.004-.007-.222-.111.003c-.209.378-.389.571-.536.575l-.56-.093-1.965 1.178c-.15-.068-.264-.103-.336-.099-.361.289-.541.48-.537.574l-.112.003c-.074.002-.112-.033-.115-.107-2.224 1.188-3.54 1.788-3.946 1.802-.003-.075-.042-.11-.115-.107.003.11-.104.226-.322.344-.003-.073-.042-.109-.116-.108.012.354-1.634 1.038-4.939 2.058-.427.015-.685.061-.775.138-.498-.466-.844-.825-1.037-1.078l-.004-.111c.09-1.171 3.365-3.099 9.824-5.782 3.243-1.221 6.397-2.291 9.464-3.208 2.294-4.603 3.925-7.996 4.892-10.18l.222-.008c.223-.008.338.137.349.433-.07.152-.104.264-.1.338l.111-.004.218-.119.119.219.018.556-.111.004c-.151-.07-.263-.102-.337-.1.003.074-.034.112-.108.115-.001-.074-.042-.11-.114-.107-.37 1.162-1.023 2.706-1.961 4.627.079.147.12.257.123.331l-.226-.105-.104.228.12.218c-.223.008-.437.274-.643.801.004.111.158.254.46.43-.002-.075.033-.113.107-.116l.007.223c-.279.511-.418.812-.415.905l-.333.011c.069-.15.102-.264.101-.336l-.011-.335c.11-.003.218-.119.323-.343l-.112.003c.004.149-.067.225-.215.23l-.004-.111c.069-.15.103-.263.1-.336-.074.001-.286.306-.638.911l.12.218.007.223-.226-.104-.419.793.224-.007c.406-.014 2.521-1.086 6.347-3.218.002.074.04.11.114.107-.008-.24 1.371-1.139 4.14-2.697 2.564-1.514 5.65-3.546 9.256-6.097 3.464-2.916 5.182-4.829 5.151-5.736-.012-.352-.911-.582-2.695-.689-.257.084-.403.125-.44.127l-.227-.103-1.548.272-.004-.11c-1.354.044-4.738.9-10.154 2.565-3.111 1.291-4.758 1.939-4.943 1.944l-.651.467c-.003-.073-.042-.109-.116-.107l.008.223-.112.003c-.074.002-.112-.034-.115-.107-.95.421-1.422.697-1.418.826l-.226-.104-.112.003c-2.772 1.429-4.484 2.376-5.136 2.843-4.356 2.353-8.78 5.358-13.277 9.013-.231.304-.558.539-.979.7.004.111-1.182 1.301-3.555 3.569-1.299 1.62-2 2.868-2.101 3.743.075-.003.113.033.116.107-.222.007-.328.197-.316.566l-.11.005c-.612.02-.958-.339-1.038-1.08-.083-2.481 3.532-6.423 10.848-11.824l3.374-2.227c1.064-.925 2.335-1.747 3.813-2.464 2.083-1.498 5.877-3.442 11.38-5.833 6.937-2.828 12.267-4.305 15.992-4.429zm-26.814 30.277l-.312.678c.146-.043.288-.232.426-.571l-.003-.111-.111.004zm.418-.795c.005.168-.026.317-.096.449l.11-.003.212-.342-.004-.111-.222.007zm.323-.344l.222-.007.093-.56c-.13.005-.235.194-.315.567zm1.789-3.064l.223-.007.011.333-.222.007-.012-.333zm.498-1.798c.001.074-.032.187-.101.337l.112-.004c.147-.004.22-.081.214-.229l-.004-.11-.221.006zm.421-.682c.003.074-.031.187-.099.338.147-.006.225.066.229.214l.111-.004-.004-.111c-.077-.127-.121-.274-.125-.44l-.112.003zm.312-.678l.004.112c.148-.006.22-.082.214-.23l-.004-.111c-.148.023-.218.1-.214.229zm3.968-7.811l.111-.004c.15.069.263.103.337.1l.008.223c.004.112-.104.226-.322.345l-.112.004-.003-.112c-.003-.073.033-.113.107-.115l-.119-.218-.007-.223zm.475-2.464c.002.074-.031.186-.101.337l.112-.004c.147-.005.219-.082.214-.23l-.225-.103zm.207-.452c.002.074-.03.186-.1.336l.224-.006-.012-.334-.112.004zM53.154 43.204c.204-.008.585.313 1.146.962.025.761-1.195 3.101-3.661 7.022-.297.01-.695.32-1.193.931-.522-.057-.786-.159-.79-.309l-.008-.223 2.946-5.104c.689-1.563 1.033-2.429 1.027-2.595-.015-.444.162-.672.533-.684zm2.883-11.171l.639-.021c.625.35.938.553.94.609.02.63-.5 1.408-1.564 2.333l-.442.098c-.24.009-.582-.249-1.027-.772l-.007-.195c.352-1.161.787-1.75 1.306-1.769-.009-.185.044-.279.155-.283zM61.589 43.339l.004.111.219-.119c.073-.003.112.033.114.107.075-.002.111-.041.108-.114 1.493.266 2.253.796 2.279 1.593l.004.11c.035 1.076-.75 1.991-2.358 2.749-.074.005-.184.043-.33.125-.971-.209-1.462-.49-1.474-.842l-.011-.334c-.004-.111.473-.277 1.43-.492.646-.69.959-1.256.945-1.7l-.444.014c-.964.031-2.386.746-4.269 2.146l.015.443c.327.36 1.389 1.066 3.186 2.119.698.906 1.052 1.487 1.06 1.746l.026.778c.03.89-1.014 1.852-3.131 2.887-1.553.718-4.828 1.534-9.824 2.44.004.113-.325.235-.989.369l-.003-.113-3.529 1.01-.552.13-.118-.218c-.025-.763.846-1.308 2.615-1.648.345-.251 1.339-.506 2.981-.767.001.075.04.111.113.108-.004-.131 1.063-.388 3.203-.775 5.004-1.203 7.481-2.586 7.43-4.143l-.008-.223c-.205-.588-.969-1.229-2.29-1.927-1.1-.74-1.792-1.423-2.071-2.045-.026-.797 1.53-1.925 4.673-3.383.259-.006.591-.055.996-.142zM72.989 43.098c.6.185.978.431 1.138.741l.022.667-.211.34-.782-.084c-1.612.053-3.285 1.074-5.017 3.06-.191.397-.326.809-.404 1.239.073-.002.304.248.693.754l.218-.118c.129-.002.429.062.897.193l.219-.118c.073-.002.112.034.115.106l5.525-1.185c.002.075.041.111.115.106.039 1.188-1.453 2.052-4.477 2.599l-.004-.111-.218.118-.777.027c-.075.003-.112-.034-.116-.108l-.218.12c-1.854.062-3.108-.862-3.766-2.77l-.037-1.112c.289-.789 1.04-1.665 2.25-2.635 1.314-1.154 2.927-1.766 4.835-1.829zM84.416 42.829c.074-.003.186.031.336.1.038-.001.184-.043.441-.126.722-.023 1.25.218 1.582.727l.008.222c.009.279-.799.528-2.423.749-2.083.941-3.607 1.956-4.572 3.046-.568.817-.846 1.382-.834 1.697l.11-.002c.908-.031 2.73-1.019 5.466-2.967 1.159-.835 2.105-1.387 2.839-1.652.971.245 1.469.711 1.493 1.398l.007.221c-1.285 2.064-1.978 3.533-2.078 4.409l-.112.005c-.463.016-.921-.377-1.374-1.178-.003-.075-.044-.187-.123-.329.021-.466.157-.84.408-1.126l-.111.002c-2.9 2.024-4.833 3.053-5.796 3.087-.871.027-1.589-.393-2.156-1.264-.235-.363-.362-.843-.382-1.435-.034-1.001 1.108-2.336 3.428-4.011.615-.464 1.896-.989 3.843-1.573zM95.17 39.938c.668.016 1.013.338 1.033.967-1.642 1.928-2.827 4.193-3.557 6.797.002.073.04.109.115.107l-.093.561.016.442.13.554c1.532-.756 3.087-1.959 4.664-3.606.633-.483 1.956-2.013 3.966-4.584.981-.032 1.547.246 1.696.834l.004.112c.006.184-.62 1.43-1.879 3.732-1.808 4.735-4.436 9.388-7.881 13.954-3.445 4.065-6.17 6.902-8.175 8.507-4.06 3.437-7.739 5.452-11.04 6.045l-.004-.109-.218.116-.779.026c-2.376-.07-3.577-.474-3.601-1.216-.156-.234-.237-.418-.241-.547-.075-2.243 1.678-5.305 5.257-9.19l2.602-2.091 1.968-1.066c.005.147.155.216.452.207.007.222-.1.338-.322.345l.119.218c.003.093-.248.324-.756.692.01.297-.816 1.103-2.479 2.422-2.561 2.737-3.944 4.601-4.154 5.59-.463.019-.798 1.104-1.004 3.262.437.283.701.422.794.42.145-.079.256-.12.329-.123.371-.011.559.055.564.205 2.751-.389 5.709-1.787 8.875-4.192 2.113-1.721 3.808-3.187 5.085-4.398 4.479-4.712 7.676-8.975 9.59-12.785.812-1.232 1.61-2.892 2.394-4.978-2.224 2.301-4.039 3.475-5.447 3.521l-.223.009c-1.344-.288-2.035-.933-2.068-1.937l-.011-.331c-.074-2.225 1.061-4.896 3.406-8.017.329-.122.621-.281.873-.475zM154.416.984c1.113 0 1.671.056 1.674.167l.219-.118.11-.003c1.873.531 2.813.908 2.821 1.13.986.652 1.5 1.601 1.542 2.841-.277 2.273-1.423 4.611-3.439 7.016-.304.882-3.025 3.867-8.16 8.953-1.104.815-2.259 1.782-3.465 2.898l-6.062 5.099-10.965 8.267c-3.131 5.114-6.202 9.817-9.213 14.109-.305.307-.67.468-1.096.481-.241-.531-.364-.86-.368-.989 1.325-1.993 2.143-3.058 2.453-3.198-.012-.37 1.254-2.454 3.799-6.248.49-.851.734-1.342.729-1.472-1.993 1.402-3.008 2.105-3.046 2.106l-.333.01.104-.226-.11.003-.327.234-.111.004-.003-.11c.101-.3.282-.454.54-.465l-.118-.218c.13-.005.415-.349.856-1.031 2.555-1.828 4.253-3.183 5.096-4.064.592-1.151 1.398-2.551 2.42-4.199 2.234-4.156 3.461-6.311 3.679-6.467l.112-.004-.118-.218c1.315-2.251 2.607-4.668 3.875-7.253 1.068-1.908 2.039-3.945 2.913-6.106 1.158-3.081 2.071-4.632 2.738-4.655l.326-.232c.154.18.233.326.237.436l.552-.128.004.11c-.819 1.586-1.785 3.77-2.898 6.552-2.173 4.339-3.568 7.02-4.184 8.041l-.111.004.119.219-6.511 11.681.112-.004c.376-.421.991-.886 1.845-1.397.249-.304.793-.694 1.63-1.167-.003-.112.718-.728 2.165-1.853l.226.104c-.007-.204.822-.936 2.486-2.197 1.441-1.309 2.345-1.97 2.716-1.983l-.119-.218c1.674-1.558 2.792-2.486 3.357-2.783 6.863-6.127 10.979-10.642 12.347-13.545 1.199-1.838 1.781-3.342 1.742-4.509-.171-1.256-.822-1.865-1.952-1.827-.004-.13-.823-.213-2.457-.251-.146.078-.256.12-.33.122l-.004-.11-.219.119-.333.012c-.075.001-.112-.034-.115-.108l-.218.118c-.074.002-.113-.032-.115-.107-4.889.812-8.924 2.171-12.105 4.076-1.194.374-3.552 1.974-7.075 4.799-2.433 2.14-4.22 4.166-5.362 6.078-2.425 3.494-4.418 8.234-5.981 14.222.01.278-.288 1.364-.893 3.257l-.222.007-.03-.889c-.259.009-.454-.281-.584-.871l-.112.004-.004-.112c.014-.148.085-.226.215-.229.002.074.041.11.115.107-.087-.405-.135-.7-.141-.887.326-1.346.563-2.021.712-2.025.002.074.041.109.115.107l-.13-.553c1.223-4.475 2.656-8.23 4.298-11.272 2.622-4.261 5.956-7.749 10.002-10.463 1.97-1.53 4.921-3.113 8.855-4.747l2.865-.874.667-.022c1.166-.636 3.083-.996 5.751-1.086zM146.662 12.096l-.049.224-.13.227.09.219c-.152.432-.475 1.064-.966 1.897l.09.22-.024.111c-.377.329-.601.596-.668.802.061.166.083.286.068.36-.167.024-1.144 1.903-2.929 5.635-1.999 3.479-4.415 8.605-7.25 15.377-.149-.013-.684 1.146-1.609 3.478-.131-.015-.49.609-1.078 1.871-2.003 3.925-3.419 6.271-4.245 7.041-.03.225-.446.274-1.248.154-.484-.059-.789-.29-.913-.694l-.004-.109c1.249-.953 2.523-2.794 3.822-5.527.284-.399 1.298-2.268 3.042-5.61-.075-.015-.104-.06-.089-.135.165-.062 1.447-2.766 3.848-8.114 2.476-5.296 5.168-10.226 8.076-14.793-.074-.016-.113-.061-.115-.135.749-.878 1.278-1.703 1.587-2.473l.225.047-.046.308.112.025c.081-.285.217-.42.403-.406zM140.612 40.956c.074-.003.187.029.337.099.037-.001.184-.043.44-.126.723-.023 1.25.219 1.583.727l.009.223c.008.279-.8.527-2.425.749-2.083.94-3.607 1.957-4.572 3.044-.567.819-.845 1.385-.833 1.698l.112-.003c.906-.031 2.729-1.019 5.465-2.964 1.158-.837 2.105-1.388 2.837-1.653.973.245 1.472.712 1.494 1.396l.007.223c-1.285 2.063-1.979 3.536-2.079 4.408l-.111.007c-.463.014-.921-.38-1.375-1.181-.002-.072-.044-.184-.122-.329.021-.463.156-.84.408-1.126l-.111.003c-2.901 2.026-4.833 3.055-5.796 3.086-.872.03-1.589-.393-2.157-1.264-.234-.361-.361-.84-.382-1.433-.033-1.001 1.109-2.338 3.427-4.01.616-.465 1.898-.99 3.844-1.574zM151.457 39.924c.204-.005.586.314 1.146.964.026.761-1.196 3.102-3.661 7.022-.297.009-.694.32-1.193.931-.522-.057-.786-.159-.79-.307l-.008-.225 2.946-5.104c.69-1.563 1.033-2.428 1.027-2.595-.016-.443.162-.672.533-.686zm2.883-11.17l.64-.02c.624.35.936.552.938.608.021.63-.5 1.408-1.564 2.333l-.442.099c-.241.008-.584-.25-1.028-.773l-.006-.194c.351-1.162.786-1.751 1.305-1.769-.006-.184.046-.28.157-.284zM158.049 39.038c.819.085 1.233.255 1.241.515-.187 1.082-.727 2.659-1.623 4.729l.112-.005c1.423-1.234 2.775-1.873 4.054-1.915-.003-.075.033-.112.107-.115l.226.104.441-.125c1.259-.043 2.023.638 2.293 2.038l.004.111c-.376 2.608-.889 3.925-1.538 3.947l-.112.002c-.458-.411-.688-.663-.692-.756l-.018-.556c.323-1.421.476-2.429.456-3.021l-.004-.111c-.004-.147-.081-.22-.23-.215-1.631.055-3.734 1.499-6.311 4.329-.186.005-.516.091-.994.257-.737-.423-1.118-.706-1.141-.854l-.007-.223c-.007-.184.689-1.582 2.086-4.187.731-2.583 1.281-3.901 1.65-3.949z"/></g></svg>