<?xml version="1.0" encoding="utf-8"?>
<!-- Generator: Adobe Illustrator 18.0.0, SVG Export Plug-In . SVG Version: 6.00 Build 0)  -->
<!DOCTYPE svg PUBLIC "-//W3C//DTD SVG 1.1//EN" "http://www.w3.org/Graphics/SVG/1.1/DTD/svg11.dtd">
<svg version="1.1" id="Layer_1" xmlns="http://www.w3.org/2000/svg" xmlns:xlink="http://www.w3.org/1999/xlink" x="0px" y="0px"
	 viewBox="41.9 73.6 180.9 180.9" enable-background="new 41.9 73.6 180.9 180.9" xml:space="preserve">
<g>
	<path fill="#FF7473" d="M148.3,145.8c4.9,42.3-24.2,81.3-23.9,85.2c-0.7,5.6,9.2-25.5-19.1-60.4C78,135.9,42,119.1,66.1,106.8
		c10.7-5.6,31.4-7.9,48.4-1.8C131.9,110.8,145.5,125.1,148.3,145.8z"/>
</g>
<path fill="#ED9E6E" d="M82.7,218.6C82.8,218.6,82.8,218.7,82.7,218.6c0-0.1,0-0.3,0-0.4C82.7,218.3,82.7,218.5,82.7,218.6"/>
<path fill="#ED9E6E" d="M202.8,196.2C202.8,196.2,202.8,196.1,202.8,196.2c0-0.2,0-0.4-0.1-0.5C202.7,195.9,202.7,196,202.8,196.2"
	/>
<linearGradient id="SVGID_1_" gradientUnits="userSpaceOnUse" x1="77.7549" y1="193.1956" x2="106.8164" y2="193.1956" gradientTransform="matrix(0.9829 -0.1842 0.1842 0.9829 -27.9439 27.1907)">
	<stop  offset="0" style="stop-color:#FF7BAC"/>
	<stop  offset="1" style="stop-color:#FF7BAC;stop-opacity:0"/>
</linearGradient>
<path opacity="0.56" fill="url(#SVGID_1_)" d="M112.6,197.4c1.5,7.9-3.7,15.5-11.6,17c-7.9,1.5-15.5-3.7-17-11.6
	c-1.5-7.9,3.7-15.5,11.6-17C103.6,184.3,111.2,189.5,112.6,197.4"/>
<linearGradient id="SVGID_2_" gradientUnits="userSpaceOnUse" x1="166.4462" y1="193.1956" x2="195.51" y2="193.1956" gradientTransform="matrix(0.9829 -0.1842 0.1842 0.9829 -27.9439 27.1907)">
	<stop  offset="0" style="stop-color:#FF7BAC"/>
	<stop  offset="1" style="stop-color:#FF7BAC;stop-opacity:0"/>
</linearGradient>
<path opacity="0.56" fill="url(#SVGID_2_)" d="M199.8,181.1c1.5,7.9-3.7,15.5-11.6,17c-7.9,1.5-15.5-3.7-17-11.6
	c-1.5-7.9,3.7-15.5,11.6-17C190.7,168,198.3,173.2,199.8,181.1"/>
<linearGradient id="SVGID_3_" gradientUnits="userSpaceOnUse" x1="-26.2098" y1="96.5702" x2="5.5214" y2="96.5702" gradientTransform="matrix(-0.9829 0.1842 0.1842 0.9829 124.415 -1.3685)">
	<stop  offset="0" style="stop-color:#C2982E"/>
	<stop  offset="0" style="stop-color:#A2792C"/>
	<stop  offset="0.4607" style="stop-color:#CDA430"/>
	<stop  offset="0.5618" style="stop-color:#CDA430"/>
	<stop  offset="0.8202" style="stop-color:#F8D975"/>
	<stop  offset="1" style="stop-color:#C2982E"/>
	<stop  offset="1" style="stop-color:#A2792C"/>
</linearGradient>
<path opacity="0.54" fill="url(#SVGID_3_)" d="M154.6,82.5c-13.2-5.4-26.9,1.5-14.2,12c5.1,4.2,12,6.5,18.1,7.3
	c12.3,1.4,11.3-3.5,11.3-3.5S167.8,87.9,154.6,82.5"/>
<path fill="#2A262A" d="M107.7,164.4c-1.2-6.5-7.4-10.7-13.9-9.5c-6.4,1.2-10.7,7.4-9.5,13.9c1.2,6.5,7.4,10.7,13.9,9.5
	C104.6,177.1,108.9,170.9,107.7,164.4"/>
<path fill="#2A262A" d="M169.4,140.7c-6.4,1.2-10.7,7.4-9.5,13.9c1.2,6.5,7.4,10.7,13.9,9.5c6.5-1.2,10.7-7.4,9.5-13.9
	C182.1,143.8,175.9,139.5,169.4,140.7"/>
<path fill="#171C21" d="M150.9,206.7c-14.4,6.2-23.2,1-24.8-2.8c-0.5-1.1,0-2.3,1.1-2.7l36-15.5c1.1-0.5,2.3,0,2.7,1.1
	C167.5,190.5,165.2,200.5,150.9,206.7z"/>
<linearGradient id="SVGID_4_" gradientUnits="userSpaceOnUse" x1="41.8771" y1="164.0992" x2="222.8222" y2="164.0992" gradientTransform="matrix(0.9829 -0.1842 0.1842 0.9829 -27.9439 27.1907)">
	<stop  offset="0" style="stop-color:#C2982E"/>
	<stop  offset="0" style="stop-color:#A2792C"/>
	<stop  offset="0.4607" style="stop-color:#CDA430"/>
	<stop  offset="0.5618" style="stop-color:#CDA430"/>
	<stop  offset="0.8202" style="stop-color:#F8D975"/>
	<stop  offset="1" style="stop-color:#C2982E"/>
	<stop  offset="1" style="stop-color:#A2792C"/>
</linearGradient>
<circle fill="none" stroke="url(#SVGID_4_)" stroke-miterlimit="10" cx="132.4" cy="164.1" r="89.9"/>
</svg>
