<?xml version="1.0" encoding="utf-8"?>
<!-- Generator: Adobe Illustrator 22.0.0, SVG Export Plug-In . SVG Version: 6.00 Build 0)  -->
<svg version="1.1" id="Layer_1" xmlns="http://www.w3.org/2000/svg" xmlns:xlink="http://www.w3.org/1999/xlink" x="0px" y="0px"
	 viewBox="0 0 282.7 218.9" style="enable-background:new 0 0 282.7 218.9;" xml:space="preserve">
<style type="text/css">
	.st0{fill:#163F3D;stroke:#163F3D;stroke-width:7;stroke-miterlimit:10;}
	.st1{fill:#163F3D;}
</style>
<g>
	<g>
		<path class="st0" d="M210.1,148.4V93h31.5v55.4H210.1z M246.3,148.4V93H262c3.2,0,5.7,0.3,7.6,0.9c1.9,0.6,3.6,1.6,5.1,3.1
			c1.4,1.3,2.5,2.9,3.2,4.6c0.8,1.8,1.1,3.7,1.1,5.6c0,4.2-1.5,7.7-4.5,10.2c-0.9,0.8-1.7,1.4-2.5,1.8c-0.7,0.4-2.1,0.9-4,1.5v0.1
			c1.7,0.6,3,1.1,3.9,1.6c0.9,0.4,1.7,1.1,2.6,1.9c3.2,2.8,4.7,6.4,4.7,10.7c0,1.9-0.4,3.6-1.1,5.2c-0.7,1.6-1.7,3.1-3,4.3
			c-1.3,1.3-2.8,2.3-4.4,2.9c-1.6,0.7-3.4,1.1-5.3,1.1H246.3z"/>
	</g>
	<g>
		<path class="st1" d="M170.5,218.9v-63.3h31.7v63.3H170.5z M206.9,200v-44.4h9.7c4.1,0,7.9,1,11.2,2.9c3.3,1.9,5.9,4.6,7.7,8
			c1.8,3.4,2.7,7.3,2.7,11.6c0,3.1-0.5,5.9-1.5,8.5c-1,2.7-2.5,5.1-4.4,7.1c-1.9,2-4.1,3.5-6.6,4.6c-2.5,1.1-5.2,1.6-8,1.6H206.9z"
			/>
	</g>
</g>
<g>
	<path class="st1" d="M5,4h15.6c2.1,0,4.2,0.2,6.2,0.6c2,0.4,3.8,1.1,5.4,2.1c1.6,1,2.9,2.3,3.9,3.9c1,1.6,1.5,3.6,1.5,5.9
		c0,3-0.8,5.4-2.4,7.4c-1.6,1.9-3.8,3.3-6.5,4.1v0.1c1.6,0.1,3.2,0.6,4.6,1.3c1.4,0.7,2.6,1.6,3.7,2.7c1,1.1,1.8,2.4,2.4,3.9
		c0.6,1.5,0.9,3,0.9,4.7c0,2.8-0.6,5.2-1.8,7c-1.2,1.8-2.7,3.3-4.6,4.4c-1.9,1.1-4,1.8-6.4,2.3c-2.4,0.4-4.7,0.6-7.1,0.6H5V4z
		 M11,25.6h8.4c1.4,0,2.8-0.1,4.2-0.3c1.4-0.2,2.6-0.6,3.7-1.2c1.1-0.6,2-1.4,2.7-2.5c0.7-1.1,1-2.5,1-4.3c0-1.6-0.3-2.9-0.9-3.9
		c-0.6-1-1.5-1.8-2.5-2.3c-1-0.6-2.2-1-3.5-1.2c-1.3-0.2-2.7-0.3-4-0.3h-9V25.6z M11,49.4h10.2c1.5,0,3-0.2,4.4-0.5
		c1.5-0.3,2.8-0.8,4-1.5c1.2-0.7,2.1-1.6,2.8-2.7c0.7-1.1,1.1-2.5,1.1-4.1c0-1.8-0.3-3.3-1-4.5c-0.7-1.2-1.6-2.2-2.7-2.9
		c-1.1-0.7-2.4-1.2-3.9-1.5c-1.5-0.3-3-0.4-4.5-0.4H11V49.4z"/>
	<path class="st1" d="M48.6,8.1C48.6,7,49,6,49.7,5.2C50.5,4.4,51.5,4,52.7,4c1.2,0,2.1,0.4,2.9,1.2C56.4,6,56.8,7,56.8,8.1
		c0,1.2-0.4,2.2-1.2,3c-0.8,0.8-1.8,1.2-3,1.2c-1.2,0-2.2-0.4-3-1.2C48.9,10.3,48.6,9.3,48.6,8.1z M49.9,21.3h5.6V55h-5.6V21.3z"/>
	<path class="st1" d="M67.4,46.1c1.1,1.4,2.3,2.5,3.6,3.3c1.3,0.8,3,1.2,5,1.2c0.9,0,1.7-0.1,2.6-0.3c0.9-0.2,1.7-0.5,2.4-0.9
		s1.3-1,1.7-1.6s0.6-1.4,0.6-2.3c0-0.9-0.2-1.7-0.6-2.2c-0.4-0.6-0.9-1.1-1.6-1.5c-0.7-0.4-1.4-0.7-2.3-1c-0.9-0.2-1.8-0.5-2.7-0.6
		c-1.6-0.3-3.1-0.7-4.5-1.2c-1.4-0.4-2.7-1-3.8-1.7c-1.1-0.7-1.9-1.6-2.6-2.7c-0.6-1.1-1-2.5-1-4.2c0-1.6,0.4-3.1,1.1-4.3
		c0.7-1.2,1.7-2.3,2.9-3.1c1.2-0.8,2.5-1.4,4-1.9c1.5-0.4,3-0.6,4.6-0.6c2.4,0,4.6,0.5,6.7,1.4c2,1,3.6,2.5,4.8,4.7l-4.7,3.1
		c-0.7-1.2-1.7-2.2-2.8-2.9c-1.2-0.7-2.6-1.1-4.3-1.1c-0.8,0-1.5,0.1-2.3,0.3c-0.8,0.2-1.5,0.5-2.1,0.9c-0.6,0.4-1.1,0.9-1.5,1.5
		c-0.4,0.6-0.6,1.3-0.6,2.1c0,0.7,0.2,1.3,0.7,1.8c0.5,0.5,1.1,0.9,1.9,1.3c0.8,0.4,1.7,0.7,2.7,1c1,0.3,2.1,0.5,3.2,0.7
		c1.5,0.3,2.9,0.7,4.2,1.1c1.3,0.5,2.5,1.1,3.5,1.8c1,0.8,1.8,1.7,2.4,2.9c0.6,1.2,0.9,2.6,0.9,4.2c0,1.9-0.4,3.6-1.2,4.9
		c-0.8,1.3-1.8,2.4-3.1,3.3c-1.3,0.8-2.7,1.5-4.3,1.8c-1.6,0.4-3.3,0.6-4.9,0.6c-2.9,0-5.4-0.4-7.5-1.3c-2.1-0.9-4-2.5-5.7-4.9
		L67.4,46.1z"/>
	<path class="st1" d="M121.3,29.7c-1.2-1.4-2.5-2.5-3.9-3.1c-1.4-0.6-2.9-1-4.6-1c-1.9,0-3.5,0.3-5,1c-1.4,0.6-2.6,1.5-3.6,2.7
		s-1.6,2.5-2.1,4c-0.5,1.5-0.7,3.1-0.7,4.9c0,1.7,0.3,3.3,0.8,4.9c0.6,1.5,1.3,2.8,2.3,4c1,1.2,2.2,2.1,3.6,2.7c1.4,0.6,3,1,4.7,1
		c3.7,0,6.6-1.4,8.6-4.2l4.2,4c-1.6,1.9-3.6,3.2-5.8,4.1c-2.2,0.9-4.5,1.3-7,1.3c-2.6,0-5-0.4-7.1-1.3c-2.2-0.9-4-2.1-5.5-3.7
		c-1.5-1.6-2.7-3.5-3.5-5.6c-0.8-2.2-1.3-4.5-1.3-7.1c0-2.5,0.4-4.9,1.3-7.1c0.8-2.2,2-4,3.6-5.6c1.5-1.6,3.4-2.8,5.5-3.7
		c2.1-0.9,4.5-1.3,7.1-1.3c2.5,0,4.9,0.4,7.1,1.3c2.2,0.9,4.2,2.2,5.9,4L121.3,29.7z"/>
	<path class="st1" d="M131.6,25.6c1.7-1.8,3.8-3.1,6.2-3.9c2.4-0.8,4.8-1.3,7.2-1.3c5,0,8.6,1.2,10.8,3.5c2.2,2.4,3.3,5.9,3.3,10.7
		v14.5c0,1,0,2,0.1,3c0.1,1,0.2,2,0.4,2.8h-5.4c-0.2-0.8-0.3-1.6-0.3-2.6c0-0.9,0-1.8,0-2.5h-0.1c-1.1,1.7-2.6,3.1-4.4,4.2
		c-1.8,1.1-4.1,1.7-6.7,1.7c-1.7,0-3.3-0.2-4.9-0.6c-1.5-0.4-2.8-1.1-4-1.9c-1.1-0.8-2-1.9-2.7-3.1c-0.7-1.2-1-2.7-1-4.3
		c0-2.8,0.7-5,2.2-6.6s3.2-2.8,5.4-3.5c2.1-0.8,4.4-1.2,6.9-1.4c2.5-0.2,4.7-0.3,6.8-0.3h2.2v-1c0-2.4-0.7-4.3-2.2-5.5
		c-1.5-1.2-3.5-1.9-6.2-1.9c-1.8,0-3.6,0.3-5.4,0.9c-1.8,0.6-3.3,1.5-4.6,2.8L131.6,25.6z M147.8,38.8c-3.6,0-6.5,0.5-8.6,1.5
		c-2.1,1-3.2,2.7-3.2,5c0,2.1,0.7,3.6,2.1,4.5c1.4,0.9,3.2,1.3,5.3,1.3c1.6,0,3.1-0.3,4.3-0.8c1.2-0.6,2.2-1.3,3.1-2.2
		c0.8-0.9,1.4-2,1.9-3.2c0.4-1.2,0.7-2.5,0.7-3.9v-2.2H147.8z"/>
	<path class="st1" d="M181.8,62.7c-0.6,1.4-1.2,2.7-1.8,3.9c-0.6,1.2-1.3,2.2-2.2,3c-0.8,0.8-1.8,1.5-3,1.9
		c-1.2,0.5-2.6,0.7-4.3,0.7c-0.8,0-1.7,0-2.6-0.1c-0.9-0.1-1.7-0.3-2.5-0.7l0.7-4.9c0.6,0.2,1.2,0.4,1.8,0.5
		c0.6,0.1,1.3,0.1,2.2,0.1c1.8,0,3.2-0.5,4-1.5c0.9-1,1.6-2.4,2.2-4l2.3-6.3l-14-33.9h6.6l10.4,26.4h0.1l10-26.4h6.1L181.8,62.7z"/>
	<path class="st1" d="M49,66.4h15.1c2.4,0,4.6,0.2,6.7,0.7c2.1,0.5,4,1.2,5.7,2.3c1.7,1.1,3,2.5,4,4.3c1,1.8,1.5,4,1.5,6.7
		c0,2.8-0.5,5.1-1.6,6.9c-1.1,1.8-2.4,3.3-4.1,4.3c-1.7,1.1-3.5,1.8-5.4,2.2c-2,0.4-3.8,0.6-5.6,0.6H55v22.9h-6V66.4z M55,88.9h10.2
		c3,0,5.5-0.7,7.4-2.1c1.9-1.4,2.8-3.5,2.8-6.4s-0.9-5-2.8-6.4c-1.9-1.4-4.4-2.1-7.4-2.1H55V88.9z"/>
	<path class="st1" d="M91.2,62.9h5.6v54.4h-5.6V62.9z"/>
	<path class="st1" d="M107.5,88c1.7-1.8,3.8-3.1,6.2-3.9c2.4-0.8,4.8-1.3,7.2-1.3c5,0,8.6,1.2,10.8,3.5c2.2,2.4,3.3,5.9,3.3,10.7
		v14.5c0,1,0,2,0.1,3c0.1,1,0.2,2,0.4,2.8h-5.4c-0.2-0.8-0.3-1.6-0.3-2.6c0-0.9,0-1.8,0-2.5h-0.1c-1.1,1.7-2.6,3.1-4.4,4.2
		c-1.8,1.1-4.1,1.7-6.7,1.7c-1.7,0-3.3-0.2-4.9-0.6c-1.5-0.4-2.8-1.1-4-1.9c-1.1-0.8-2-1.9-2.7-3.1c-0.7-1.2-1-2.7-1-4.3
		c0-2.8,0.7-5,2.2-6.6s3.2-2.8,5.4-3.5c2.1-0.8,4.4-1.2,6.9-1.4c2.5-0.2,4.7-0.3,6.8-0.3h2.2v-1c0-2.4-0.7-4.3-2.2-5.5
		c-1.5-1.2-3.5-1.9-6.2-1.9c-1.8,0-3.6,0.3-5.4,0.9c-1.8,0.6-3.3,1.5-4.6,2.8L107.5,88z M123.8,101.2c-3.6,0-6.5,0.5-8.6,1.5
		c-2.1,1-3.2,2.7-3.2,5c0,2.1,0.7,3.6,2.1,4.5c1.4,0.9,3.2,1.3,5.3,1.3c1.6,0,3.1-0.3,4.3-0.8c1.2-0.6,2.2-1.3,3.1-2.2
		c0.8-0.9,1.4-2,1.9-3.2c0.4-1.2,0.7-2.5,0.7-3.9v-2.2H123.8z"/>
	<path class="st1" d="M144.5,70.5c0-1.1,0.4-2.1,1.2-2.9c0.8-0.8,1.8-1.2,2.9-1.2c1.2,0,2.1,0.4,2.9,1.2c0.8,0.8,1.2,1.8,1.2,2.9
		c0,1.2-0.4,2.2-1.2,3c-0.8,0.8-1.8,1.2-3,1.2c-1.2,0-2.2-0.4-3-1.2C144.9,72.7,144.5,71.7,144.5,70.5z M145.8,83.7h5.6v33.7h-5.6
		V83.7z"/>
	<path class="st1" d="M162.6,91.7c0-1.5,0-3-0.1-4.3c-0.1-1.3-0.1-2.6-0.1-3.7h5.3c0,0.9,0,1.8,0.1,2.7c0,0.9,0.1,1.8,0.1,2.8h0.1
		c0.4-0.8,0.9-1.6,1.6-2.4c0.7-0.8,1.5-1.5,2.5-2.1c1-0.6,2-1.1,3.2-1.4c1.2-0.4,2.5-0.5,3.9-0.5c2.2,0,4.1,0.3,5.7,1
		c1.6,0.7,2.9,1.6,4,2.8c1.1,1.2,1.8,2.7,2.3,4.4c0.5,1.7,0.8,3.6,0.8,5.6v20.8h-5.6V97.1c0-2.8-0.6-5.1-1.9-6.7
		c-1.2-1.6-3.2-2.4-5.8-2.4c-1.8,0-3.4,0.3-4.7,0.9c-1.3,0.6-2.4,1.5-3.2,2.7c-0.8,1.2-1.5,2.5-1.9,4.1c-0.4,1.6-0.6,3.3-0.6,5.3
		v16.4h-5.6V91.7z"/>
</g>
</svg>
