<?xml version="1.0" encoding="utf-8"?>
<!-- Generator: Adobe Illustrator 22.0.0, SVG Export Plug-In . SVG Version: 6.00 Build 0)  -->
<svg version="1.1" id="Layer_1" xmlns="http://www.w3.org/2000/svg" xmlns:xlink="http://www.w3.org/1999/xlink" x="0px" y="0px"
	 viewBox="0 0 477.2 71.1" style="enable-background:new 0 0 477.2 71.1;" xml:space="preserve">
<style type="text/css">
	.st0{fill:#163F3D;}
	.st1{fill:#FFFFFF;stroke:#FFFFFF;stroke-miterlimit:10;}
	.st2{fill:#163F3D;stroke:#163F3D;stroke-miterlimit:10;}
</style>
<circle class="st0" cx="54.8" cy="41.6" r="28.5"/>
<g>
	<path class="st0" d="M142.3,53.6h-15.5V18.2h13.8c2.4,0,4.5,0.3,6.2,0.8s3.1,1.4,3.9,2.4c1.5,1.8,2.4,3.9,2.4,6.2
		c0,2.8-0.8,4.8-2.7,6.2c-0.6,0.4-1,0.7-1.3,0.8c-0.3,0.1-0.7,0.3-1.3,0.6c2.3,0.4,3.9,1.4,5.2,3c1.3,1.5,2,3.4,2,5.6
		c0,2.5-0.8,4.6-2.5,6.5C150.6,52.5,147.2,53.6,142.3,53.6z M134.7,32.5h3.8c2.3,0,3.8-0.3,4.9-0.7c1.1-0.4,1.5-1.5,1.5-3.1
		s-0.4-2.7-1.4-3.1c-1-0.6-2.7-0.7-4.9-0.7h-3.8L134.7,32.5L134.7,32.5z M134.7,46.8h5.5c2.3,0,3.9-0.3,5.1-0.8
		c1.1-0.6,1.7-1.7,1.7-3.2c0-1.7-0.6-2.7-1.8-3.2c-1.3-0.6-3.1-0.8-5.8-0.8h-4.6L134.7,46.8z"/>
	<path class="st0" d="M161.7,18.2h7.9v35.4h-7.9V18.2z"/>
	<path class="st0" d="M186.6,25.3c-0.7,0.6-1.1,1.4-1.1,2.5s0.4,1.8,1.4,2.4c1,0.6,3.1,1.3,6.5,2.1c3.4,0.8,5.9,2.1,7.9,3.7
		c1.8,1.7,2.8,4.1,2.8,7.2c0,3.2-1.1,5.8-3.5,7.7c-2.4,2-5.5,3-9.4,3c-5.6,0-10.7-2.1-15.2-6.2l4.6-5.8c3.8,3.4,7.3,5.1,10.5,5.1
		c1.4,0,2.5-0.3,3.4-1c0.8-0.6,1.3-1.4,1.3-2.5s-0.4-2-1.3-2.5c-0.8-0.6-2.7-1.3-5.2-1.8c-4.1-1-7.2-2.3-9-3.8
		c-2-1.5-2.8-4.1-2.8-7.5s1.3-5.9,3.7-7.7c2.4-1.8,5.5-2.7,9-2.7c2.4,0,4.8,0.4,7,1.3c2.4,0.8,4.4,2,6.2,3.4l-3.9,5.8
		c-3.1-2.4-6.2-3.5-9.6-3.5C188.4,24.3,187.4,24.6,186.6,25.3z"/>
	<path class="st0" d="M226.9,46.6c3.9,0,7-1.5,9.6-4.6l5.1,5.2c-4.1,4.5-8.7,6.8-14.2,6.8c-5.5,0-10-1.7-13.5-5.2
		c-3.5-3.4-5.3-7.7-5.3-13.1c0-5.2,1.8-9.6,5.3-13.1s8-5.2,13.2-5.2c5.8,0,10.7,2.3,14.6,6.6l-4.9,5.6c-2.5-3.1-5.6-4.6-9.3-4.6
		c-3,0-5.5,1-7.6,3c-2.1,2-3.1,4.5-3.1,7.9c0,3.4,1,5.9,3,7.9C221.7,45.6,224.1,46.6,226.9,46.6z"/>
	<path class="st0" d="M272.6,53.6l-3.2-7.6h-14.8l-3.2,7.6H243l15.3-35.4h7.6l15.2,35.4H272.6z M261.9,28.7L257.4,39h8.9L261.9,28.7
		z"/>
	<path class="st0" d="M297.9,53.6h-7.9V39.7l-12.4-21.5h8.6l7.6,13.2l7.6-13.2h8.6l-12.2,21.4L297.9,53.6L297.9,53.6z"/>
	<path class="st0" d="M351.7,21.4c2.5,2.1,3.7,5.3,3.7,9.7s-1.3,7.6-3.8,9.6c-2.5,2-6.5,3.1-11.7,3.1h-4.6v9.8h-7.9V18.2h12.5
		C345.2,18.2,349.3,19.3,351.7,21.4z M345.9,35.3c1-1.1,1.4-2.7,1.4-4.6c0-2-0.6-3.5-1.8-4.4s-3.1-1.3-5.8-1.3h-4.5v12h5.3
		C343.2,36.9,344.9,36.3,345.9,35.3z"/>
	<path class="st0" d="M361.6,53.6V18.2h7.9v28.4h15v7H361.6z"/>
	<path class="st0" d="M415.5,53.6l-3.2-7.6h-14.8l-3.2,7.6h-8.4l15.3-35.4h7.6l15.2,35.4H415.5z M404.8,28.7L400.3,39h8.9
		L404.8,28.7z"/>
	<path class="st0" d="M428,18.2h7.9v35.4H428V18.2z"/>
	<path class="st0" d="M469.4,18.2h7.9v35.4h-7.9l-16.9-22.2v22.2h-7.9V18.2h7.5l17.3,22.8V18.2z"/>
</g>
<g>
	<path class="st1" d="M89.9,48.7c0,0.2,0,0.2,0,0.3c-0.7-0.9-1.5-2-2.5-2.8c-2.2-1.5-4.5-2-7.3-1.2c-1.5,0.5-2.7,1.4-3.6,2.5
		s-1.6,2.3-2.5,3.4c-0.7,0.8-1.3,1.5-2.2,2.2c-1.5,1.1-2.9,1.2-4.5,0.6c-0.9-0.3-1.5-0.8-2-1.4c-0.7-0.9-1.5-1.9-2.2-2.8
		c-0.9-0.9-1.6-2-2.7-2.9c-1.8-1.5-4.2-2-6.7-1.5c-1.6,0.3-2.9,1.2-4,2.3c-0.9,1.1-1.8,2.3-2.7,3.4c-0.5,0.8-1.1,1.7-2,2.3
		c-1.1,0.9-2.4,1.4-3.8,1.1c-1.1-0.2-1.8-0.6-2.5-1.2C37.7,52,36.9,51,36.2,50c-0.7-0.9-1.5-2-2.5-2.9c-2.2-1.7-4.5-2.3-7.4-1.7
		c-1.6,0.3-2.9,1.2-3.8,2.3c-0.7,0.6-1.3,1.4-1.8,2.2c0-0.3-0.2-0.5-0.2-0.8l0,0c0.4,1.1,0.7,2.3,1.1,3.4c0.2-0.2,0.5-0.2,0.7-0.2
		c0.4-0.5,0.7-0.8,1.1-1.4c0.5-0.8,1.3-1.5,2-2.2c1.3-0.9,2.5-1.2,4.2-0.9c1.1,0.3,1.8,0.8,2.5,1.5c0.7,0.8,1.5,1.7,2.2,2.6
		c0.7,1.1,1.6,2.2,2.7,3.1c2,1.7,4.4,2.2,7.1,1.5c1.6-0.5,2.9-1.2,3.8-2.3c0.9-1.1,1.6-2.2,2.5-3.3c0.7-0.9,1.3-1.7,2.2-2.5
		c1.1-0.9,2.5-1.2,4.2-0.9c0.9,0.3,1.8,0.9,2.4,1.5c0.9,0.9,1.6,1.9,2.4,2.8c0.9,1.1,1.8,2.2,2.9,3.1c1.6,1.4,3.6,1.9,6,1.5
		c1.8-0.3,3.3-1.1,4.4-2.2c0.9-0.9,1.8-2,2.5-3.1c0.7-0.9,1.3-1.9,2.2-2.6c1.8-1.7,4.4-1.7,6.3-0.2c0.7,0.8,1.5,1.5,2,2.5
		c0.4,0.5,0.7,0.9,1.3,1.7c0,0.2-0.2,0.3-0.2,0.5c0.2,0,0.2,0.2,0.4,0.2c0.5-1.2,1.1-2.5,1.5-3.7C90.2,49.3,90.1,49,89.9,48.7z"/>
	<path class="st1" d="M87.9,29.4c0.2,0.2,0.2,0.5,0.4,0.6c0.2-0.2,0.4-0.2,0.4-0.3c-1.3-2.5-2.9-5-4.9-7c-1.1-0.2-2.2-0.2-3.3,0.2
		c-1.5,0.3-2.7,1.1-3.6,2.2c-0.9,1.1-1.8,2.3-2.7,3.4c-0.5,0.8-1.3,1.7-2,2.3c-1.8,1.5-4.4,1.5-6,0.2c-0.4-0.3-0.7-0.6-1.1-1.1
		c-0.7-0.9-1.3-1.7-2-2.6c-0.9-1.1-1.6-2.2-2.7-2.9c-2.2-1.5-4.7-2-7.4-1.2c-1.5,0.3-2.5,1.2-3.4,2.2c-0.9,1.1-1.6,2.2-2.5,3.3
		c-0.7,0.8-1.3,1.5-2.2,2.3c-1.6,1.2-3.8,1.5-5.4,0.5c-0.5-0.3-1.1-0.8-1.5-1.2c-0.7-0.8-1.5-1.7-2-2.5c-0.9-1.1-1.6-2.2-2.7-3.1
		c-0.7-0.6-1.6-0.9-2.5-1.2c-0.9,0-1.8-0.2-2.5-0.5c-0.2,0-0.4,0-0.5-0.2l0,0l0,0c-1.1,1.1-2,2.2-2.9,3.4c0.2,0,0.5,0,0.7,0.2
		c0.5-0.5,1.3-0.8,2.2-0.8c1.5-0.2,2.7,0.3,3.6,1.2c0.9,0.9,1.6,1.9,2.4,2.8c0.9,1.1,1.6,2.2,2.7,3.1c1.3,1.1,2.9,1.9,4.7,2
		c2.4,0.2,4.4-0.5,6-2c1.1-1.1,1.8-2.3,2.7-3.4c0.7-0.9,1.5-2,2.5-2.8c1.6-1.4,3.8-1.4,5.6-0.2c0.4,0.3,0.7,0.8,1.1,1.1
		c0.7,0.9,1.3,1.7,2,2.6c0.9,1.1,1.6,2.2,2.7,3.1c1.6,1.4,3.8,2,6.2,1.7c1.8-0.3,3.3-1.1,4.4-2.2c0.9-0.9,1.8-2,2.5-3.1
		c0.5-0.9,1.3-1.9,2.2-2.6c1.3-1.1,2.7-1.5,4.4-1.2c0.9,0.2,1.6,0.8,2.4,1.4C86.6,27.5,87.2,28.4,87.9,29.4z"/>
</g>
<g>
	<path class="st2" d="M19.4,51c-0.5,0.8-1.3,1.5-2,2.2c-1.3,1.1-2.7,1.4-4.5,0.8c-0.7-0.3-1.5-0.8-2-1.4C10.1,51.8,9.6,51,9,50.3
		c-0.7-0.9-1.5-2-2.4-2.9c-1.1-1.1-2.5-1.9-4.2-2.2C2,45,1.4,45,0.9,45c0,0.9,0,1.7,0,2.5c0.5,0.2,0.9,0.2,1.3,0.3
		c0.9,0.3,1.6,0.8,2.4,1.5c0.7,0.6,1.5,1.4,2.2,2.3c0.9,1.1,1.6,2.2,2.7,3.1c2.2,1.9,4.7,2.3,7.6,1.4c1.5-0.5,2.7-1.4,3.6-2.5
		c0.4-0.5,0.7-0.8,0.9-1.2c-0.4-0.9-0.7-2-1.1-2.9C20.1,50.1,19.7,50.6,19.4,51z"/>
	<path class="st2" d="M108,45.2c-1.8,0.3-3.1,1.1-4.2,2.3c-0.9,0.9-1.6,2-2.4,2.9c-0.7,0.9-1.5,1.9-2.4,2.6
		c-1.5,1.1-3.3,1.4-4.9,0.8c-0.9-0.3-1.5-0.8-2-1.4c-0.7-0.9-1.5-1.9-2.2-2.8c-0.4,1.1-0.7,2-1.1,2.9c0.4,0.5,0.9,1.1,1.3,1.5
		c1.1,1.2,2.4,2,4.2,2.3c0.4,0.2,0.9,0.2,1.5,0.2c0.2,0,0.4,0,0.5,0h0.2c1.6,0,2.9-0.6,4.2-1.4c1.1-0.8,2-1.9,2.9-2.9
		c0.7-1.1,1.6-2.2,2.5-3.1c0.9-0.9,2-1.7,3.4-1.7c0.2,0,0.2,0,0.2-0.2c0-0.5,0-1.1,0-1.5c0-0.3,0-0.5,0-0.8
		C108.9,45.2,108.4,45.2,108,45.2z"/>
	<path class="st2" d="M4.3,4.9C5,5.8,5.8,6.7,6.5,7.7c0.9,1.1,1.6,2.2,2.7,2.9c2.2,1.7,5.3,2.2,8,1.1c1.5-0.6,2.5-1.5,3.4-2.6
		c0.7-0.9,1.5-2,2.2-2.9c0.5-0.8,1.3-1.5,2.2-2.3c1.1-0.8,2.4-1.1,3.6-0.9c1.1,0.2,2,0.8,2.7,1.5c0.7,0.8,1.5,1.7,2,2.5
		c0.9,1.2,1.8,2.5,3.1,3.4c1.8,1.5,4.2,2,6.7,1.5c1.6-0.3,3.1-1.2,4.2-2.3c0.7-0.6,1.5-1.7,2.2-2.8c0.7-0.9,1.5-1.9,2.4-2.6
		c1.6-1.4,4-1.4,5.8-0.2c0.4,0.3,0.7,0.6,1.1,0.9c0.9,1.1,1.6,2,2.4,3.1c0.7,1.1,1.6,2,2.7,2.8c1.6,1.2,3.6,1.7,5.8,1.4
		c1.8-0.3,3.1-1.1,4.4-2.2c1.1-0.9,1.8-2,2.5-3.1C77.2,6,77.9,5,78.6,4.3C79.7,3.2,81.2,2.7,83,3c1.1,0.2,1.8,0.8,2.4,1.4
		c0.9,0.9,1.6,1.9,2.4,2.9c0.7,1.1,1.6,2.2,2.7,3.1c1.8,1.5,4,2.2,6.5,1.7c1.6-0.3,2.9-1.1,4-2c1.1-0.9,1.8-1.9,2.5-2.9
		c0.5-0.8,1.3-1.5,1.8-2.3c0.9-0.9,2-1.7,3.6-1.7c0.2,0,0.2-0.2,0.2-0.2c0-0.5,0-0.9,0-1.4c0-0.3,0-0.6,0-0.9
		c-0.5,0.2-1.3,0.2-1.8,0.3c-1.6,0.3-2.9,1.1-4,2.2c-0.9,0.9-1.6,2-2.5,3.1c-0.7,0.9-1.5,1.9-2.4,2.6c-0.9,0.9-2.2,1.2-3.8,0.9
		c-1.1-0.2-1.8-0.8-2.5-1.4c-0.9-0.9-1.6-2-2.4-3.1c-0.9-1.1-1.6-2.2-2.7-3.1c-2.2-1.7-5.3-2.2-7.8-1.1c-1.6,0.6-2.5,1.5-3.4,2.5
		c-0.9,0.9-1.6,2-2.4,3.1c-0.5,0.8-1.3,1.5-2,2.2c-1.1,0.8-2.2,1.1-3.6,0.9c-1.1-0.2-2-0.6-2.7-1.4c-0.9-0.9-1.6-1.9-2.4-2.9
		c-0.9-1.1-1.6-2.2-2.7-3.1c-2-1.7-4.4-2.2-7.1-1.5c-1.6,0.3-2.9,1.2-3.8,2.3c-0.9,1.1-1.8,2.2-2.5,3.3c-0.7,0.8-1.3,1.7-2.2,2.3
		c-1.3,1.1-2.7,1.4-4.5,0.9c-0.9-0.3-1.6-0.9-2.2-1.5C36.8,7,36,6,35.1,4.9c-0.7-0.9-1.5-1.9-2.5-2.6c-1.3-0.9-2.7-1.5-4.4-1.7
		c-2.4-0.2-4.4,0.6-5.8,2c-1.1,0.9-1.8,2-2.7,3.1c-0.7,1.1-1.5,2-2.4,2.9c-1.3,1.1-2.5,1.5-4.2,1.1c-1.1-0.2-1.8-0.6-2.5-1.2
		C9.9,7.7,9.2,6.7,8.5,5.8C7.8,4.7,7,3.8,6.1,2.9C5,1.8,3.6,1,2,0.7C1.6,0.7,1.4,0.5,1,0.5c-0.2,0-0.4,0-0.5,0c0,0.8,0,1.7,0,2.5
		C1,3,1.4,3.2,2,3.2C3,3.5,3.8,4.1,4.3,4.9z"/>
	<path class="st2" d="M90.4,32.5c1.5,1.2,3.1,2,5.1,2c2,0,3.6-0.6,5.1-1.7c1.1-0.8,1.8-1.9,2.7-2.9c0.7-0.9,1.5-2,2.4-2.9
		s2-1.7,3.6-1.7l0.2-0.2c0-0.8,0-1.5,0-2.3c-0.4,0-0.9,0-1.3,0.2c-1.6,0.3-3.1,0.9-4.2,2c-1.1,0.9-1.8,2.2-2.7,3.3
		c-0.7,0.9-1.5,2-2.4,2.8c-1.1,0.9-2.5,1.4-4,1.1c-1.1-0.2-1.8-0.8-2.4-1.4c-0.9-0.8-1.5-1.7-2.2-2.6c-0.9-1.2-1.8-2.3-2.9-3.4
		c-1.1-0.9-2.4-1.4-3.6-1.7c2,2.3,3.8,4.8,5.1,7.4C89.2,31.2,89.7,31.8,90.4,32.5z"/>
	<path class="st2" d="M22.6,24.9c-0.9,0.9-1.8,1.9-2.5,2.9c-0.7,1.1-1.5,2.2-2.5,3.1c-1.8,1.7-4.4,1.7-6.3,0.2
		c-0.7-0.6-1.3-1.4-1.8-2c-0.9-1.1-1.6-2.2-2.5-3.3c-0.9-1.1-2.2-2-3.8-2.5C2.3,23.2,1.6,23,0.7,23c0,0.8,0,1.5,0,2.5
		c0.4,0,0.5,0,0.9,0.2c1.1,0.2,2,0.8,2.7,1.5c0.9,0.9,1.6,2,2.4,2.9c0.7,1.1,1.6,2.2,2.7,2.9c2.2,1.7,4.7,2.2,7.6,1.4
		c1.5-0.5,2.5-1.2,3.3-2.3c0.9-0.9,1.6-2,2.4-2.9c0.2-0.3,0.5-0.6,0.7-0.9c1.1-1.9,2.4-3.6,3.8-5.1C25.3,23,23.9,23.6,22.6,24.9z"/>
</g>
</svg>
